<?xml version="1.0" encoding="utf-8"?>
<!-- Generator: Adobe Illustrator 27.5.0, SVG Export Plug-In . SVG Version: 6.00 Build 0)  -->
<svg version="1.1" xmlns="http://www.w3.org/2000/svg" xmlns:xlink="http://www.w3.org/1999/xlink" x="0px" y="0px"
	 viewBox="0 0 500 500" style="enable-background:new 0 0 500 500;" xml:space="preserve">
<g id="Background_Complete">
	<g>
		<g>
			<path style="fill:#E0E0E0;" d="M116.557,334.526l-53.204-19.41c-3.777-1.378-5.722-5.557-4.344-9.334l11.461-31.416
				c1.378-3.777,5.557-5.722,9.334-4.344l53.204,19.41c3.777,1.378,5.722,5.557,4.344,9.334l-11.461,31.416
				C124.513,333.959,120.334,335.904,116.557,334.526z"/>
		</g>
		<g style="opacity:0.3;">
			
				<rect x="65.531" y="289.164" transform="matrix(0.9394 0.3427 -0.3427 0.9394 106.9524 -16.8415)" style="fill:#FFFFFF;" width="71.194" height="10.06"/>
		</g>
		<g>
			<g>
				<path style="fill:#FFFFFF;" d="M89.694,313.302c-0.04,0.108-5.524-1.793-12.248-4.246c-6.726-2.454-12.145-4.53-12.106-4.639
					c0.04-0.108,5.522,1.792,12.249,4.246C84.313,311.117,89.733,313.194,89.694,313.302z"/>
			</g>
		</g>
		<g>
			<g>
				<path style="fill:#FFFFFF;" d="M95.611,313.014c-0.04,0.108-6.672-2.212-14.812-5.181c-8.143-2.971-14.71-5.466-14.67-5.574
					c0.04-0.108,6.671,2.211,14.814,5.182C89.082,310.409,95.65,312.905,95.611,313.014z"/>
			</g>
		</g>
	</g>
	<g>
		<g>
			<g>
				<g>
					<g>
						<g>
							<g>
								<path style="fill:#F5F5F5;" d="M351.795,421.172c0,0.616-0.212,19.352-0.212,19.352h-5.687v3.697h5.687v22.798h106.308
									v-20.744h-7.875v-4.518h7.875v-6.778h3.5v-3.081h-4.156l0.212-10.726H351.795z"/>
							</g>
						</g>
					</g>
				</g>
			</g>
			<g>
				<g>
					<g>
						<g>
							<g>
								<polygon style="fill:#E0E0E0;" points="429.872,421.271 429.661,466.639 457.891,466.639 457.891,445.896 450.016,445.896 
									450.016,441.757 457.891,441.897 457.891,435.119 461.459,435.124 461.391,431.621 457.235,431.519 457.447,421.172 
																	"/>
							</g>
						</g>
					</g>
				</g>
			</g>
			<g>
				<g>
					<g>
						<g>
							<g>
								<g>
									<path style="fill:#E0E0E0;" d="M431.672,443.732c0,0.208-19.237,0.377-42.961,0.377c-23.732,0-42.965-0.169-42.965-0.377
										s19.233-0.378,42.965-0.378C412.436,443.355,431.672,443.524,431.672,443.732z"/>
								</g>
							</g>
						</g>
					</g>
				</g>
			</g>
			<g>
				<g>
					<g>
						<g>
							<g>
								<g>
									<path style="fill:#E0E0E0;" d="M431.672,440.272c0,0.209-19.237,0.378-42.961,0.378c-23.732,0-42.965-0.169-42.965-0.378
										c0-0.208,19.233-0.377,42.965-0.377C412.436,439.895,431.672,440.064,431.672,440.272z"/>
								</g>
							</g>
						</g>
					</g>
				</g>
			</g>
			<g>
				<g>
					<g>
						<g>
							<g>
								<g>
									<path style="fill:#E0E0E0;" d="M437.19,430.96c0,0.209-19.236,0.378-42.961,0.378c-23.733,0-42.965-0.169-42.965-0.378
										c0-0.208,19.232-0.377,42.965-0.377C417.954,430.583,437.19,430.752,437.19,430.96z"/>
								</g>
							</g>
						</g>
					</g>
				</g>
			</g>
			<g>
				<g>
					<g>
						<g>
							<g>
								<g>
									<path style="fill:#E0E0E0;" d="M437.721,456.335c0,0.209-19.237,0.378-42.961,0.378c-23.732,0-42.965-0.169-42.965-0.378
										c0-0.208,19.233-0.377,42.965-0.377C418.484,455.958,437.721,456.127,437.721,456.335z"/>
								</g>
							</g>
						</g>
					</g>
				</g>
			</g>
		</g>
	</g>
	<g>
		<path style="fill:#E0E0E0;" d="M179.334,57.53l15.263,19.75c1.248,1.615,3.504,2.046,5.26,1.005l0,0
			c1.852-1.098,2.518-3.455,1.515-5.36l-11.737-22.286c-0.889-1.688-3.055-2.215-4.62-1.124l-4.985,3.475
			C178.542,54.026,178.225,56.096,179.334,57.53z"/>
		<path style="fill:#E0E0E0;" d="M213.177,86.191c0.909,3.232-0.974,6.59-4.206,7.499c-3.232,0.909-6.59-0.974-7.499-4.206
			c-0.909-3.232,0.974-6.59,4.206-7.499C208.91,81.075,212.268,82.958,213.177,86.191z"/>
	</g>
	<g>
		<path style="fill:#EBEBEB;" d="M218.032,51.617l3.19,17.456c0.261,1.427,1.545,2.436,2.993,2.352l0,0
			c1.528-0.089,2.718-1.36,2.707-2.89l-0.134-17.907c-0.01-1.356-1.206-2.396-2.55-2.218l-4.283,0.566
			C218.677,49.146,217.8,50.349,218.032,51.617z"/>
		<path style="fill:#EBEBEB;" d="M230.045,80.769c-0.481,2.338-2.767,3.843-5.105,3.362c-2.338-0.481-3.844-2.767-3.362-5.105
			c0.481-2.338,2.767-3.843,5.105-3.362C229.021,76.145,230.526,78.43,230.045,80.769z"/>
	</g>
	<g>
		<g>
			<g>
				<path style="fill:#F5F5F5;" d="M444.322,77.967c2.087,14.362-7.891,27.7-22.285,29.793
					c-14.395,2.092-27.757-7.854-29.844-22.217c-2.088-14.362,7.89-27.7,22.285-29.792
					C428.873,53.659,442.235,63.606,444.322,77.967z"/>
			</g>
			<g>
				<path style="fill:#EBEBEB;" d="M438.12,78.869c1.59,10.944-6.013,21.109-16.983,22.703c-10.969,1.594-21.152-5.986-22.742-16.93
					c-1.59-10.945,6.013-21.11,16.983-22.704C426.347,60.345,436.529,67.924,438.12,78.869z"/>
			</g>
			<g>
				<g>
					<path style="fill:#E0E0E0;" d="M438.025,78.247c-0.12,0.022-0.331-0.838-0.872-2.312c-0.547-1.465-1.466-3.564-3.176-5.755
						c-0.853-1.09-1.898-2.198-3.154-3.227c-1.263-1.016-2.725-1.968-4.386-2.711c-0.828-0.374-1.7-0.709-2.615-0.967
						c-0.913-0.263-1.861-0.481-2.841-0.604c-0.978-0.126-1.982-0.202-3.002-0.175c-1.019,0.024-2.05,0.123-3.083,0.299
						c-1.031,0.19-2.034,0.453-2.998,0.78c-0.967,0.327-1.884,0.743-2.759,1.198c-0.878,0.454-1.694,0.984-2.46,1.545
						c-0.77,0.557-1.474,1.172-2.122,1.808c-1.303,1.269-2.349,2.667-3.184,4.056c-0.824,1.398-1.424,2.798-1.85,4.116
						c-0.85,2.645-0.99,4.932-0.999,6.495c0,1.57,0.098,2.45-0.022,2.47c-0.088,0.018-0.388-0.829-0.576-2.439
						c-0.176-1.599-0.207-3.998,0.553-6.832c0.382-1.411,0.956-2.923,1.786-4.44c0.84-1.509,1.917-3.033,3.288-4.424
						c0.682-0.697,1.426-1.371,2.245-1.983c0.816-0.616,1.689-1.199,2.63-1.698c0.939-0.501,1.927-0.957,2.968-1.315
						c1.04-0.36,2.122-0.645,3.233-0.849c1.114-0.191,2.227-0.294,3.327-0.315c1.101-0.022,2.185,0.066,3.239,0.213
						c1.055,0.144,2.075,0.391,3.053,0.689c0.98,0.293,1.911,0.669,2.791,1.089c1.765,0.835,3.302,1.894,4.611,3.022
						c1.3,1.139,2.361,2.36,3.205,3.554c1.69,2.399,2.487,4.662,2.873,6.224C438.104,77.334,438.114,78.232,438.025,78.247z"/>
				</g>
			</g>
		</g>
		<g>
			<g>
				<g>
					<path style="fill:#E0E0E0;" d="M422.226,93.276l0.553,3.453l-3.082,0.493l-0.538-3.359c-3.081,0.303-6.162-0.183-8.069-1.237
						l1.092-4.032c1.724,0.894,4.076,1.371,6.331,1.231l-0.825-5.148c-3.555-0.283-7.559-0.812-8.265-5.221
						c-0.523-3.267,1.401-6.452,6.182-7.786l-0.548-3.422l3.083-0.494l0.538,3.361c2.341-0.185,4.69,0.07,6.557,0.878l-0.933,4.039
						c-1.715-0.642-3.402-0.909-4.973-0.849l0.839,5.241c3.549,0.253,7.493,0.792,8.189,5.138
						C428.87,88.767,426.971,91.916,422.226,93.276z M416.963,80.145l-0.702-4.377c-1.574,0.631-2.078,1.629-1.915,2.646
						C414.519,79.493,415.537,79.932,416.963,80.145z M423.454,86.726c-0.173-1.079-1.16-1.521-2.56-1.772l0.681,4.254
						C423.062,88.622,423.612,87.712,423.454,86.726z"/>
				</g>
			</g>
		</g>
	</g>
	<g>
		<g>
			<g>
				<path style="fill:#F5F5F5;" d="M376.998,230.224c1.317,9.065-4.981,17.484-14.066,18.805c-9.086,1.32-17.52-4.958-18.837-14.023
					c-1.318-9.065,4.98-17.484,14.066-18.804C367.247,214.881,375.68,221.159,376.998,230.224z"/>
			</g>
			<g>
				<path style="fill:#EBEBEB;" d="M373.083,230.793c1.004,6.908-3.795,13.324-10.72,14.33c-6.923,1.006-13.351-3.778-14.355-10.686
					c-1.004-6.908,3.796-13.324,10.719-14.33C365.652,219.101,372.079,223.885,373.083,230.793z"/>
			</g>
			<g>
				<g>
					<path style="fill:#E0E0E0;" d="M373.023,230.4c-0.076,0.014-0.209-0.529-0.551-1.46c-0.345-0.924-0.925-2.25-2.005-3.632
						c-0.539-0.688-1.198-1.387-1.991-2.037c-0.797-0.642-1.72-1.242-2.768-1.711c-0.523-0.236-1.073-0.447-1.651-0.61
						c-0.576-0.166-1.175-0.303-1.793-0.381c-0.617-0.08-1.251-0.127-1.895-0.111c-0.643,0.015-1.294,0.077-1.946,0.188
						c-0.651,0.12-1.284,0.286-1.892,0.493c-0.61,0.206-1.189,0.469-1.742,0.756c-0.554,0.286-1.069,0.621-1.553,0.975
						c-0.486,0.352-0.93,0.74-1.34,1.141c-0.823,0.801-1.482,1.683-2.009,2.56c-0.52,0.882-0.899,1.766-1.168,2.598
						c-0.536,1.669-0.625,3.113-0.63,4.1c0,0.991,0.062,1.547-0.014,1.559c-0.056,0.011-0.245-0.523-0.363-1.539
						c-0.111-1.009-0.131-2.524,0.349-4.312c0.241-0.891,0.603-1.845,1.127-2.802c0.53-0.952,1.21-1.914,2.075-2.792
						c0.43-0.44,0.9-0.865,1.417-1.252c0.515-0.389,1.066-0.757,1.66-1.072c0.593-0.316,1.216-0.604,1.873-0.83
						c0.656-0.227,1.339-0.407,2.04-0.536c0.703-0.12,1.406-0.186,2.1-0.199c0.695-0.014,1.379,0.042,2.044,0.134
						c0.666,0.091,1.31,0.247,1.927,0.435c0.619,0.185,1.207,0.423,1.762,0.687c1.114,0.527,2.084,1.195,2.91,1.907
						c0.82,0.719,1.49,1.49,2.023,2.243c1.066,1.514,1.57,2.943,1.813,3.929C373.073,229.824,373.079,230.391,373.023,230.4z"/>
				</g>
			</g>
		</g>
		<g>
			<g>
				<g>
					<path style="fill:#E0E0E0;" d="M363.051,239.886l0.349,2.179l-1.945,0.311l-0.339-2.12c-1.945,0.191-3.89-0.115-5.093-0.781
						l0.689-2.545c1.088,0.564,2.573,0.865,3.996,0.777l-0.521-3.249c-2.244-0.179-4.771-0.513-5.216-3.295
						c-0.33-2.062,0.884-4.072,3.902-4.914l-0.346-2.16l1.946-0.312l0.34,2.121c1.478-0.117,2.96,0.045,4.139,0.554l-0.589,2.549
						c-1.083-0.405-2.147-0.574-3.139-0.536l0.53,3.308c2.24,0.16,4.729,0.5,5.168,3.243
						C367.245,237.04,366.046,239.028,363.051,239.886z M359.729,231.598l-0.443-2.762c-0.993,0.398-1.311,1.028-1.209,1.67
						C358.186,231.187,358.829,231.464,359.729,231.598z M363.826,235.752c-0.109-0.681-0.733-0.96-1.616-1.119l0.43,2.685
						C363.579,236.949,363.926,236.374,363.826,235.752z"/>
				</g>
			</g>
		</g>
	</g>
	<g>
		<g>
			<g>
				<path style="fill:#F5F5F5;" d="M141.131,225.447c1.917,13.197-7.251,25.452-20.477,27.375
					c-13.227,1.922-25.504-7.217-27.422-20.414c-1.918-13.196,7.25-25.452,20.477-27.374
					C126.935,203.112,139.213,212.251,141.131,225.447z"/>
			</g>
			<g>
				<path style="fill:#EBEBEB;" d="M135.432,226.276c1.461,10.056-5.525,19.396-15.605,20.861
					c-10.079,1.465-19.435-5.5-20.897-15.556c-1.461-10.057,5.525-19.397,15.605-20.861
					C124.614,209.255,133.97,216.219,135.432,226.276z"/>
			</g>
			<g>
				<g>
					<path style="fill:#E0E0E0;" d="M135.345,225.704c-0.11,0.02-0.304-0.77-0.801-2.125c-0.503-1.346-1.347-3.275-2.918-5.288
						c-0.784-1.002-1.744-2.02-2.898-2.965c-1.161-0.934-2.503-1.809-4.03-2.491c-0.761-0.344-1.562-0.651-2.403-0.888
						c-0.839-0.242-1.71-0.442-2.611-0.555c-0.898-0.116-1.821-0.185-2.758-0.161c-0.936,0.022-1.884,0.113-2.833,0.274
						c-0.947,0.175-1.869,0.416-2.755,0.717c-0.888,0.3-1.731,0.682-2.535,1.1c-0.807,0.417-1.556,0.904-2.261,1.42
						c-0.708,0.512-1.354,1.077-1.95,1.661c-1.198,1.166-2.158,2.45-2.925,3.727c-0.758,1.285-1.309,2.571-1.7,3.782
						c-0.781,2.43-0.909,4.532-0.918,5.968c0.001,1.443,0.09,2.251-0.02,2.27c-0.081,0.016-0.356-0.762-0.529-2.241
						c-0.162-1.469-0.19-3.674,0.508-6.277c0.351-1.297,0.879-2.685,1.641-4.08c0.772-1.386,1.762-2.786,3.021-4.065
						c0.627-0.641,1.31-1.259,2.063-1.822c0.75-0.566,1.552-1.101,2.416-1.56c0.863-0.46,1.771-0.879,2.727-1.208
						c0.955-0.33,1.95-0.593,2.97-0.781c1.023-0.175,2.046-0.27,3.057-0.289c1.011-0.02,2.008,0.061,2.976,0.196
						c0.97,0.133,1.907,0.359,2.805,0.633c0.901,0.269,1.756,0.615,2.565,1c1.622,0.767,3.034,1.74,4.236,2.776
						c1.194,1.046,2.17,2.169,2.945,3.265c1.553,2.204,2.285,4.284,2.64,5.719C135.417,224.866,135.426,225.691,135.345,225.704z"/>
				</g>
			</g>
		</g>
		<g>
			<g>
				<g>
					<path style="fill:#E0E0E0;" d="M120.828,239.514l0.508,3.172l-2.832,0.453l-0.494-3.087c-2.831,0.278-5.662-0.168-7.415-1.137
						l1.004-3.705c1.584,0.822,3.745,1.259,5.817,1.131l-0.758-4.73c-3.266-0.26-6.946-0.746-7.594-4.797
						c-0.48-3.002,1.287-5.928,5.68-7.154l-0.503-3.144l2.832-0.454l0.494,3.088c2.151-0.17,4.309,0.065,6.025,0.807l-0.858,3.711
						c-1.576-0.59-3.126-0.836-4.57-0.78l0.771,4.816c3.261,0.232,6.885,0.728,7.524,4.721
						C126.933,235.371,125.188,238.264,120.828,239.514z M115.992,227.449l-0.645-4.021c-1.446,0.58-1.909,1.497-1.76,2.432
						C113.746,226.85,114.682,227.253,115.992,227.449z M121.956,233.495c-0.159-0.992-1.066-1.398-2.353-1.629l0.626,3.909
						C121.596,235.237,122.101,234.401,121.956,233.495z"/>
				</g>
			</g>
		</g>
	</g>
	<g>
		<g>
			<g>
				<path style="fill:#F5F5F5;" d="M97.14,402.677c1.347,9.27-5.093,17.879-14.384,19.229c-9.291,1.35-17.915-5.07-19.262-14.34
					c-1.347-9.27,5.092-17.879,14.384-19.229C87.169,386.987,95.793,393.408,97.14,402.677z"/>
			</g>
			<g>
				<path style="fill:#EBEBEB;" d="M93.137,403.259c1.026,7.064-3.881,13.624-10.962,14.654c-7.08,1.029-13.652-3.864-14.679-10.927
					c-1.026-7.064,3.881-13.625,10.961-14.654C85.538,391.303,92.11,396.195,93.137,403.259z"/>
			</g>
			<g>
				<g>
					<path style="fill:#E0E0E0;" d="M93.076,402.858c-0.077,0.014-0.214-0.541-0.563-1.492c-0.353-0.945-0.946-2.301-2.05-3.714
						c-0.551-0.704-1.225-1.419-2.036-2.083c-0.815-0.656-1.759-1.27-2.831-1.75c-0.535-0.242-1.097-0.457-1.688-0.624
						c-0.589-0.17-1.201-0.31-1.834-0.39c-0.631-0.082-1.28-0.13-1.938-0.113c-0.658,0.016-1.323,0.079-1.99,0.193
						c-0.665,0.123-1.313,0.292-1.935,0.504c-0.624,0.211-1.216,0.479-1.781,0.773c-0.567,0.293-1.093,0.635-1.588,0.997
						c-0.497,0.36-0.951,0.757-1.37,1.167c-0.841,0.819-1.516,1.721-2.055,2.618c-0.532,0.902-0.919,1.806-1.194,2.657
						c-0.549,1.707-0.639,3.183-0.645,4.192c0,1.014,0.063,1.582-0.014,1.594c-0.057,0.011-0.25-0.535-0.371-1.574
						c-0.114-1.032-0.134-2.58,0.357-4.41c0.246-0.911,0.617-1.886,1.153-2.866c0.542-0.974,1.237-1.957,2.122-2.855
						c0.44-0.45,0.92-0.885,1.449-1.28c0.527-0.398,1.09-0.774,1.697-1.096c0.606-0.324,1.244-0.617,1.916-0.849
						c0.671-0.232,1.37-0.417,2.087-0.548c0.719-0.123,1.437-0.19,2.147-0.203c0.71-0.014,1.41,0.043,2.09,0.138
						c0.681,0.093,1.339,0.252,1.97,0.445c0.633,0.189,1.234,0.432,1.802,0.703c1.139,0.539,2.131,1.222,2.976,1.95
						c0.839,0.735,1.524,1.523,2.069,2.294c1.091,1.548,1.605,3.009,1.854,4.017C93.127,402.268,93.133,402.848,93.076,402.858z"/>
				</g>
			</g>
		</g>
		<g>
			<g>
				<g>
					<path style="fill:#E0E0E0;" d="M82.879,412.558l0.357,2.228l-1.99,0.318l-0.347-2.168c-1.989,0.196-3.977-0.118-5.208-0.798
						l0.705-2.603c1.113,0.577,2.631,0.885,4.086,0.795l-0.532-3.323c-2.294-0.183-4.879-0.524-5.334-3.37
						c-0.338-2.109,0.904-4.164,3.99-5.025l-0.354-2.209l1.99-0.319l0.347,2.169c1.511-0.12,3.027,0.046,4.232,0.567l-0.603,2.607
						c-1.107-0.414-2.196-0.587-3.21-0.548l0.542,3.383c2.291,0.163,4.836,0.511,5.285,3.316
						C87.167,409.647,85.941,411.68,82.879,412.558z M79.482,404.083l-0.453-2.825c-1.016,0.407-1.341,1.052-1.236,1.708
						C77.904,403.662,78.562,403.945,79.482,404.083z M83.671,408.33c-0.112-0.697-0.749-0.982-1.652-1.144l0.44,2.746
						C83.418,409.554,83.773,408.967,83.671,408.33z"/>
				</g>
			</g>
		</g>
	</g>
	<g>
		<rect x="41.723" y="198.951" style="fill:#F5F5F5;" width="12.157" height="36.867"/>
		<polygon style="fill:#F5F5F5;" points="33.59,231.937 48.212,248.603 62.013,232.439 		"/>
	</g>
	<g>
		<rect x="434.017" y="161.86" style="fill:#F5F5F5;" width="16.132" height="48.92"/>
		<polygon style="fill:#F5F5F5;" points="423.225,205.63 442.628,227.745 460.942,206.296 		"/>
	</g>
	<g>
		<rect x="458.473" y="306.311" style="fill:#F5F5F5;" width="7.001" height="21.23"/>
		<polygon style="fill:#F5F5F5;" points="453.79,325.306 462.21,334.904 470.157,325.595 		"/>
	</g>
	<g>
		<rect x="179.903" y="305.931" style="fill:#F5F5F5;" width="7.001" height="21.23"/>
		<polygon style="fill:#F5F5F5;" points="175.219,324.926 183.639,334.523 191.587,325.215 		"/>
	</g>
</g>
<g id="Background_Simple" style="display:none;">
	<path style="display:inline;fill:#F5F5F5;" d="M353.961,47.345l-0.577,1.078c-4.861,9.087-4.511,20.11,1.232,28.553
		c0.738,1.085,1.555,2.118,2.447,3.085c6.424,6.965,16.56,10.337,25.985,8.645c5.543-0.995,11.053-3.616,16.557-2.539
		c7.164,1.402,11.507,8.408,15.001,14.759c3.494,6.351,7.858,13.35,15.029,14.721c4.49,0.859,9.176-0.796,13.003-3.343
		c10.132-6.744,15.174-19.566,14.34-31.586c-0.834-12.02-6.874-23.181-14.921-32.117c-11.272-12.518-27.136-21.38-44.094-22.316
		C381.005,25.348,363.232,33.086,353.961,47.345z"/>
	<path style="display:inline;fill:#F5F5F5;" d="M26.407,269.306l0.148,0.985c1.248,8.305,6.844,15.339,14.709,18.061
		c1.011,0.35,2.047,0.627,3.102,0.825c7.59,1.424,15.856-1.308,21.192-7.003c3.138-3.35,5.463-7.745,9.585-9.721
		c5.365-2.572,11.614-0.108,16.99,2.341c5.376,2.449,11.636,4.899,16.99,2.303c3.353-1.625,5.609-4.988,6.87-8.516
		c3.338-9.341,0.39-20.176-6.008-27.626s-15.78-11.803-25.39-13.725c-13.462-2.693-28.145-0.76-39.684,6.885
		S25.523,255.473,26.407,269.306z"/>
	<path style="display:inline;fill:#F5F5F5;" d="M450.305,416.208l-0.182-0.666c-1.537-5.616-5.964-10.002-11.601-11.233
		c-0.724-0.158-1.461-0.264-2.203-0.314c-5.342-0.361-10.809,2.195-14.018,6.551c-1.887,2.562-3.128,5.778-5.805,7.475
		c-3.483,2.208-7.987,1.022-11.888-0.225c-3.901-1.247-8.411-2.422-11.885-0.199c-2.175,1.393-3.454,3.892-4.034,6.424
		c-1.536,6.703,1.379,13.922,6.392,18.528c5.013,4.606,11.827,6.837,18.6,7.376c9.488,0.755,19.438-1.774,26.758-7.98
		C447.76,435.74,452.043,425.66,450.305,416.208z"/>
	<circle style="display:inline;fill:#F5F5F5;" cx="79.534" cy="398.717" r="16.063"/>
	<circle style="display:inline;fill:#F5F5F5;" cx="445.671" cy="201.519" r="16.062"/>
	<circle style="display:inline;fill:#F5F5F5;" cx="218.261" cy="64.047" r="16.063"/>
</g>
<g id="Table">
	<g>
		<path style="fill:#263238;" d="M460.068,467.581c0,0.288-98.429,0.521-219.818,0.521c-121.432,0-219.84-0.233-219.84-0.521
			c0-0.288,98.408-0.521,219.84-0.521C361.64,467.06,460.068,467.293,460.068,467.581z"/>
	</g>
</g>
<g id="Coin">
	<g>
		<g>
			<g>
				<g>
					<path style="fill:#FF725E;" d="M440.6,371.807c-1.396,12.375-12.582,21.273-24.986,19.876
						c-12.404-1.399-21.328-12.564-19.932-24.94c1.395-12.375,12.581-21.273,24.985-19.875
						C433.07,348.266,441.995,359.432,440.6,371.807z"/>
				</g>
			</g>
		</g>
		<g style="opacity:0.3;">
			<g>
				<g>
					<path d="M418.925,379.702l-0.293,2.986l-2.666-0.262l0.285-2.906c-2.623-0.419-5.075-1.494-6.428-2.784l1.785-3.109
						c1.237,1.118,3.085,2.025,4.987,2.401l0.436-4.453c-2.888-1.009-6.097-2.32-5.723-6.133c0.278-2.826,2.568-5.05,6.827-5.116
						l0.29-2.96l2.666,0.262l-0.285,2.906c1.984,0.356,3.877,1.08,5.252,2.157l-1.654,3.149c-1.284-0.906-2.626-1.496-3.943-1.788
						l-0.445,4.533c2.891,0.983,6.047,2.289,5.678,6.048C425.422,377.405,423.161,379.606,418.925,379.702z M417.416,367.656
						l0.371-3.785c-1.444,0.181-2.079,0.9-2.166,1.78C415.53,366.583,416.28,367.169,417.416,367.656z M421.371,374.532
						c0.091-0.934-0.632-1.515-1.739-2.029l-0.361,3.679C420.633,376.02,421.287,375.385,421.371,374.532z"/>
				</g>
			</g>
		</g>
		<g style="opacity:0.3;">
			<g>
				<g>
					<g>
						<g>
							<path d="M435.315,369.268c-0.104-0.008-0.093-0.767-0.22-2.109c-0.135-1.335-0.44-3.278-1.383-5.468
								c-0.471-1.091-1.097-2.238-1.915-3.366c-0.827-1.119-1.833-2.227-3.05-3.205c-0.606-0.491-1.257-0.959-1.96-1.372
								c-0.701-0.417-1.44-0.804-2.227-1.12c-0.784-0.318-1.602-0.599-2.454-0.799c-0.851-0.202-1.729-0.345-2.624-0.424
								c-0.897-0.066-1.787-0.067-2.659-0.005c-0.874,0.061-1.725,0.206-2.551,0.393c-0.828,0.185-1.62,0.448-2.379,0.747
								c-0.76,0.295-1.478,0.652-2.155,1.039c-1.358,0.769-2.53,1.702-3.526,2.673c-0.989,0.981-1.791,2.012-2.432,3.013
								c-1.282,2.01-1.895,3.878-2.243,5.174c-0.342,1.304-0.452,2.055-0.557,2.046c-0.077-0.005-0.141-0.773,0.053-2.149
								c0.202-1.366,0.698-3.364,1.947-5.55c0.624-1.089,1.43-2.217,2.449-3.296c1.026-1.069,2.252-2.1,3.693-2.956
								c0.718-0.43,1.482-0.827,2.296-1.157c0.812-0.334,1.663-0.627,2.552-0.837c0.889-0.212,1.808-0.375,2.75-0.445
								c0.942-0.072,1.902-0.073,2.868-0.001c0.966,0.084,1.913,0.241,2.83,0.463c0.919,0.221,1.799,0.531,2.642,0.882
								c0.845,0.35,1.637,0.776,2.384,1.237c0.75,0.457,1.441,0.972,2.08,1.512c1.284,1.077,2.328,2.291,3.169,3.512
								c0.831,1.229,1.446,2.473,1.887,3.648c0.88,2.359,1.049,4.411,1.029,5.792C435.579,368.527,435.392,369.275,435.315,369.268z
								"/>
						</g>
					</g>
				</g>
			</g>
		</g>
		<g>
			<g>
				<g>
					<g>
						<g>
							<path style="fill:#263238;" d="M435.292,370.882c-0.007-0.001-0.009-0.097-0.004-0.283c0.007-0.209,0.017-0.481,0.03-0.825
								c0.023-0.362,0.041-0.81-0.002-1.339c-0.028-0.529-0.034-1.14-0.159-1.817c-0.149-1.365-0.593-3.005-1.367-4.788
								c-0.787-1.775-1.997-3.679-3.756-5.383c-1.753-1.69-4.044-3.219-6.799-4.05c-2.74-0.807-5.912-1.066-9.041-0.238
								c-0.792,0.162-1.549,0.475-2.327,0.747c-0.744,0.356-1.52,0.673-2.228,1.137c-1.452,0.854-2.815,1.945-3.973,3.263
								c-1.158,1.31-2.199,2.787-2.923,4.452c-0.735,1.655-1.231,3.439-1.465,5.286c-0.183,1.853-0.098,3.704,0.25,5.482
								c0.335,1.784,1.021,3.457,1.858,4.992c0.835,1.543,1.921,2.91,3.147,4.067c0.587,0.61,1.273,1.092,1.919,1.604
								c0.699,0.439,1.367,0.913,2.103,1.247c2.866,1.505,6.016,1.958,8.868,1.781c2.872-0.197,5.445-1.178,7.531-2.435
								c2.094-1.27,3.698-2.856,4.86-4.412c1.151-1.565,1.95-3.065,2.399-4.362c0.273-0.633,0.415-1.227,0.56-1.736
								c0.16-0.506,0.242-0.946,0.3-1.304c0.064-0.338,0.115-0.606,0.154-0.811C435.262,370.974,435.284,370.881,435.292,370.882
								c0.007,0.001-0.001,0.096-0.023,0.281c-0.028,0.207-0.065,0.478-0.112,0.82c-0.044,0.362-0.113,0.808-0.261,1.321
								c-0.133,0.516-0.263,1.12-0.526,1.763c-0.429,1.319-1.213,2.848-2.362,4.449c-1.16,1.591-2.773,3.219-4.894,4.528
								c-2.112,1.297-4.731,2.315-7.664,2.532c-2.911,0.197-6.135-0.253-9.076-1.783c-0.755-0.34-1.441-0.822-2.157-1.271
								c-0.663-0.522-1.367-1.015-1.97-1.638c-1.258-1.182-2.373-2.58-3.232-4.159c-0.861-1.571-1.564-3.286-1.91-5.113
								c-0.358-1.821-0.446-3.719-0.258-5.617c0.239-1.892,0.748-3.721,1.503-5.416c0.743-1.705,1.812-3.218,3.001-4.558
								c1.189-1.348,2.586-2.462,4.076-3.334c0.726-0.472,1.522-0.796,2.285-1.158c0.798-0.278,1.574-0.594,2.386-0.758
								c3.207-0.837,6.45-0.558,9.244,0.282c2.81,0.865,5.137,2.44,6.907,4.175c1.776,1.748,2.987,3.695,3.763,5.504
								c0.764,1.816,1.188,3.482,1.313,4.864c0.113,0.686,0.106,1.303,0.121,1.836c0.03,0.533-0.002,0.983-0.039,1.346
								c-0.031,0.344-0.055,0.616-0.073,0.825C435.313,370.789,435.299,370.883,435.292,370.882z"/>
						</g>
					</g>
				</g>
			</g>
		</g>
		<g>
			<g>
				<g>
					<g>
						<path style="fill:#FFFFFF;" d="M410.019,389.188c-0.011,0.028-0.248-0.04-0.671-0.187c-0.425-0.141-1.022-0.397-1.738-0.758
							c-1.432-0.717-3.307-1.956-5.032-3.706c-1.721-1.757-2.926-3.653-3.618-5.098c-0.348-0.722-0.594-1.323-0.728-1.751
							c-0.14-0.425-0.203-0.664-0.175-0.674c0.071-0.026,0.42,0.896,1.176,2.284c0.751,1.388,1.97,3.214,3.655,4.935
							c1.69,1.714,3.495,2.965,4.869,3.741C409.13,388.753,410.046,389.118,410.019,389.188z"/>
					</g>
				</g>
			</g>
		</g>
		<g>
			<g>
				<g>
					<g>
						<path style="fill:#FFFFFF;" d="M413.6,390.529c-0.036,0.114-0.488,0.076-1.01-0.087c-0.522-0.162-0.917-0.387-0.882-0.501
							c0.035-0.114,0.488-0.076,1.01,0.087C413.241,390.19,413.636,390.415,413.6,390.529z"/>
					</g>
				</g>
			</g>
		</g>
	</g>
	<g>
		<rect x="385.375" y="374.898" style="fill:#455A64;" width="7.001" height="21.229"/>
		<polygon style="fill:#455A64;" points="380.692,393.893 389.112,403.491 397.059,394.182 		"/>
	</g>
</g>
<g id="Buy_Icon">
	<g>
		<g>
			<g>
				<g>
					<g>
						<path style="fill:#263238;" d="M392.043,257.796c2.639,0,5.279,0,7.918,0c-0.514-0.387-1.028-0.774-1.542-1.161
							c1.168,3.802,2.337,7.605,3.505,11.407c1.854,6.033,3.708,12.065,5.561,18.098c0.428,1.392,0.855,2.784,1.283,4.176
							c0.205,0.666,0.826,1.163,1.542,1.161c7.559-0.021,15.117-0.042,22.675-0.062c1.082-0.003,2.165-0.006,3.247-0.009
							c2.057-0.006,2.061-3.168,0-3.162c-7.559,0.021-15.117,0.042-22.676,0.063c-1.082,0.003-2.165,0.006-3.247,0.009
							c0.514,0.387,1.028,0.774,1.542,1.161c-1.169-3.803-2.337-7.605-3.505-11.407c-1.854-6.033-3.707-12.065-5.561-18.098
							c-0.428-1.392-0.855-2.784-1.283-4.175c-0.205-0.668-0.826-1.161-1.542-1.161c-2.639,0-5.279,0-7.918,0
							C389.985,254.634,389.982,257.796,392.043,257.796L392.043,257.796z"/>
					</g>
				</g>
			</g>
			<g>
				<g>
					<g>
						<path style="fill:#263238;" d="M441.302,261.82c-1.493,6.616-2.986,13.231-4.479,19.847c-0.214,0.951-0.429,1.902-0.644,2.853
							c0.385-0.29,0.771-0.581,1.156-0.871c-3.236-0.031-6.472-0.063-9.708-0.094c-5.189-0.05-10.378-0.101-15.567-0.151
							c-1.187-0.012-2.373-0.023-3.56-0.034c0.385,0.29,0.771,0.58,1.156,0.87c-2.082-6.549-4.163-13.098-6.245-19.648
							c-0.294-0.924-0.587-1.848-0.881-2.772c-0.385,0.5-0.771,1.001-1.156,1.501c4.647,0,9.295,0,13.942,0
							c7.348,0,14.695,0,22.043,0c1.7,0,3.399,0,5.099,0c1.543,0,1.546-2.372,0-2.372c-4.647,0-9.295,0-13.942,0
							c-7.348,0-14.695,0-22.042,0c-1.7,0-3.399,0-5.099,0c-0.756,0-1.392,0.761-1.156,1.501c2.082,6.549,4.163,13.099,6.245,19.648
							c0.294,0.924,0.587,1.848,0.881,2.772c0.16,0.504,0.615,0.865,1.156,0.871c3.236,0.031,6.472,0.063,9.708,0.094
							c5.189,0.05,10.378,0.101,15.568,0.151c1.186,0.012,2.373,0.023,3.56,0.035c0.504,0.005,1.043-0.37,1.156-0.871
							c1.493-6.615,2.986-13.231,4.479-19.847c0.214-0.951,0.429-1.902,0.644-2.853C443.951,260.964,441.639,260.329,441.302,261.82
							z"/>
					</g>
				</g>
			</g>
			<g>
				<g>
					<g>
						<path style="fill:#263238;" d="M409.547,262.834c1.262,7.238,2.866,14.411,4.128,21.65c0.262,1.501,2.573,0.865,2.313-0.631
							c-1.262-7.238-2.866-14.412-4.128-21.65C411.598,260.702,409.286,261.339,409.547,262.834L409.547,262.834z"/>
					</g>
				</g>
			</g>
			<g>
				<g>
					<g>
						<path style="fill:#263238;" d="M422.212,262.519c0.121,7.421,0.26,14.842,0.381,22.263c0.025,1.525,2.423,1.529,2.398,0
							c-0.121-7.421-0.26-14.842-0.381-22.263C424.585,260.994,422.187,260.989,422.212,262.519L422.212,262.519z"/>
					</g>
				</g>
			</g>
			<g>
				<g>
					<g>
						<path style="fill:#263238;" d="M433.909,285.051c1.015-6.591,2.03-13.182,3.045-19.773c0.145-0.943,0.29-1.885,0.436-2.828
							c0.098-0.638-0.163-1.268-0.837-1.459c-0.566-0.16-1.378,0.196-1.475,0.828c-1.015,6.591-2.03,13.182-3.045,19.773
							c-0.145,0.943-0.291,1.886-0.436,2.828c-0.098,0.637,0.163,1.268,0.838,1.459C433,286.04,433.811,285.684,433.909,285.051
							L433.909,285.051z"/>
					</g>
				</g>
			</g>
			<g>
				<g>
					<g>
						<path style="fill:#263238;" d="M403.987,270.264c12.092,0,24.184,0,36.276,0c1.543,0,1.546-2.372,0-2.372
							c-12.092,0-24.184,0-36.276,0C402.444,267.892,402.442,270.264,403.987,270.264L403.987,270.264z"/>
					</g>
				</g>
			</g>
			<g>
				<g>
					<g>
						<path style="fill:#263238;" d="M407.388,278.591c10.472,0,20.945,0,31.417,0c1.543,0,1.546-2.372,0-2.372
							c-10.472,0-20.945,0-31.417,0C405.845,276.219,405.843,278.591,407.388,278.591L407.388,278.591z"/>
					</g>
				</g>
			</g>
			<g>
				<g>
					<ellipse style="fill:#263238;" cx="436.233" cy="297.663" rx="4.267" ry="4.22"/>
				</g>
			</g>
			<g>
				<g>
					<ellipse style="fill:#263238;" cx="412.767" cy="297.663" rx="4.267" ry="4.22"/>
				</g>
			</g>
		</g>
	</g>
</g>
<g id="Speech_Bubble">
	<g>
		<g>
			<g>
				<path style="fill:#FFFFFF;" d="M402.902,190.093c17.514-18.647,16.596-47.961-2.05-65.475
					c-18.647-17.514-47.961-16.596-65.475,2.05c-15.727,16.744-16.582,42.085-3.092,59.765l-0.526,10.159l9.225-1.428
					C359.635,209.476,386.465,207.593,402.902,190.093z"/>
				<g>
					<path style="fill:#263238;" d="M402.902,190.093c0,0-1.151,1.229-3.464,3.394c-2.417,2.031-6.127,4.945-11.579,7.37
						c-1.376,0.564-2.797,1.242-4.389,1.679c-0.785,0.248-1.589,0.502-2.411,0.762c-0.842,0.185-1.702,0.374-2.581,0.566
						c-0.44,0.096-0.884,0.193-1.332,0.291c-0.449,0.094-0.914,0.126-1.377,0.192c-0.929,0.117-1.877,0.236-2.842,0.358
						c-0.97,0.06-1.962,0.077-2.969,0.118c-0.504,0.011-1.012,0.051-1.525,0.039c-0.512-0.028-1.029-0.056-1.549-0.084
						c-0.521-0.028-1.046-0.057-1.575-0.086c-0.53-0.02-1.063-0.056-1.594-0.151c-1.066-0.155-2.148-0.312-3.246-0.472
						c-2.162-0.495-4.407-0.958-6.608-1.79c-4.431-1.537-8.88-3.822-13.01-6.943l0.166,0.043c-2.874,0.448-6.012,0.937-9.223,1.438
						l-0.277,0.043l0.014-0.28c0.162-3.176,0.337-6.631,0.517-10.16l0.048,0.156c-5.643-7.445-9.352-17.162-9.486-27.538
						c-0.082-5.17,0.704-10.466,2.418-15.554c1.708-5.087,4.349-9.956,7.815-14.26c3.211-4.065,7.147-7.446,11.387-10.148
						c4.251-2.684,8.852-4.743,13.61-5.846c4.74-1.149,9.556-1.572,14.245-1.324c4.685,0.354,9.195,1.367,13.415,2.88
						c2.054,0.894,4.132,1.676,6.003,2.814c1.961,0.974,3.686,2.275,5.44,3.47c3.332,2.615,6.387,5.434,8.777,8.628
						c2.545,3.077,4.351,6.509,5.962,9.828c0.331,0.863,0.66,1.717,0.984,2.562c0.317,0.848,0.679,1.671,0.879,2.536
						c0.447,1.714,1.012,3.361,1.23,5.045c1.247,6.662,0.92,12.891-0.182,18.135c-0.28,1.314-0.52,2.59-0.948,3.767
						c-0.4,1.182-0.695,2.351-1.14,3.411c-0.455,1.056-0.89,2.067-1.305,3.031c-0.191,0.49-0.427,0.943-0.68,1.374
						c-0.242,0.436-0.477,0.861-0.707,1.274c-0.472,0.818-0.861,1.624-1.328,2.319c-0.478,0.687-0.925,1.33-1.341,1.927
						c-0.417,0.594-0.802,1.144-1.154,1.647c-0.4,0.464-0.763,0.885-1.088,1.263c-0.644,0.742-1.138,1.31-1.482,1.707
						C403.084,189.906,402.902,190.093,402.902,190.093s0.156-0.211,0.478-0.605c0.335-0.404,0.814-0.982,1.441-1.738
						c0.319-0.381,0.674-0.807,1.066-1.275c0.345-0.506,0.723-1.058,1.131-1.656c0.408-0.6,0.847-1.244,1.316-1.934
						c0.458-0.697,0.839-1.504,1.302-2.322c0.225-0.413,0.456-0.838,0.693-1.274c0.248-0.431,0.48-0.884,0.667-1.372
						c0.406-0.962,0.833-1.97,1.278-3.024c0.436-1.057,0.722-2.222,1.113-3.399c0.42-1.172,0.651-2.442,0.922-3.749
						c1.068-5.217,1.366-11.403,0.105-18.008c-0.221-1.67-0.789-3.302-1.237-5c-0.2-0.858-0.562-1.673-0.879-2.512
						c-0.324-0.837-0.652-1.683-0.983-2.537c-1.608-3.285-3.405-6.681-5.934-9.724c-2.375-3.159-5.408-5.944-8.712-8.528
						c-1.739-1.179-3.448-2.465-5.392-3.425c-1.854-1.124-3.912-1.894-5.946-2.776c-4.179-1.491-8.643-2.487-13.278-2.833
						c-4.64-0.241-9.403,0.183-14.09,1.322c-4.705,1.094-9.253,3.133-13.456,5.789c-4.191,2.673-8.083,6.017-11.259,10.038
						c-3.427,4.257-6.039,9.069-7.73,14.099c-1.697,5.03-2.477,10.267-2.4,15.381c0.125,10.264,3.782,19.88,9.354,27.258l0.053,0.07
						l-0.004,0.086c-0.186,3.529-0.368,6.983-0.535,10.159l-0.263-0.237c3.213-0.494,6.352-0.977,9.226-1.419l0.092-0.014
						l0.075,0.057c4.085,3.101,8.487,5.377,12.875,6.913c2.179,0.832,4.404,1.297,6.547,1.795c1.089,0.162,2.162,0.322,3.219,0.479
						c0.526,0.097,1.055,0.133,1.581,0.155c0.525,0.03,1.046,0.061,1.563,0.091c0.517,0.03,1.029,0.06,1.537,0.089
						c0.508,0.014,1.013-0.024,1.513-0.033c1-0.037,1.985-0.05,2.948-0.105c0.959-0.116,1.9-0.231,2.824-0.343
						c0.46-0.064,0.922-0.093,1.369-0.185c0.446-0.095,0.887-0.19,1.324-0.283c0.874-0.187,1.73-0.37,2.567-0.55
						c0.818-0.254,1.618-0.502,2.4-0.745c1.585-0.425,3.001-1.091,4.374-1.644c5.438-2.378,9.156-5.247,11.594-7.24
						c1.192-1.036,2.033-1.911,2.638-2.458C402.584,190.37,402.902,190.093,402.902,190.093z"/>
				</g>
			</g>
		</g>
		<g>
			<g>
				<path style="fill:#FF725E;" d="M343.58,142.798c3.806,5.775,7.611,11.55,11.417,17.324c0.54,0.819,1.079,1.638,1.619,2.457
					c0.715,1.086,2.238,1.667,3.421,0.897c4.865-3.169,9.73-6.338,14.595-9.507c-1.14-0.299-2.28-0.598-3.42-0.897
					c3.537,5.856,7.073,11.712,10.61,17.568c0.499,0.827,0.999,1.654,1.499,2.481c1.661,2.751,5.987,0.241,4.317-2.524
					c-3.537-5.856-7.073-11.712-10.61-17.568c-0.5-0.827-0.999-1.654-1.499-2.481c-0.673-1.114-2.273-1.644-3.42-0.897
					c-4.865,3.169-9.73,6.338-14.595,9.508c1.14,0.299,2.28,0.598,3.42,0.897c-3.805-5.775-7.611-11.549-11.417-17.324
					c-0.54-0.819-1.079-1.638-1.619-2.457C346.134,137.599,341.803,140.1,343.58,142.798L343.58,142.798z"/>
			</g>
			<polygon style="fill:#FF725E;" points="374.064,173.547 392.736,161.775 392.736,180.661 			"/>
		</g>
	</g>
</g>
<g id="House">
	<g>
		<g>
			<g>
				<g>
					<g>
						<polygon style="fill:#FF725E;" points="314.158,43.761 294.043,43.9 294.044,44.037 291.271,94.738 334.233,94.44 
							334.018,63.434 						"/>
					</g>
				</g>
			</g>
			<g style="opacity:0.3;">
				<g>
					<g>
						<polygon points="314.158,43.761 294.043,43.9 294.044,44.037 291.271,94.738 334.233,94.44 334.018,63.434 						"/>
					</g>
				</g>
			</g>
			<g>
				<g>
					<g>
						<polygon style="fill:#FF725E;" points="294.043,43.9 274.059,62.861 274.281,94.856 314.51,94.577 314.293,63.262 						"/>
					</g>
				</g>
			</g>
			<g style="opacity:0.3;">
				<g>
					<g>
						<g>
							
								<rect x="299.815" y="66.19" transform="matrix(1 -0.0069 0.0069 1 -0.4818 2.1124)" style="fill:#FFFFFF;" width="8.573" height="8.573"/>
						</g>
					</g>
				</g>
			</g>
			<g style="opacity:0.3;">
				<g>
					<g>
						<g>
							
								<rect x="278.901" y="66.335" transform="matrix(1 -0.0069 0.0069 1 -0.4825 1.9639)" style="fill:#FFFFFF;" width="8.573" height="8.573"/>
						</g>
					</g>
				</g>
			</g>
			<g>
				<g>
					<g>
						
							<rect x="278.784" y="47.418" transform="matrix(1 -0.007 0.007 1 -0.3671 1.9544)" style="fill:#FF725E;" width="4.286" height="12.717"/>
					</g>
				</g>
			</g>
			<g style="opacity:0.3;">
				<g>
					<g>
						<g>
							<rect x="287.586" y="78.98" transform="matrix(1 -0.0069 0.0069 1 -0.5952 2.0307)" width="9.968" height="15.749"/>
						</g>
					</g>
				</g>
			</g>
		</g>
		<g>
			<g>
				<path style="fill:#263238;" d="M314.158,43.761c0.003-0.003,0.038,0.025,0.103,0.083c0.075,0.07,0.168,0.155,0.284,0.263
					c0.262,0.251,0.624,0.598,1.089,1.042c0.961,0.936,2.341,2.281,4.085,3.981c3.512,3.456,8.489,8.353,14.417,14.186l0.293,0.288
					l-0.412-0.003c-5.945-0.046-12.629-0.097-19.725-0.151l-0.074-0.001l-0.054-0.052c-1.104-1.055-2.279-2.178-3.466-3.313
					c-6.053-5.797-11.773-11.275-16.771-16.062l0.233,0c-6.313,5.956-11.629,10.971-15.384,14.513
					c-1.866,1.744-3.343,3.124-4.371,4.085c-0.498,0.457-0.886,0.814-1.165,1.071c-0.125,0.111-0.224,0.199-0.304,0.27
					c-0.069,0.06-0.106,0.088-0.109,0.085c-0.003-0.003,0.027-0.039,0.09-0.105c0.075-0.076,0.168-0.171,0.285-0.29
					c0.271-0.266,0.647-0.635,1.13-1.109c1.013-0.977,2.468-2.381,4.306-4.153c3.732-3.567,9.015-8.616,15.29-14.612l0.116-0.111
					l0.117,0.112c5.006,4.778,10.735,10.247,16.798,16.034c1.187,1.135,2.361,2.258,3.465,3.314l-0.128-0.052
					c7.096,0.07,13.78,0.135,19.725,0.194l-0.119,0.285c-5.889-5.873-10.833-10.804-14.321-14.283
					c-1.717-1.728-3.074-3.096-4.02-4.047c-0.449-0.46-0.8-0.819-1.053-1.079c-0.109-0.115-0.195-0.207-0.266-0.282
					C314.183,43.798,314.154,43.764,314.158,43.761z"/>
			</g>
		</g>
		<g>
			<g>
				<path style="fill:#263238;" d="M297.554,94.694c-0.011,0-0.022-0.104-0.034-0.304c-0.009-0.238-0.02-0.528-0.034-0.88
					c-0.016-0.818-0.038-1.923-0.065-3.284c-0.027-2.849-0.063-6.759-0.105-11.245l0.184,0.183c-1.576,0.007-3.25,0.015-4.973,0.023
					c-1.711,0.004-3.374,0.008-4.94,0.012l0.183-0.184c-0.011,4.496-0.02,8.415-0.027,11.27c-0.018,1.364-0.032,2.472-0.043,3.292
					c-0.011,0.353-0.02,0.644-0.028,0.882c-0.01,0.201-0.02,0.305-0.031,0.305c-0.011,0-0.022-0.104-0.033-0.305
					c-0.009-0.238-0.02-0.529-0.034-0.882c-0.016-0.819-0.038-1.927-0.066-3.291c-0.027-2.855-0.063-6.774-0.105-11.27l-0.002-0.183
					l0.185-0.001c1.566-0.007,3.229-0.015,4.94-0.023c1.723-0.004,3.397-0.008,4.973-0.012l0.185,0l0,0.183
					c-0.011,4.486-0.02,8.396-0.027,11.246c-0.018,1.361-0.032,2.466-0.043,3.284c-0.011,0.353-0.02,0.643-0.027,0.88
					C297.576,94.59,297.565,94.694,297.554,94.694z"/>
			</g>
		</g>
	</g>
</g>
<g id="Piggy_Bank">
	<g>
		<path style="fill:#FF725E;" d="M136.024,162.869c0.263,0.438,6.467,18.786,8.457,18.878c1.99,0.092,6.847-0.733,6.847-0.733
			s0.599-24.675,0.916-26.301c0.318-1.626-0.026-4.986-0.026-4.986l-13.353,3.153L136.024,162.869z"/>
		<path style="fill:#FF725E;" d="M115.501,170.781c0.524-0.078,4.394,11.42,6.96,11.331c2.566-0.089,8.339-0.205,8.339-0.697
			c0-0.492-0.733-15.888-0.733-15.888s-13.379,1.008-13.288,1.283C116.871,167.085,115.501,170.781,115.501,170.781z"/>
		<path style="fill:#FF725E;" d="M86.513,169.336c-0.197,0.169,3.667,12.443,5.188,12.711c1.521,0.268,7.782-0.371,7.782-0.633
			c0-0.262,1.57-12.078,1.57-12.078S91.433,165.122,86.513,169.336z"/>
		<path style="fill:#FF725E;" d="M68.277,167.652c0,0,4.25,12.393,5.798,13.189c1.549,0.797,8.099,0.531,8.099,0.531l-0.354-13.72
			l-16.605-9.272L68.277,167.652z"/>
		<path style="fill:#FF725E;" d="M66.344,161.431c0.75,0.901,16.506,11.853,46.23,9.758s44.007-22.244,44.007-22.244l-114.229,1.451
			c0,0,2.623,7.394,14.172,7.394h8.49L66.344,161.431z"/>
		<g>
			<path style="fill:#263238;" d="M84.485,173.334c0.096,0.005,0.124,1.206,0.093,3.304c-0.031,2.098-0.121,5.093-0.261,8.685
				c-0.009,0.237-0.203,0.424-0.438,0.427l-0.011,0c-1.104,0.011-2.271,0.024-3.485,0.036c-0.186,0.002-0.349-0.103-0.429-0.258
				l-0.004-0.008c-0.301-0.582-0.626-1.209-0.956-1.847l0.91-0.037c-0.238,0.587-0.493,1.218-0.752,1.858
				c-0.08,0.197-0.273,0.317-0.474,0.317c-1.451,0.003-2.956,0.006-4.496,0.009c-0.279,0-0.558,0-0.816,0
				c-0.214,0-0.399-0.13-0.478-0.315c-2.542-5.937-4.777-11.299-6.345-15.19s-2.467-6.312-2.338-6.367
				c0.129-0.056,1.264,2.265,3.003,6.082c1.74,3.817,4.085,9.132,6.635,15.065l-0.478-0.315c0.258,0,0.536,0,0.816,0
				c1.54,0.003,3.045,0.006,4.496,0.009l-0.473,0.317c0.266-0.638,0.527-1.266,0.771-1.85l0.002-0.006
				c0.106-0.255,0.399-0.375,0.653-0.269c0.115,0.048,0.203,0.135,0.255,0.238c0.321,0.643,0.636,1.274,0.929,1.861l-0.433-0.266
				c1.214,0.013,2.382,0.025,3.485,0.036l-0.449,0.427c0.23-3.588,0.449-6.576,0.634-8.666
				C84.238,174.521,84.389,173.329,84.485,173.334z"/>
		</g>
		<g>
			<path style="fill:#263238;" d="M131.76,171.19c0.12,0,0.231,1.493,0.319,4.003c0.088,2.51,0.154,6.038,0.184,10.108
				c0.002,0.276-0.22,0.501-0.495,0.503h-0.001h-0.006c-1.123,0.005-2.289,0.011-3.485,0.016c-0.194,0.001-0.365-0.109-0.454-0.267
				c-0.235-0.421-0.485-0.871-0.738-1.325l-0.206-0.372l0.93-0.04c-0.259,0.574-0.514,1.139-0.765,1.696
				c-0.084,0.191-0.276,0.305-0.472,0.305c-1.866-0.014-3.647-0.027-5.312-0.039h-0.009c-0.185-0.001-0.344-0.11-0.419-0.266
				c-1.467-3.057-2.685-5.667-3.512-7.525c-0.827-1.858-1.262-2.963-1.166-3.01c0.096-0.047,0.71,0.97,1.685,2.754
				c0.975,1.784,2.311,4.336,3.85,7.357l-0.428-0.266c1.664-0.012,3.446-0.025,5.312-0.039l-0.472,0.305
				c0.249-0.557,0.501-1.123,0.758-1.699c0.117-0.262,0.425-0.38,0.687-0.263c0.107,0.048,0.19,0.128,0.243,0.223l0.207,0.372
				c0.252,0.454,0.501,0.904,0.735,1.326l-0.454-0.267c1.197,0.006,2.362,0.011,3.485,0.017l-0.503,0.503
				c0.03-4.07,0.096-7.598,0.184-10.108S131.64,171.19,131.76,171.19z"/>
		</g>
		<g>
			<path style="fill:#263238;" d="M60.525,161.176c0.2-0.254,5.053,3.671,11.906,7.027c6.825,3.413,12.856,5.008,12.769,5.323
				c-0.032,0.128-1.582-0.111-4.019-0.799c-2.432-0.691-5.746-1.864-9.213-3.592c-3.468-1.72-6.408-3.652-8.412-5.2
				C61.547,162.391,60.441,161.276,60.525,161.176z"/>
		</g>
		<g>
			<path style="fill:#263238;" d="M101.053,175.844c0-0.158,2.01-0.252,5.238-0.517c3.227-0.271,7.675-0.749,12.513-1.704
				c4.841-0.947,9.134-2.196,12.197-3.238c3.066-1.033,4.93-1.787,4.997-1.641c0.054,0.114-1.71,1.11-4.743,2.332
				c-3.027,1.229-7.349,2.61-12.25,3.568c-4.898,0.967-9.412,1.334-12.674,1.417C103.066,176.14,101.052,175.974,101.053,175.844z"
				/>
		</g>
		<g>
			<path style="fill:#263238;" d="M154.373,155.783c-0.026-0.024,0.354-0.511,1.101-1.411c0.733-0.911,1.792-2.275,3.017-4.123
				c2.411-3.684,5.479-9.496,6.761-17.33c0.669-3.892,0.898-8.252,0.515-12.88c-0.057-1.16-0.268-2.323-0.413-3.512
				c-0.234-1.174-0.403-2.383-0.733-3.574c-0.551-2.409-1.394-4.816-2.398-7.218c-4.043-9.616-11.994-18.64-22.423-24.701
				c-10.43-6.115-21.934-8.878-32.358-9.401c-10.473-0.625-19.89,1.295-27.36,3.869c-7.507,2.578-13.109,5.843-16.784,8.313
				c-0.936,0.599-1.722,1.194-2.415,1.696c-0.7,0.492-1.272,0.936-1.727,1.304c-0.921,0.723-1.417,1.09-1.44,1.063
				c-0.024-0.027,0.426-0.448,1.307-1.225c0.435-0.396,0.989-0.867,1.672-1.388c0.676-0.53,1.448-1.155,2.372-1.783
				c3.627-2.588,9.22-5.981,16.77-8.675c7.508-2.688,17.039-4.713,27.652-4.133c10.553,0.477,22.234,3.244,32.838,9.462
				c10.603,6.159,18.702,15.387,22.779,25.224c1.013,2.456,1.858,4.919,2.405,7.379c0.328,1.217,0.493,2.451,0.723,3.649
				c0.14,1.213,0.344,2.4,0.394,3.582c0.352,4.71,0.076,9.128-0.65,13.075c-1.397,7.941-4.615,13.785-7.15,17.43
				c-1.288,1.83-2.406,3.161-3.194,4.033C154.832,155.369,154.4,155.808,154.373,155.783z"/>
		</g>
		<g>
			<path style="fill:#263238;" d="M44.387,107.576c0.303,0.096-1.667,5.59-2.223,12.656c-0.568,7.066,0.731,12.773,0.409,12.827
				c-0.13,0.03-0.613-1.354-1.026-3.684c-0.408-2.325-0.711-5.608-0.421-9.225c0.285-3.61,1.047-6.809,1.764-9.057
				C43.609,108.842,44.262,107.529,44.387,107.576z"/>
		</g>
		<g>
			<path style="fill:#263238;" d="M59.765,160.86c-0.017-0.218,3.575-0.058,9.019-1.624c2.696-0.801,5.849-2.087,8.846-4.25
				c1.459-1.119,2.878-2.45,3.983-4.092c1.093-1.642,1.771-3.628,1.786-5.698c0.008-2.083-0.437-4.14-1.257-5.933
				c-0.825-1.803-2.074-3.301-3.421-4.529c-1.342-1.25-2.86-2.165-4.326-2.9c-0.371-0.177-0.737-0.351-1.096-0.522
				c-0.364-0.16-0.734-0.287-1.09-0.428c-0.708-0.296-1.416-0.501-2.091-0.705c-5.445-1.528-9.05-1.314-9.029-1.547
				c0-0.064,0.883-0.132,2.488-0.114c1.601,0.056,3.935,0.236,6.737,0.951c0.698,0.185,1.432,0.375,2.171,0.66
				c0.371,0.136,0.756,0.258,1.137,0.413c0.376,0.169,0.759,0.34,1.149,0.514c1.54,0.73,3.146,1.657,4.589,2.961
				c1.445,1.281,2.803,2.873,3.706,4.811c0.899,1.936,1.383,4.12,1.375,6.383c-0.015,2.284-0.782,4.482-1.976,6.245
				c-1.204,1.766-2.724,3.154-4.268,4.305c-3.164,2.216-6.434,3.456-9.215,4.185c-2.795,0.721-5.125,0.938-6.727,1.015
				C60.648,160.988,59.764,160.924,59.765,160.86z"/>
		</g>
		<g>
			<path style="fill:#263238;" d="M111.684,104.16c-0.145,0.045-1.022-2.58-2.714-6.702c-0.855-2.054-1.907-4.493-3.321-7.05
				c-0.716-1.268-1.505-2.59-2.5-3.785c-0.493-0.598-1.036-1.174-1.656-1.62c-0.309-0.223-0.635-0.41-0.972-0.548
				c-0.167-0.063-0.328-0.081-0.492-0.132c-0.176-0.001-0.35-0.014-0.528-0.009c-0.728,0.057-1.471,0.371-2.153,0.759
				c-0.688,0.386-1.339,0.844-1.95,1.337c-1.227,0.981-2.328,2.054-3.339,3.111c-2.018,2.124-3.69,4.186-5.076,5.929
				c-2.755,3.504-4.34,5.771-4.466,5.688c-0.06-0.039,0.257-0.659,0.913-1.728c0.657-1.068,1.652-2.586,2.965-4.405
				c1.321-1.813,2.946-3.941,4.963-6.141c1.012-1.096,2.124-2.211,3.401-3.25c0.636-0.522,1.324-1.016,2.083-1.446
				c0.754-0.427,1.597-0.81,2.58-0.893c0.245-0.011,0.498,0.005,0.745,0.016c0.244,0.061,0.505,0.107,0.73,0.194
				c0.443,0.181,0.844,0.416,1.207,0.681c0.727,0.531,1.31,1.165,1.833,1.809c1.053,1.29,1.842,2.66,2.554,3.974
				c1.4,2.644,2.389,5.136,3.164,7.242c0.768,2.11,1.303,3.845,1.635,5.054C111.623,103.455,111.752,104.14,111.684,104.16z"/>
		</g>
		<g>
			<path style="fill:#263238;" d="M44.774,86.647c-0.063-0.049,0.175-0.375,0.774-0.623c0.592-0.246,1.507-0.434,2.625-0.448
				c2.245-0.056,5.271,0.527,8.48,1.45c6.438,1.859,11.332,4.218,11.223,4.467c-0.113,0.28-5.154-1.633-11.509-3.466
				c-3.176-0.914-6.084-1.586-8.21-1.716c-1.062-0.078-1.914-0.01-2.487,0.099C45.093,86.523,44.823,86.692,44.774,86.647z"/>
		</g>
		<g>
			<path style="fill:#263238;" d="M85.051,78.216c-0.053,0.007,0.707-0.356,2.377-1.076c0.835-0.347,1.812-0.604,2.983-0.987
				c0.579-0.196,1.223-0.311,1.896-0.484c0.677-0.154,1.387-0.354,2.152-0.468c6.069-1.187,14.819-1.597,24.525,0.171
				c0.081,0.015,0.153,0.05,0.212,0.1l0.013,0.011c1.667,1.416,3.408,2.894,5.183,4.402c0.154,0.131,0.307,0.261,0.452,0.385
				c0.219,0.187,0.245,0.515,0.059,0.734c-0.142,0.167-0.37,0.221-0.566,0.155c-3.648-1.245-7.363-1.848-10.883-2.139
				c-3.526-0.286-6.872-0.256-9.929-0.087c-6.115,0.377-11.076,1.263-14.285,1.966l-0.015,0.003
				c-0.06,0.013-0.121,0.001-0.169-0.029c-1.39-0.866-2.413-1.566-3.071-2.006C85.324,78.422,85.008,78.213,85.051,78.216
				c0.043,0.003,0.447,0.221,1.179,0.603c0.734,0.386,1.774,0.911,3.069,1.64l-0.184-0.026c3.212-0.873,8.172-1.9,14.349-2.382
				c3.087-0.22,6.477-0.291,10.066-0.027c3.583,0.27,7.383,0.867,11.144,2.149l-0.507,0.889c-0.145-0.124-0.299-0.254-0.452-0.385
				c-1.772-1.511-3.51-2.993-5.174-4.412l0.225,0.111c-9.502-1.771-18.187-1.505-24.192-0.509c-0.76,0.09-1.465,0.266-2.138,0.394
				c-0.669,0.147-1.312,0.236-1.891,0.405c-1.149,0.32-2.2,0.55-2.952,0.802C86.083,77.926,85.104,78.208,85.051,78.216z"/>
		</g>
		<g>
			<path style="fill:#263238;" d="M77.213,144.601c-0.138,0.015-0.007-1.636-0.948-4.332c-0.507-1.321-1.267-2.913-2.58-4.451
				c-1.291-1.543-3.055-3.066-5.275-4.293c-4.399-2.459-10.78-3.633-17.261-1.868c-1.616,0.43-3.194,1.113-4.733,1.928
				c-1.511,0.868-2.945,1.936-4.217,3.214c-2.531,2.553-4.239,6.136-4.207,9.946c0.004,3.83,1.582,7.457,4.081,10.032
				c2.511,2.597,5.805,4.12,9.035,4.912c3.26,0.735,6.509,0.872,9.457,0.503c2.954-0.382,5.636-1.276,7.846-2.516
				c2.22-1.228,3.983-2.75,5.274-4.293c1.313-1.538,2.073-3.13,2.58-4.451C77.206,146.236,77.075,144.586,77.213,144.601
				c0.036,0,0.047,0.398,0.033,1.165c0.015,0.386-0.055,0.855-0.149,1.409c-0.059,0.562-0.234,1.187-0.449,1.888
				c-0.46,1.38-1.195,3.057-2.51,4.686c-1.294,1.635-3.088,3.255-5.366,4.569c-2.268,1.327-5.033,2.297-8.091,2.73
				c-3.063,0.419-6.393,0.313-9.794-0.425c-3.367-0.798-6.853-2.373-9.547-5.136c-2.682-2.736-4.39-6.65-4.39-10.733
				c-0.038-4.118,1.827-7.98,4.52-10.67c1.352-1.35,2.87-2.467,4.462-3.369c1.619-0.848,3.274-1.548,4.962-1.984
				c6.768-1.785,13.359-0.478,17.876,2.152c2.277,1.314,4.072,2.934,5.366,4.568c1.316,1.629,2.05,3.306,2.511,4.686
				c0.215,0.701,0.39,1.325,0.449,1.888c0.093,0.555,0.164,1.023,0.149,1.41C77.26,144.202,77.249,144.601,77.213,144.601z"/>
		</g>
		<g>
			<path style="fill:#263238;" d="M50.219,152.228c-0.021-0.094,0.561-0.056,1.133-0.662c0.275-0.309,0.473-0.751,0.409-1.354
				c-0.023-0.662-0.049-1.393-0.077-2.189c-0.032-1.656-0.07-3.58-0.112-5.699c-0.01-1.076-0.02-2.201-0.03-3.365
				c0.023-0.507-0.151-0.88-0.495-1.171c-0.171-0.132-0.371-0.232-0.586-0.269c-0.18-0.036-0.518-0.019-0.825-0.023
				c-0.447-0.001-0.872,0.235-1.107,0.603c-0.115,0.182-0.193,0.388-0.207,0.602c-0.013,0.214-0.006,0.568-0.01,0.841
				c-0.011,1.165-0.021,2.29-0.03,3.366c-0.042,2.119-0.079,4.043-0.112,5.699c-0.013,0.402-0.025,0.788-0.037,1.157
				c-0.005,0.37-0.049,0.72-0.002,0.966c0.091,0.542,0.449,0.934,0.796,1.132c0.356,0.209,0.681,0.23,0.928,0.262
				C50.094,152.156,50.219,152.192,50.219,152.228c0,0.036-0.125,0.071-0.364,0.105c-0.222,0.035-0.636,0.09-1.105-0.106
				c-0.461-0.183-0.995-0.636-1.188-1.37c-0.097-0.386-0.068-0.734-0.092-1.092c-0.012-0.369-0.024-0.755-0.037-1.157
				c-0.032-1.656-0.07-3.58-0.112-5.699c-0.01-1.076-0.02-2.201-0.03-3.366c0.002-0.31-0.012-0.545,0.005-0.924
				c0.024-0.38,0.156-0.754,0.362-1.08c0.41-0.656,1.18-1.088,1.978-1.084c0.31,0.01,0.592-0.027,1.016,0.042
				c0.387,0.07,0.749,0.246,1.049,0.487c0.299,0.245,0.532,0.562,0.682,0.911c0.149,0.334,0.193,0.777,0.18,1.064
				c-0.011,1.164-0.021,2.289-0.03,3.365c-0.041,2.119-0.079,4.043-0.112,5.699c-0.028,0.797-0.054,1.528-0.077,2.189
				c0.022,0.699-0.321,1.342-0.71,1.646C50.813,152.498,50.187,152.263,50.219,152.228z"/>
		</g>
		<g>
			<path style="fill:#263238;" d="M61.638,152.227c-0.021-0.094,0.561-0.056,1.133-0.662c0.275-0.309,0.473-0.751,0.409-1.354
				c-0.023-0.662-0.049-1.393-0.077-2.189c-0.032-1.656-0.07-3.58-0.112-5.699c-0.01-1.076-0.02-2.201-0.03-3.365
				c0.023-0.507-0.151-0.88-0.495-1.171c-0.171-0.132-0.371-0.232-0.586-0.269c-0.18-0.036-0.518-0.019-0.825-0.023
				c-0.447-0.001-0.872,0.235-1.107,0.603c-0.115,0.182-0.193,0.388-0.207,0.602c-0.013,0.214-0.006,0.568-0.01,0.841
				c-0.011,1.165-0.021,2.29-0.03,3.366c-0.042,2.119-0.079,4.043-0.112,5.699c-0.013,0.402-0.025,0.788-0.037,1.157
				c-0.005,0.37-0.049,0.72-0.002,0.966c0.091,0.542,0.45,0.935,0.796,1.132c0.356,0.209,0.681,0.23,0.928,0.261
				C61.513,152.156,61.638,152.192,61.638,152.227c0,0.036-0.125,0.071-0.364,0.105c-0.221,0.035-0.636,0.09-1.105-0.106
				c-0.461-0.183-0.995-0.636-1.188-1.37c-0.097-0.386-0.068-0.733-0.092-1.092c-0.012-0.369-0.024-0.755-0.037-1.157
				c-0.032-1.656-0.07-3.58-0.112-5.699c-0.01-1.076-0.02-2.201-0.03-3.366c0.002-0.31-0.012-0.545,0.005-0.924
				c0.024-0.38,0.156-0.754,0.362-1.08c0.41-0.656,1.18-1.088,1.978-1.084c0.31,0.01,0.592-0.027,1.016,0.042
				c0.387,0.07,0.749,0.246,1.049,0.487c0.299,0.245,0.532,0.562,0.682,0.911c0.149,0.334,0.192,0.776,0.18,1.064
				c-0.011,1.164-0.021,2.289-0.03,3.365c-0.042,2.118-0.079,4.043-0.112,5.699c-0.028,0.797-0.054,1.528-0.077,2.189
				c0.022,0.699-0.321,1.342-0.71,1.646C62.232,152.498,61.606,152.263,61.638,152.227z"/>
		</g>
		<g>
			<path style="fill:#263238;" d="M44.387,107.576c-0.142,0.013-0.528-2.639-1.005-6.944c-0.231-2.156-0.51-4.71-0.711-7.586
				c-0.047-0.743-0.045-1.471-0.024-2.242c0.029-0.768,0.098-1.572,0.335-2.39c0.237-0.808,0.72-1.66,1.513-2.198
				c0.787-0.547,1.741-0.71,2.618-0.7c0.959,0.026,1.799,0.348,2.545,0.66c0.765,0.316,1.488,0.665,2.186,1.027
				c1.402,0.716,2.71,1.469,3.945,2.204c2.467,1.472,4.633,2.877,6.434,4.083c1.8,1.208,3.231,2.221,4.205,2.944
				c0.972,0.726,1.488,1.158,1.447,1.217c-0.085,0.124-2.359-1.289-6.049-3.541c-1.846-1.123-4.046-2.46-6.52-3.874
				c-1.238-0.706-2.544-1.434-3.922-2.123c-0.686-0.349-1.395-0.684-2.117-0.979c-0.729-0.306-1.457-0.559-2.151-0.578
				c-0.761-0.01-1.494,0.135-2.037,0.515c-0.548,0.372-0.911,0.964-1.12,1.638c-0.389,1.36-0.355,2.907-0.329,4.286
				c0.146,2.836,0.35,5.414,0.486,7.57C44.405,104.885,44.532,107.562,44.387,107.576z"/>
		</g>
		<g>
			<path style="fill:#263238;" d="M135.321,165.669c-0.024,0.012-0.21-0.267-0.342-0.881c-0.063-0.306-0.104-0.697-0.059-1.159
				c0.037-0.472,0.217-0.962,0.369-1.524c0.346-1.112,0.833-2.479,1.725-3.905c0.867-1.433,2.178-2.904,3.964-4.072
				c1.778-1.173,4.033-1.966,6.489-2.301c0.615-0.094,1.242-0.151,1.881-0.188c0.626-0.067,1.4-0.015,2.066,0.235
				c1.362,0.478,2.505,1.689,2.858,3.186c0.1,0.37,0.129,0.757,0.135,1.143c-0.006,0.347-0.012,0.696-0.017,1.047
				c-0.013,0.701-0.026,1.409-0.039,2.125c-0.027,1.432-0.056,2.895-0.084,4.383c-0.063,2.977-0.127,6.059-0.193,9.216
				c-0.102,4.319-0.201,8.497-0.295,12.45c-0.005,0.272-0.23,0.49-0.501,0.49c-0.668-0.002-1.327-0.005-1.98-0.007
				c-0.156,0.001-0.298-0.076-0.389-0.189c-0.483-0.619-0.959-1.228-1.428-1.83l0.783-0.03c-0.415,0.614-0.825,1.22-1.229,1.818
				l-0.003,0.004c-0.09,0.134-0.241,0.206-0.391,0.206c-1.947-0.012-3.817-0.024-5.6-0.035h-0.006
				c-0.184-0.001-0.341-0.117-0.403-0.279c-2.282-5.963-4.153-10.922-5.432-14.398c-0.639-1.738-1.131-3.106-1.451-4.043
				C135.428,166.193,135.278,165.686,135.321,165.669c0.043-0.017,0.276,0.458,0.677,1.364c0.4,0.906,0.967,2.244,1.676,3.955
				c1.419,3.422,3.408,8.334,5.777,14.264l-0.409-0.279c1.783-0.011,3.653-0.023,5.6-0.035l-0.394,0.21
				c0.398-0.601,0.802-1.211,1.211-1.83c0.147-0.222,0.447-0.283,0.669-0.136c0.043,0.028,0.084,0.068,0.114,0.106
				c0.474,0.597,0.955,1.202,1.443,1.818l-0.388-0.189c0.653-0.002,1.312-0.005,1.98-0.007l-0.501,0.49
				c0.081-3.953,0.167-8.131,0.256-12.451c0.074-3.156,0.145-6.238,0.215-9.216c0.037-1.488,0.074-2.95,0.11-4.382
				c0.019-0.716,0.037-1.424,0.055-2.125c0.009-0.349,0.018-0.696,0.026-1.042c-0.004-0.305-0.021-0.611-0.099-0.903
				c-0.263-1.181-1.164-2.16-2.24-2.551c-0.552-0.203-1.081-0.258-1.705-0.205c-0.617,0.027-1.223,0.073-1.813,0.154
				c-2.363,0.287-4.507,0.999-6.209,2.067c-1.708,1.064-2.989,2.418-3.869,3.766c-0.903,1.339-1.433,2.647-1.831,3.718
				C134.707,164.373,135.451,165.668,135.321,165.669z"/>
		</g>
		<g>
			<path style="fill:#263238;" d="M101.053,175.844c-0.06,0.016-0.228-0.483-0.661-1.336c-0.441-0.838-1.157-2.069-2.479-3.157
				c-1.303-1.082-3.35-1.816-5.644-1.533c-2.262,0.251-4.615,1.814-6.043,4.105l0.031-0.426c0.851,2.195,1.767,4.558,2.715,7.002
				c0.619,1.617,1.224,3.199,1.809,4.728l-0.478-0.328c2.236,0.014,4.369,0.026,6.366,0.038l-0.402,0.223
				c0.456-0.716,0.895-1.405,1.32-2.072l0.006-0.009c0.132-0.207,0.408-0.269,0.615-0.136c0.061,0.039,0.111,0.092,0.145,0.151
				c0.428,0.733,0.836,1.431,1.228,2.101l-0.358-0.202c0.549,0.008,1.073,0.016,1.581,0.024l-0.393,0.38
				c0.124-2.926,0.245-5.309,0.355-6.964C100.876,176.779,100.975,175.853,101.053,175.844c0.078-0.008,0.129,0.903,0.153,2.559
				c0.024,1.656,0.022,4.057-0.007,7.021c-0.002,0.209-0.17,0.377-0.378,0.38l-0.016,0c-0.508,0.008-1.032,0.016-1.581,0.024
				c-0.148,0.002-0.279-0.075-0.352-0.192l-0.007-0.01c-0.408-0.66-0.834-1.347-1.281-2.069l0.766,0.006
				c-0.412,0.675-0.837,1.373-1.278,2.098c-0.087,0.143-0.238,0.222-0.394,0.223H96.67c-1.997,0.012-4.131,0.025-6.366,0.038
				c-0.216,0.001-0.404-0.138-0.478-0.328c-0.59-1.527-1.201-3.107-1.826-4.722c-0.934-2.449-1.838-4.817-2.677-7.017l-0.009-0.024
				c-0.052-0.137-0.032-0.287,0.041-0.402c1.648-2.592,4.256-4.226,6.816-4.465c2.539-0.254,4.798,0.657,6.152,1.905
				c1.373,1.251,2.021,2.593,2.38,3.5C101.05,175.294,101.108,175.832,101.053,175.844z"/>
		</g>
		<circle style="fill:#263238;" cx="58.427" cy="120.03" r="2.93"/>
		<path style="fill:#263238;" d="M90.361,120.03c0,1.618-1.312,2.93-2.93,2.93c-1.618,0-2.93-1.312-2.93-2.93s1.312-2.93,2.93-2.93
			C89.049,117.1,90.361,118.412,90.361,120.03z"/>
		<path style="opacity:0.3;" d="M42.352,150.397c0.618-0.012,31.191,3.544,55.969,3.549c33.667,0.007,58.261-5.001,58.261-5.001
			L42.352,150.397z"/>
		<g>
			<path style="fill:#263238;" d="M183.479,112.184c0.043,0.027-0.239,0.631-1.102,1.437c-0.849,0.793-2.336,1.805-4.469,2.145
				c-2.106,0.355-4.862-0.218-7.024-2.133c-1.058-0.949-2.015-2.204-2.419-3.778c-0.192-0.779-0.245-1.65,0.022-2.502
				c0.255-0.855,0.892-1.6,1.646-2.05c0.757-0.457,1.578-0.688,2.38-0.804c0.802-0.113,1.634-0.126,2.448,0.105
				c0.814,0.212,1.586,0.785,1.97,1.553c0.401,0.767,0.409,1.61,0.284,2.341c-0.262,1.49-1.148,2.662-2.079,3.509
				c-0.96,0.843-2.026,1.395-3.041,1.725c-2.05,0.656-3.841,0.447-4.954,0.097c-1.129-0.356-1.644-0.776-1.616-0.818
				c0.041-0.083,0.615,0.207,1.714,0.424c1.085,0.215,2.76,0.29,4.614-0.399c0.918-0.345,1.865-0.886,2.698-1.664
				c0.814-0.79,1.53-1.814,1.718-3.035c0.09-0.594,0.057-1.222-0.22-1.719c-0.267-0.501-0.75-0.872-1.366-1.032
				c-1.222-0.304-2.83-0.075-4.005,0.605c-0.585,0.356-1.013,0.865-1.203,1.477c-0.196,0.609-0.172,1.295-0.018,1.943
				c0.318,1.307,1.138,2.442,2.07,3.308c1.904,1.751,4.355,2.35,6.286,2.116c1.964-0.219,3.419-1.061,4.305-1.725
				C183.017,112.638,183.408,112.127,183.479,112.184z"/>
		</g>
	</g>
</g>
<g id="Credit_Card">
	<g>
		<g>
			<path style="fill:#FF725E;" d="M110.961,349.962l-55.624,10.651c-3.949,0.756-7.763-1.832-8.519-5.781l-6.289-32.844
				c-0.756-3.949,1.832-7.763,5.781-8.519l55.624-10.651c3.949-0.756,7.763,1.832,8.519,5.781l6.289,32.844
				C117.498,345.392,114.91,349.206,110.961,349.962z"/>
		</g>
		<g style="opacity:0.3;">
			
				<rect x="41.421" y="318.238" transform="matrix(0.9822 -0.1881 0.1881 0.9822 -59.4232 20.2535)" style="fill:#FFFFFF;" width="71.194" height="10.06"/>
		</g>
		<g>
			<g>
				<path style="fill:#263238;" d="M77.013,345.536c0.022,0.114-5.661,1.297-12.69,2.643c-7.032,1.347-12.749,2.346-12.77,2.233
					c-0.022-0.113,5.659-1.297,12.692-2.643C71.273,346.423,76.991,345.423,77.013,345.536z"/>
			</g>
		</g>
		<g>
			<g>
				<path style="fill:#263238;" d="M81.943,342.251c0.022,0.113-6.861,1.527-15.371,3.156c-8.513,1.63-15.43,2.859-15.452,2.746
					c-0.022-0.113,6.86-1.526,15.373-3.157C75.003,343.368,81.921,342.138,81.943,342.251z"/>
			</g>
		</g>
	</g>
	<path style="fill:#FFFFFF;" d="M106.759,338.167l-5.737,1.099c-0.732,0.14-1.438-0.34-1.579-1.071l-1.099-5.737
		c-0.14-0.732,0.34-1.438,1.071-1.579l5.737-1.099c0.732-0.14,1.438,0.34,1.578,1.071l1.099,5.737
		C107.97,337.32,107.49,338.027,106.759,338.167z"/>
</g>
<g id="Character_00000035511241625499820420000003876118771081521067_">
	<g>
		<path style="fill:#263238;" d="M335.536,407.634l5.695,59.947H202.756c0,0,3.755-63.961,8.089-63.961
			C215.179,403.619,335.536,407.634,335.536,407.634z"/>
		<g>
			<g>
				<g>
					<g>
						<g>
							<g>
								<path style="fill:#263238;" d="M202.71,144.25c0.665-3.576,1.667-7.166,3.693-10.187c2.026-3.021,5.214-5.425,8.832-5.794
									c3.619-0.368,7.548,1.683,8.699,5.133l2.781,0.232c-4.273,4.183-5.777,10.407-6.507,16.341
									c-0.73,5.934,0.565,11.071-1.79,16.567c-3.651-2.904-7.893-5.91-9.315-10.354c-0.794,3.045-0.427,6.377,1.01,9.176
									c-3.789-1.451-6.417-5.122-7.456-9.045C201.617,152.399,201.969,148.239,202.71,144.25z"/>
							</g>
						</g>
					</g>
					<g>
						<g>
							<g>
								<path style="fill:#263238;" d="M219.5,130.025c-0.67-12.639,14.22-18.394,24.097-20.76
									c9.877-2.367,20.443,0.164,29.125,5.198c8.682,5.034,15.702,12.391,21.96,20.141c-2.281,0.952-4.562,1.904-6.844,2.856
									c1.926-0.894,4.304,0.171,5.522,1.86c1.218,1.689,1.553,3.831,1.821,5.892c0.642,4.927,1.095,9.894,0.954,14.868
									c-0.37,13.012-4.775,25.594-9.133,37.937c-4.363-8.87-5.205-18.999-5.664-28.877c-0.163-3.504-0.361-7.234-2.439-10.066
									c-1.87-2.549-4.987-3.943-8.106-4.693c-3.119-0.751-6.359-0.967-9.471-1.742c-6.962-1.733-13.089-6.363-16.558-12.513
									L219.5,130.025z"/>
							</g>
						</g>
					</g>
					<g>
						<g>
							<g>
								<g>
									<g>
										<g>
											<g>
												<g>
													<g>
														<g>
															<g>
																<g>
																	<g>
																		<g>
																			<g>
																				<g>
																					<g>
																						<g>
																							<g>
																								<path style="fill:#FFBF9D;" d="M280.635,149.027l15.092,72.378c2.566,12.308,3.822,30.913-15.823,34.083
																									l0,0c-17.252,1.465-24.861-13.649-27.244-25.138c-1.13-5.449-2.084-9.992-2.237-10.544
																									c0,0-18.786,2.109-23.92-15.85c-2.481-8.678-6.134-26.97-9.248-43.556
																									c-3.344-17.813,7.575-35.204,25.061-39.969l1.738-0.474C263.1,115.943,277.149,129.876,280.635,149.027z"/>
																							</g>
																						</g>
																					</g>
																				</g>
																			</g>
																		</g>
																	</g>
																</g>
															</g>
														</g>
													</g>
												</g>
											</g>
										</g>
									</g>
								</g>
							</g>
						</g>
						<g>
							<g>
								<g>
									<g>
										<g>
											<g>
												<g>
													<g>
														<g>
															<g>
																<g>
																	<g>
																		<g>
																			<g>
																				<g>
																					<g>
																						<g>
																							<g>
																								<path style="fill:#FF9A6C;" d="M250.422,219.806c0,0,11.54-2.429,21.572-13.33
																									c0,0-2.137,14.721-20.56,17.998L250.422,219.806z"/>
																							</g>
																						</g>
																					</g>
																				</g>
																			</g>
																		</g>
																	</g>
																</g>
															</g>
														</g>
													</g>
												</g>
											</g>
										</g>
									</g>
								</g>
							</g>
						</g>
						<g>
							<g>
								<g>
									<g>
										<g>
											<g>
												<g>
													<g>
														<g>
															<g>
																<g>
																	<g>
																		<g>
																			<g>
																				<g>
																					<g>
																						<g>
																							<g>
																								<g>
																									<g>
																										<g>
																											<path style="fill:#263238;" d="M246.442,184.562c-0.03-0.161-1.832,0.011-4.719,0.414
																												c-0.727,0.12-1.435,0.162-1.685-0.288c-0.306-0.465-0.218-1.309-0.1-2.225
																												c0.199-1.892,0.405-3.876,0.624-5.955c0.815-8.457,1.199-15.334,0.858-15.364
																												c-0.341-0.03-1.278,6.801-2.093,15.259c-0.184,2.081-0.361,4.065-0.527,5.962
																												c-0.048,0.876-0.26,1.913,0.39,2.875c0.334,0.476,0.958,0.718,1.444,0.716
																												c0.492,0.015,0.891-0.086,1.247-0.16C244.73,185.184,246.475,184.723,246.442,184.562z"/>
																										</g>
																									</g>
																								</g>
																							</g>
																						</g>
																					</g>
																				</g>
																			</g>
																		</g>
																	</g>
																</g>
															</g>
														</g>
													</g>
												</g>
											</g>
										</g>
									</g>
								</g>
							</g>
						</g>
						<g>
							<g>
								<g>
									<g>
										<g>
											<g>
												<g>
													<g>
														<g>
															<g>
																<g>
																	<g>
																		<g>
																			<path style="fill:#FFBF9D;" d="M282.799,162.77c0.271-0.216,11.384-7.036,14.347,5.391
																				c2.964,12.427-10.123,12.839-10.23,12.487C286.809,180.297,282.799,162.77,282.799,162.77z"/>
																		</g>
																	</g>
																</g>
															</g>
														</g>
													</g>
												</g>
											</g>
										</g>
									</g>
								</g>
							</g>
						</g>
						<g>
							<g>
								<g>
									<g>
										<g>
											<g>
												<g>
													<g>
														<g>
															<g>
																<g>
																	<g>
																		<g>
																			<g>
																				<path style="fill:#FF9A6C;" d="M289.589,175.035c0.046-0.053,0.253,0.1,0.659,0.18
																					c0.396,0.078,1.036,0.044,1.626-0.353c1.198-0.795,1.806-3.143,1.332-5.397
																					c-0.238-1.138-0.732-2.159-1.345-2.955c-0.596-0.819-1.336-1.313-2.025-1.273
																					c-0.694,0.005-1.068,0.512-1.136,0.898c-0.084,0.387,0.054,0.616-0.007,0.654
																					c-0.027,0.039-0.316-0.145-0.338-0.682c-0.008-0.259,0.068-0.587,0.303-0.895
																					c0.241-0.314,0.649-0.542,1.121-0.602c0.974-0.162,2.047,0.514,2.721,1.387c0.728,0.866,1.31,2.007,1.577,3.285
																					c0.517,2.523-0.206,5.172-1.878,6.12c-0.82,0.436-1.612,0.347-2.058,0.143
																					C289.683,175.33,289.551,175.067,289.589,175.035z"/>
																			</g>
																		</g>
																	</g>
																</g>
															</g>
														</g>
													</g>
												</g>
											</g>
										</g>
									</g>
								</g>
							</g>
						</g>
					</g>
					<g>
						<g>
							<g>
								<path style="fill:#263238;" d="M220.813,136.447c-4.06-6.956,1.154-12.126,6.415-18.225s14.525-8.355,22.001-5.36
									c3.916,1.569,7.204,4.353,10.843,6.486c3.639,2.133,8.047,3.636,12.05,2.305c-3.035,5.311-9.639,8.318-15.637,7.118
									c6.038,4.212,13.336,6.593,20.697,6.753c-4.249,4.775-12.152,5.734-17.42,2.115c3.201,5.358,7.741,9.909,13.091,13.124
									c0.907,0.545,1.962,1.263,1.927,2.32c-0.035,1.078-1.189,1.732-2.213,2.071c-5.961,1.97-12.957,0.367-17.464-4.003
									c-4.85-4.702-8.66-10.064-13.261-15.011c-2.189-2.354-8.093-5.893-11.791-5.002c-3.085,0.744-8.62,3.38-9.295,6.48"/>
							</g>
						</g>
					</g>
					<g>
						<g>
							<g>
								<path style="fill:#263238;" d="M246.783,122.18c0.282-1.032,1.279-1.691,2.248-2.144c6.46-3.02,14.44-0.794,19.89,3.804
									c5.45,4.598,8.824,11.163,11.621,17.722c2.272,5.326,4.293,10.978,3.918,16.756l-2.093,5.296
									c-0.651,1.562-0.175,3.333-0.128,5.024c0.046,1.691-0.716,3.738-2.394,3.949c-1.241,0.157-2.354-0.806-3.026-1.861
									c-2.022-3.175-1.646-7.471-3.782-10.571c-1.432-2.078-3.773-3.297-5.745-4.872c-3.487-2.784-5.842-6.709-8.121-10.545
									c-3.835-6.456-7.67-12.911-11.505-19.368C247.086,124.395,246.483,123.276,246.783,122.18z"/>
							</g>
						</g>
					</g>
					<g>
						<g>
							<g>
								<path style="fill:#263238;" d="M220.813,136.447c-4.06-6.956,1.154-12.126,6.415-18.225s14.525-8.355,22.001-5.36
									c3.916,1.569,7.204,4.353,10.843,6.486c3.639,2.133,8.047,3.636,12.05,2.305c-3.035,5.311-9.639,8.318-15.637,7.118
									c6.038,4.212,13.336,6.593,20.697,6.753c-4.249,4.775-12.152,5.734-17.42,2.115c3.201,5.358,7.741,9.909,13.091,13.124
									c0.907,0.545,1.962,1.263,1.927,2.32c-0.035,1.078-1.189,1.732-2.213,2.071c-5.961,1.97-12.957,0.367-17.464-4.003
									c-4.85-4.702-8.66-10.064-13.261-15.011c-2.189-2.354-8.093-5.893-11.791-5.002c-3.085,0.744-8.62,3.38-9.295,6.48"/>
							</g>
						</g>
					</g>
					<g>
						<g>
							<g>
								<g>
									<path style="fill:#455A64;" d="M259.121,124.011c-0.005-0.069-0.658-0.021-1.81-0.167
										c-1.151-0.151-2.788-0.577-4.669-1.472c-1.897-0.862-3.981-2.233-6.459-3.56c-1.242-0.651-2.598-1.282-4.097-1.703
										c-1.495-0.417-3.148-0.59-4.793-0.376c-3.31,0.411-6.162,2.02-8.282,3.883c-2.141,1.88-3.586,4.013-4.65,5.841
										c-1.056,1.844-1.73,3.421-2.169,4.516c-0.434,1.099-0.626,1.723-0.577,1.743c0.14,0.065,1.069-2.394,3.231-5.969
										c1.105-1.759,2.566-3.803,4.646-5.574c2.06-1.76,4.796-3.264,7.896-3.647c3.116-0.422,6.028,0.687,8.456,1.939
										c2.446,1.262,4.595,2.606,6.567,3.422c1.955,0.851,3.678,1.208,4.87,1.266
										C258.477,124.207,259.127,124.051,259.121,124.011z"/>
								</g>
							</g>
						</g>
					</g>
					<g>
						<g>
							<g>
								<g>
									<path style="fill:#455A64;" d="M252.812,137.107c0.066-0.106-1.626-1.244-4.016-3.523
										c-1.213-1.119-2.615-2.509-4.337-3.901c-1.71-1.385-3.818-2.769-6.346-3.449c-2.513-0.682-5.063-0.611-7.236-0.057
										c-2.184,0.561-3.97,1.599-5.272,2.666c-1.314,1.066-2.163,2.151-2.675,2.932c-0.51,0.787-0.704,1.27-0.663,1.292
										c0.13,0.101,1.074-1.81,3.685-3.778c1.296-0.97,3.024-1.904,5.101-2.396c2.069-0.487,4.48-0.531,6.852,0.113
										c2.375,0.638,4.398,1.93,6.098,3.255c1.707,1.329,3.15,2.675,4.418,3.746c1.259,1.081,2.336,1.9,3.119,2.406
										C252.319,136.923,252.786,137.147,252.812,137.107z"/>
								</g>
							</g>
						</g>
					</g>
					<g>
						<g>
							<g>
								<g>
									<path style="fill:#455A64;" d="M210.57,147.272c0.124,0.004,0.202-1.147,0.546-2.951c0.344-1.791,1.014-4.277,2.547-6.576
										c1.534-2.293,3.667-3.768,5.338-4.427c1.68-0.685,2.851-0.695,2.842-0.836c0.013-0.078-1.198-0.279-3.036,0.305
										c-1.82,0.557-4.17,2.062-5.808,4.513c-1.629,2.447-2.233,5.08-2.442,6.935C210.35,146.11,210.475,147.271,210.57,147.272z"
										/>
								</g>
							</g>
						</g>
					</g>
					<g>
						<g>
							<g>
								<g>
									<path style="fill:#455A64;" d="M266.926,154.708c0.002,0.017,0.19,0.013,0.556-0.012c0.365-0.033,0.907-0.095,1.603-0.246
										c1.382-0.299,3.435-0.927,5.655-2.456c1.063-0.779,2.362-1.679,3.039-3.272c0.338-0.772,0.317-1.855-0.333-2.603
										c-0.643-0.77-1.663-1.005-2.593-1.107c-0.954-0.103-1.925-0.038-2.888-0.094c-0.971-0.054-1.966-0.19-2.967-0.422
										c-2-0.467-4.03-1.313-5.893-2.592l-0.264,0.596c3.832,0.95,8.735-0.74,11.094-4.817l0.259-0.447l-0.512-0.098
										c-3.536-0.678-7.084-2.246-10.117-4.686l-0.285,0.693c4.78,0.495,9.98-1.757,12.898-6.024
										c0.112-0.167,0.223-0.334,0.327-0.488l0.368-0.551l-0.676-0.057c-2.272-0.19-4.395-1.186-6.255-2.444
										c-1.872-1.264-3.509-2.818-5.151-4.321c-1.629-1.515-3.32-2.966-5.161-4.126c-1.83-1.168-3.76-2.085-5.713-2.769
										c-7.867-2.776-15.839-1.639-21.344,1.227c-5.61,2.824-8.992,6.835-10.855,9.713c-1.886,2.924-2.383,4.807-2.383,4.807
										c0.099,0.049,0.697-1.798,2.641-4.636c1.921-2.794,5.318-6.679,10.847-9.38c2.74-1.348,5.999-2.319,9.582-2.581
										c3.576-0.272,7.466,0.196,11.269,1.541c3.833,1.321,7.411,3.677,10.589,6.778c1.634,1.501,3.292,3.087,5.235,4.403
										c1.927,1.305,4.17,2.374,6.634,2.582l-0.307-0.608c-0.097,0.144-0.201,0.301-0.307,0.458
										c-2.732,4.008-7.672,6.157-12.158,5.696l-1.32-0.135l1.035,0.829c3.144,2.517,6.813,4.121,10.468,4.804l-0.254-0.545
										c-2.138,3.764-6.742,5.4-10.295,4.536l-1.792-0.436l1.529,1.032c1.947,1.314,4.058,2.171,6.133,2.634
										c1.038,0.23,2.069,0.359,3.073,0.404c1.012,0.046,1.965-0.029,2.863,0.058c0.884,0.081,1.766,0.301,2.264,0.896
										c0.517,0.589,0.563,1.419,0.282,2.112c-0.567,1.424-1.798,2.348-2.828,3.128c-2.135,1.539-4.13,2.217-5.481,2.573
										C267.676,154.609,266.92,154.658,266.926,154.708z"/>
								</g>
							</g>
						</g>
					</g>
				</g>
			</g>
			<g>
				<g>
					<g>
						<g>
							<g>
								<g>
									<g>
										<g>
											<g>
												<g>
													<g>
														<g>
															<path style="fill:#263238;" d="M227.146,174.632c0.231,1.389,1.599,2.339,3.054,2.124
																c1.452-0.215,2.445-1.513,2.213-2.902c-0.231-1.389-1.598-2.341-3.051-2.126
																C227.907,171.943,226.914,173.243,227.146,174.632z"/>
														</g>
													</g>
												</g>
											</g>
										</g>
									</g>
								</g>
							</g>
						</g>
					</g>
				</g>
				<g>
					<g>
						<g>
							<g>
								<g>
									<g>
										<g>
											<g>
												<g>
													<g>
														<g>
															<g>
																<path style="fill:#263238;" d="M223.126,165.83c0.393,0.275,2.074-1.592,4.887-2.155
																	c2.801-0.604,5.158,0.423,5.392,0.017c0.119-0.182-0.336-0.731-1.367-1.202c-1.016-0.471-2.653-0.798-4.403-0.435
																	c-1.749,0.366-3.09,1.309-3.803,2.141C223.103,165.035,222.935,165.71,223.126,165.83z"/>
															</g>
														</g>
													</g>
												</g>
											</g>
										</g>
									</g>
								</g>
							</g>
						</g>
					</g>
				</g>
				<g>
					<g>
						<g>
							<g>
								<g>
									<g>
										<g>
											<g>
												<g>
													<g>
														<g>
															<path style="fill:#263238;" d="M251.489,170.724c0.231,1.389,1.599,2.339,3.054,2.123
																c1.452-0.214,2.446-1.512,2.214-2.902c-0.232-1.389-1.599-2.34-3.052-2.125
																C252.249,168.035,251.257,169.335,251.489,170.724z"/>
														</g>
													</g>
												</g>
											</g>
										</g>
									</g>
								</g>
							</g>
						</g>
					</g>
				</g>
				<g>
					<g>
						<g>
							<g>
								<g>
									<g>
										<g>
											<g>
												<g>
													<g>
														<g>
															<g>
																<path style="fill:#263238;" d="M250.81,160.883c0.394,0.275,2.078-1.591,4.888-2.155
																	c2.8-0.603,5.157,0.424,5.393,0.017c0.118-0.183-0.333-0.731-1.368-1.201c-1.016-0.472-2.653-0.798-4.402-0.436
																	c-1.749,0.366-3.09,1.31-3.804,2.141C250.79,160.088,250.62,160.763,250.81,160.883z"/>
															</g>
														</g>
													</g>
												</g>
											</g>
										</g>
									</g>
								</g>
							</g>
						</g>
					</g>
				</g>
				<g>
					<g>
						<g>
							<g>
								<g>
									<g>
										<g>
											<path style="fill:#263238;" d="M260.711,149.302c-0.322-0.764-3.163-0.25-6.544-0.485
												c-3.386-0.167-6.146-1.013-6.557-0.292c-0.182,0.345,0.328,1.053,1.462,1.752c1.123,0.698,2.893,1.325,4.922,1.448
												c2.028,0.118,3.859-0.296,5.058-0.856C260.261,150.309,260.852,149.665,260.711,149.302z"/>
										</g>
									</g>
								</g>
							</g>
						</g>
					</g>
				</g>
				<g>
					<g>
						<g>
							<g>
								<g>
									<g>
										<g>
											<path style="fill:#263238;" d="M221.318,157.592c0.706,0.53,2.877-0.565,5.631-1.115c2.737-0.63,5.177-0.526,5.59-1.297
												c0.174-0.369-0.313-0.942-1.449-1.356c-1.119-0.415-2.896-0.592-4.783-0.188c-1.887,0.406-3.421,1.296-4.258,2.131
												C221.197,156.609,221.001,157.329,221.318,157.592z"/>
										</g>
									</g>
								</g>
							</g>
						</g>
					</g>
				</g>
				<g>
					<g>
						<g>
							<g>
								<g>
									<path style="fill:#263238;" d="M249.084,194.801c0.432,0.085,0.836-2.819,3.605-4.539c2.766-1.728,5.816-0.977,5.895-1.38
										c0.065-0.177-0.612-0.659-1.914-0.874c-1.275-0.22-3.204-0.065-4.898,0.987c-1.69,1.057-2.573,2.654-2.836,3.831
										C248.658,194.026,248.883,194.79,249.084,194.801z"/>
								</g>
							</g>
						</g>
					</g>
				</g>
			</g>
		</g>
		<g>
			<path style="fill:#FFBF9D;" d="M187.138,196.33c-0.652,0.869-17.295,29.633-17.295,29.633s-16.098,29.979-18.765,37.982
				c-3.895,11.687-5.108,29.159,6.712,36.126c6.967,4.107,13.211,4.556,28.418-1.309s26.185-15.816,26.185-15.816l0.101-50.708
				l-19.074,17.525l11.696-45.756L187.138,196.33z"/>
			<g>
				<g>
					<g>
						<path style="fill:#FFBF9D;" d="M179.944,208.763l7.206-14.672c0,0,16.875-30.316,17.896-31.533
							c1.021-1.217,6.456-13.872,6.456-13.872l7.602-9.086c0,0,3.566,0.535,1.302,5.149l-3.227,6.147l11.852-11.897
							c0,0,3.51,0.406,2.143,4.134c-1.016,2.77-4.635,7.061-4.635,7.061l10.637-9.234c0,0,4.425,0.682,2.303,5.325
							c-1.381,3.019-13.779,16.723-13.779,16.723s6.185-3.821,8.14-5.09c1.955-1.268,3.973-4.027,5.416-3.766
							c1.443,0.261,3.962,2.494,0.204,6.76c-3.758,4.266-14.33,11.065-15.87,11.909c-1.54,0.845-1.54,0.845-1.54,0.845
							s-1.831,4.743-4.413,7.034c0,0-4.243,13.446-6.382,17.147c-2.307,3.993-6.138,6.161-6.138,6.161l-4.81,18.817"/>
						<g>
							<path style="fill:#FF9A6C;" d="M200.305,222.826c0,0,0.015-0.11,0.063-0.322c0.054-0.227,0.127-0.538,0.222-0.943
								c0.208-0.848,0.51-2.074,0.902-3.67c0.81-3.228,1.99-7.932,3.492-13.916l0.013-0.053l0.051-0.031
								c3.062-1.886,6.048-4.983,7.522-9.289c1.68-4.199,3.257-8.896,4.876-13.961l0.016-0.05l0.041-0.038
								c1.875-1.746,3.238-4.309,4.348-6.963l0.031-0.075l0.064-0.034c1.497-0.791,2.947-1.673,4.413-2.65
								c1.466-0.962,2.942-1.97,4.423-3.024c1.481-1.054,2.966-2.157,4.428-3.333c1.45-1.183,2.925-2.411,4.178-3.853
								c0.622-0.72,1.168-1.52,1.514-2.396c0.35-0.864,0.411-1.87-0.067-2.655c-0.229-0.39-0.573-0.717-0.975-0.938
								c-0.198-0.118-0.417-0.188-0.632-0.239c-0.198-0.021-0.402-0.014-0.615,0.075c-0.853,0.339-1.602,1.081-2.353,1.751
								c-0.752,0.685-1.512,1.411-2.411,1.981c-0.877,0.549-1.758,1.101-2.645,1.656c-1.773,1.11-3.565,2.232-5.374,3.364
								l-1.518,0.95l1.198-1.335c3.05-3.398,6.149-6.916,9.203-10.585c1.496-1.844,3.091-3.702,4.331-5.725
								c0.527-1.014,0.958-2.234,0.628-3.312c-0.299-1.085-1.426-1.784-2.538-1.999l0.21-0.061c-0.958,0.832-1.992,1.73-3.031,2.631
								c-2.56,2.222-5.098,4.424-7.607,6.602l-0.369-0.363c1.486-1.819,2.913-3.705,4.01-5.723c0.265-0.506,0.52-1.021,0.67-1.554
								c0.18-0.526,0.248-1.079,0.171-1.593c-0.077-0.515-0.344-0.975-0.751-1.298c-0.407-0.316-0.936-0.526-1.44-0.605l0.211-0.074
								c-4.061,4.072-8.019,8.041-11.858,11.891l-1.16,1.163l0.764-1.453c1.057-2.01,2.1-3.993,3.128-5.948
								c0.47-0.962,0.897-1.994,0.811-3.006c-0.03-1.017-0.872-1.82-1.829-1.991l0.218-0.083c-2.631,3.138-5.164,6.159-7.611,9.078
								l0.034-0.056c-1.011,2.336-2.014,4.617-3.016,6.838c-1.014,2.218-1.973,4.389-3.091,6.45
								c-1.289,1.945-2.373,3.91-3.485,5.811c-1.09,1.908-2.148,3.761-3.174,5.558c-4.064,7.203-7.61,13.488-10.534,18.671
								c-0.364,0.647-0.718,1.277-1.062,1.89c-0.327,0.619-0.619,1.238-0.917,1.829c-0.588,1.185-1.14,2.297-1.654,3.332
								c-1.028,2.063-1.903,3.821-2.616,5.253c-0.71,1.413-1.257,2.5-1.635,3.251c-0.183,0.356-0.324,0.63-0.427,0.83
								c-0.098,0.185-0.155,0.275-0.155,0.275s0.036-0.101,0.123-0.291c0.095-0.204,0.226-0.483,0.396-0.846
								c0.364-0.759,0.89-1.856,1.574-3.282c0.697-1.44,1.554-3.208,2.559-5.283c0.505-1.04,1.048-2.156,1.627-3.347
								c0.294-0.594,0.58-1.213,0.905-1.839c0.34-0.616,0.691-1.249,1.051-1.9c2.899-5.198,6.414-11.501,10.442-18.725
								c1.02-1.801,2.072-3.659,3.155-5.571c1.099-1.895,2.197-3.898,3.466-5.822c1.089-2.021,2.051-4.209,3.055-6.422
								c0.995-2.221,1.992-4.503,2.997-6.838l0.013-0.031l0.021-0.026c2.441-2.924,4.968-5.95,7.593-9.093l0.09-0.108l0.128,0.025
								c0.592,0.117,1.117,0.383,1.539,0.815c0.423,0.425,0.661,1.022,0.699,1.605c0.095,1.184-0.376,2.268-0.857,3.269
								c-1.026,1.958-2.067,3.944-3.123,5.958l-0.395-0.29c3.835-3.853,7.789-7.826,11.846-11.902l0.092-0.092l0.119,0.019
								c0.625,0.099,1.193,0.327,1.7,0.712c0.499,0.388,0.85,0.99,0.94,1.617c0.094,0.626,0.007,1.257-0.186,1.826
								c-0.166,0.585-0.433,1.12-0.707,1.645c-1.133,2.082-2.562,3.966-4.07,5.816l-0.369-0.363
								c2.509-2.178,5.046-4.381,7.606-6.603c1.038-0.901,2.073-1.799,3.031-2.631l0.096-0.084l0.114,0.023
								c0.66,0.133,1.262,0.372,1.802,0.765c0.535,0.386,0.968,0.952,1.155,1.599c0.206,0.646,0.154,1.325,0.012,1.943
								c-0.073,0.312-0.154,0.621-0.283,0.908c-0.106,0.297-0.231,0.586-0.4,0.858c-1.306,2.127-2.881,3.943-4.39,5.806
								c-3.064,3.678-6.166,7.194-9.225,10.595l-0.32-0.384c1.808-1.129,3.599-2.248,5.372-3.355
								c0.886-0.553,1.768-1.104,2.644-1.651c0.853-0.538,1.592-1.24,2.349-1.928c0.769-0.672,1.487-1.427,2.522-1.847
								c0.256-0.106,0.569-0.136,0.868-0.093c0.274,0.063,0.538,0.153,0.772,0.291c0.476,0.262,0.882,0.648,1.157,1.117
								c0.576,0.95,0.481,2.136,0.098,3.069c-0.379,0.955-0.957,1.789-1.601,2.533c-1.299,1.486-2.784,2.714-4.248,3.905
								c-1.474,1.181-2.968,2.285-4.457,3.339c-1.489,1.054-2.972,2.061-4.445,3.022c-1.46,0.969-2.958,1.873-4.448,2.655
								l0.095-0.108c-0.557,1.372-1.207,2.664-1.932,3.877c-0.732,1.206-1.552,2.329-2.546,3.229l0.057-0.088
								c-1.639,5.068-3.233,9.76-4.94,13.97c-0.442,1.047-0.867,2.072-1.401,3.029c-0.535,0.952-1.165,1.815-1.841,2.597
								c-1.362,1.559-2.878,2.815-4.458,3.77l0.064-0.084c-1.555,5.971-2.776,10.664-3.615,13.885
								c-0.421,1.588-0.746,2.809-0.969,3.652c-0.111,0.401-0.195,0.709-0.257,0.934
								C200.345,222.722,200.305,222.826,200.305,222.826z"/>
						</g>
					</g>
				</g>
				<g>
					<g>
						<path style="fill:#FF9A6C;" d="M228.254,148.255c0.016,0.014-0.217,0.307-0.652,0.827c-0.436,0.518-1.079,1.258-1.888,2.16
							c-1.623,1.797-3.916,4.24-6.615,6.77c-2.14,2.009-4.221,3.758-5.968,5.072l-0.019,0.015l-0.022,0.006
							c-1.611,0.456-2.822,1.158-3.612,1.698c-0.792,0.546-1.189,0.923-1.211,0.898c-0.008-0.009,0.083-0.111,0.268-0.291
							c0.187-0.177,0.471-0.43,0.86-0.723c0.774-0.581,1.987-1.329,3.625-1.821l-0.041,0.021c1.717-1.338,3.776-3.096,5.91-5.098
							c2.691-2.523,5.003-4.937,6.665-6.694c0.801-0.856,1.462-1.562,1.958-2.092C227.975,148.508,228.238,148.241,228.254,148.255z
							"/>
						<g>
							<path style="fill:#FF9A6C;" d="M228.254,148.255c0,0-0.365,0.431-1.053,1.211c-0.688,0.78-1.696,1.907-3.029,3.251
								c-1.341,1.37-2.927,2.99-4.701,4.802c-1.82,1.796-3.951,3.685-6.334,5.568l-0.271-0.428l0.041-0.021l0.188,0.471
								c-0.84,0.257-1.672,0.61-2.459,1.069c-0.778,0.433-1.556,1.072-2.142,1.647c0,0,0.014-0.014,0.03-0.08
								c0.02-0.069-0.019-0.183-0.065-0.222c-0.017-0.019-0.042-0.04-0.073-0.056c-0.065-0.035-0.15-0.031-0.196-0.011
								c-0.012,0.003-0.032,0.014-0.032,0.014l0.021-0.015l0.064-0.049l0.139-0.11l0.284-0.222l0.581-0.425
								c0.394-0.275,0.801-0.525,1.217-0.75c0.831-0.452,1.703-0.799,2.581-1.045l-0.084,0.042
								c4.821-3.658,8.554-7.461,11.182-10.184c1.316-1.364,2.317-2.502,3.027-3.267
								C227.678,148.884,227.983,148.551,228.254,148.255c0.045,0.027-0.283,0.504-0.951,1.305
								c-0.668,0.802-1.635,1.979-2.921,3.377c-2.57,2.791-6.269,6.655-11.117,10.365l-0.037,0.028l-0.047,0.013
								c-0.842,0.24-1.675,0.575-2.472,1.01c-0.398,0.217-0.789,0.458-1.166,0.722l-0.562,0.412l-0.277,0.217l-0.14,0.112
								l-0.077,0.06l-0.052,0.036c-0.014,0.009-0.046,0.026-0.071,0.036c-0.049,0.02-0.139,0.024-0.207-0.011
								c-0.034-0.016-0.06-0.037-0.079-0.057c-0.047-0.041-0.086-0.157-0.066-0.228c0.018-0.074,0.037-0.093,0.04-0.1
								c1.444-1.508,3.129-2.38,4.897-2.929l0.188,0.471l-0.041,0.02l-0.271-0.428c2.372-1.859,4.508-3.722,6.342-5.489
								c1.8-1.777,3.409-3.366,4.769-4.709C226.647,149.86,228.155,148.151,228.254,148.255z"/>
						</g>
					</g>
				</g>
				<g>
					<g>
						<path style="fill:#FF9A6C;" d="M217.762,150.177c0.031,0.027-0.393,0.566-1.117,1.404c-0.725,0.838-1.756,1.968-2.923,3.189
							c-1.139,1.179-2.168,2.244-3.003,3.108c-0.771,0.792-1.255,1.277-1.287,1.248c-0.03-0.027,0.397-0.564,1.129-1.395
							c0.731-0.832,1.774-1.952,2.94-3.172c1.132-1.184,2.155-2.255,2.984-3.123C217.249,150.637,217.73,150.148,217.762,150.177z"
							/>
						<g>
							<path style="fill:#FF9A6C;" d="M217.763,150.177c0,0-0.882,1.044-2.38,2.679c-0.781,0.85-1.666,1.813-2.631,2.864
								c-0.497,0.543-1.013,1.108-1.547,1.692c-0.27,0.292-0.545,0.589-0.808,0.902l-0.396,0.471l-0.192,0.24l-0.089,0.118
								l-0.038,0.055l-0.011,0.017l0.008-0.017l0.01-0.045c0.019-0.081-0.038-0.194-0.091-0.227
								c-0.047-0.051-0.165-0.077-0.232-0.049l-0.029,0.01c-0.006,0.002-0.021,0.013-0.017,0.009l0.016-0.012l0.05-0.043
								l0.109-0.101l0.221-0.215l0.436-0.438c0.287-0.294,0.57-0.583,0.849-0.868c0.555-0.567,1.091-1.115,1.607-1.642
								c1.04-1.034,1.922-2.006,2.692-2.801c0.764-0.799,1.397-1.435,1.808-1.896C217.529,150.423,217.763,150.177,217.763,150.177
								c0.107,0.067-0.703,1.199-2.188,2.845c-0.736,0.83-1.6,1.837-2.619,2.888c-0.509,0.534-1.039,1.09-1.586,1.664
								c-0.278,0.288-0.559,0.58-0.845,0.876l-0.44,0.445l-0.229,0.223l-0.122,0.113l-0.07,0.06l-0.047,0.036l-0.051,0.03
								c-0.017,0.007-0.003,0.004-0.047,0.019c-0.073,0.028-0.198,0.002-0.251-0.048c-0.055-0.038-0.111-0.159-0.093-0.245
								c0.016-0.078,0.01-0.039,0.017-0.064l0.024-0.053l0.03-0.05l0.052-0.075l0.101-0.134l0.201-0.25l0.405-0.479
								c0.268-0.316,0.546-0.613,0.819-0.904c0.544-0.58,1.071-1.14,1.577-1.679c1.002-1.075,1.936-2.004,2.716-2.791
								C216.678,151.036,217.677,150.072,217.763,150.177z"/>
						</g>
					</g>
				</g>
				<g>
					<g>
						<path style="fill:#FFBF9D;" d="M213.22,169.042c4.506-1.485,8.811-3.579,12.76-6.208"/>
						<g>
							<path style="fill:#FF9A6C;" d="M225.98,162.834c0.038,0.057-0.584,0.561-1.662,1.276c-1.077,0.715-2.619,1.626-4.394,2.491
								c-1.777,0.863-3.446,1.515-4.673,1.921c-1.228,0.407-2.009,0.585-2.03,0.52c-0.049-0.148,2.96-1.19,6.475-2.909
								C223.216,164.429,225.893,162.704,225.98,162.834z"/>
						</g>
					</g>
					<g>
						<g>
							<path style="fill:#FF9A6C;" d="M225.98,162.834c0.012,0.018-0.144,0.143-0.436,0.356c-0.291,0.214-0.723,0.507-1.266,0.855
								c-1.086,0.698-2.63,1.596-4.402,2.459c-1.773,0.862-3.434,1.522-4.653,1.946c-0.609,0.212-1.107,0.372-1.455,0.468
								c-0.347,0.098-0.542,0.143-0.549,0.123c-0.014-0.044,0.733-0.32,1.928-0.794c1.195-0.474,2.831-1.162,4.594-2.019
								c1.761-0.858,3.313-1.721,4.423-2.369C225.276,163.214,225.954,162.796,225.98,162.834z"/>
							<g>
								<path style="fill:#FF9A6C;" d="M225.98,162.834c0,0-1.286,0.946-3.564,2.172c-1.137,0.614-2.449,1.432-4.034,2.083
									c-0.785,0.35-1.604,0.716-2.451,1.093c-0.424,0.192-0.859,0.381-1.307,0.551l-0.672,0.265l-0.335,0.135l-0.161,0.069
									l-0.064,0.031c-0.016,0.008-0.001,0.002,0.009-0.01c0.017,0,0.107-0.133,0.078-0.217c-0.002-0.019-0.02-0.114-0.111-0.178
									c-0.092-0.049-0.053-0.025-0.087-0.037c-0.06-0.009-0.046-0.003-0.051-0.005c1.791-0.482,3.598-1.171,5.133-1.843
									c1.556-0.675,2.918-1.369,4.045-1.984c1.13-0.611,2.012-1.16,2.62-1.543C225.647,163.048,225.98,162.834,225.98,162.834
									c0.047,0.041-0.252,0.329-0.836,0.749c-0.578,0.437-1.438,1.04-2.554,1.696c-1.112,0.661-2.471,1.396-4.033,2.103
									c-1.578,0.71-3.273,1.4-5.285,1.924c-0.021,0-0.022,0.007-0.097-0.005c-0.038-0.014-0.003,0.011-0.098-0.041
									c-0.095-0.067-0.116-0.165-0.114-0.187c-0.024-0.09,0.068-0.231,0.091-0.237c0.035-0.03,0.075-0.053,0.087-0.058l0.101-0.05
									l0.177-0.076l0.343-0.138l0.674-0.264c0.448-0.168,0.881-0.353,1.302-0.54c0.845-0.366,1.662-0.719,2.445-1.058
									c1.584-0.622,2.905-1.401,4.058-1.97C224.546,163.549,225.917,162.701,225.98,162.834z"/>
							</g>
						</g>
					</g>
				</g>
			</g>
			<g>
				<path style="fill:#FF725E;" d="M343.21,235.909c0,0,15.968,7.943,21.797,34.44c3.663,16.648,10.225,43.682,10.225,43.682
					l-41.696,6.577c0,0-6.56-39.474-5.801-40.273C328.495,279.534,343.21,235.909,343.21,235.909z"/>
				<path style="fill:#FF725E;" d="M212.493,232.24l39.137-6.828c0,0,3.193,19.623,24.206,16
					c21.618-3.727,19.884-21.36,19.884-21.36s36.047,10.286,43.025,13.408c6.978,3.122,10.817,7.951,10.817,7.951
					s-12.811,49.711-13.209,50.335c-0.325,0.509-1.431,75.028-1.829,102.584c2.68,5.043,3.416,10.753,2.564,17.01l-121.647,2.58
					l-3.938-125.178l-16.245,8.296l-8.385-23.876l7.542-28L212.493,232.24z"/>
				<g>
					<path style="fill:#263238;" d="M238.231,325.594c-0.002-0.005,0.054-0.036,0.165-0.094c0.127-0.063,0.291-0.145,0.498-0.248
						c0.459-0.22,1.104-0.53,1.927-0.925c1.693-0.808,4.112-1.961,7.093-3.383c5.985-2.865,14.226-6.879,23.256-11.456
						c9.031-4.582,17.139-8.86,22.987-11.996c2.908-1.565,5.268-2.835,6.92-3.724c0.804-0.43,1.436-0.768,1.884-1.008
						c0.205-0.106,0.368-0.19,0.494-0.255c0.112-0.056,0.171-0.082,0.173-0.078c0.003,0.005-0.051,0.04-0.158,0.105
						c-0.122,0.072-0.28,0.165-0.479,0.282c-0.442,0.252-1.064,0.606-1.856,1.058c-1.614,0.915-3.963,2.218-6.874,3.81
						c-5.823,3.185-13.917,7.495-22.951,12.079c-9.032,4.579-17.291,8.563-23.301,11.379c-3.005,1.409-5.443,2.533-7.136,3.295
						c-0.833,0.372-1.486,0.665-1.951,0.873c-0.212,0.091-0.38,0.164-0.511,0.22C238.293,325.577,238.233,325.599,238.231,325.594z"
						/>
				</g>
				<g>
					<path style="fill:#263238;" d="M337.749,272.32c0.013,0.002,0.004,0.145-0.025,0.418c-0.039,0.316-0.087,0.712-0.147,1.201
						c-0.153,1.103-0.363,2.621-0.626,4.515c-0.579,3.921-1.387,9.384-2.335,15.804l0.003-0.037
						c0.031,4.53,0.066,9.549,0.102,14.828c0.025,10.192,0.048,19.415,0.065,26.159c-0.017,3.305-0.03,5.999-0.04,7.927
						c-0.015,0.896-0.028,1.612-0.037,2.155c-0.014,0.493-0.03,0.752-0.048,0.752c-0.018,0-0.037-0.259-0.056-0.751
						c-0.015-0.543-0.035-1.259-0.061-2.155c-0.031-1.929-0.073-4.622-0.126-7.926c-0.056-6.743-0.133-15.966-0.218-26.158
						c-0.021-5.28-0.041-10.299-0.058-14.829l0-0.02l0.003-0.018c1.025-6.409,1.896-11.862,2.522-15.776
						c0.319-1.885,0.574-3.397,0.76-4.494c0.09-0.485,0.163-0.877,0.221-1.19C337.701,272.456,337.736,272.318,337.749,272.32z"/>
				</g>
				<g>
					<path style="fill:#263238;" d="M208.124,251.636c0.035-0.007,0.184,0.573,0.422,1.629c0.242,1.055,0.553,2.59,0.904,4.493
						c0.704,3.805,1.512,9.096,2.086,14.975c0.569,5.882,0.794,11.23,0.836,15.099c0.022,1.935,0.012,3.501-0.022,4.582
						c-0.031,1.082-0.064,1.679-0.1,1.679c-0.036,0-0.07-0.598-0.102-1.679c-0.037-1.169-0.085-2.71-0.143-4.574
						c-0.136-3.861-0.419-9.191-0.986-15.058c-0.572-5.864-1.32-11.149-1.93-14.963c-0.301-1.84-0.551-3.362-0.74-4.516
						C208.17,252.237,208.089,251.643,208.124,251.636z"/>
				</g>
			</g>
			<g>
				<path style="fill:#FF9A6C;" d="M196.021,239.587c0.139,0.039-2.574,10.12-6.058,22.514c-3.485,12.398-6.422,22.414-6.56,22.375
					c-0.138-0.039,2.574-10.118,6.059-22.516C192.945,249.566,195.883,239.548,196.021,239.587z"/>
			</g>
		</g>
		<g>
			<path style="fill:#E0E0E0;" d="M190.091,368.622c0,0,8.585-26.892,38.794-7.785c30.961,19.582,51.479,106.744,51.479,106.744
				H200.69c0-26.314-27.984-96.69-36.759-99.161L190.091,368.622z"/>
			<g>
				<g>
					<path style="fill:#FFFFFF;" d="M212.493,353.979l-58.765-0.956c0,0-25.696,0.346-25.696,33.544
						c0,42.996,15.066,57.679-24.945,82.224l64.573,5.314c0,0,30.552-1.924,30.52-37.745c-0.015-16.347-1.364-47.645-2.729-61.625
						C194.456,364.549,202.667,354.674,212.493,353.979z"/>
					<g>
						<path style="fill:#263238;" d="M212.493,353.979c-0.115,0.017-0.296,0.044-0.68,0.1c-0.459,0.077-1.179,0.146-2.05,0.404
							c-1.757,0.44-4.345,1.434-7.067,3.653c-1.326,1.138-2.688,2.553-3.889,4.327c-1.194,1.773-2.201,3.915-2.792,6.354
							c-0.167,0.604-0.228,1.244-0.351,1.881c-0.097,0.642-0.098,1.305-0.154,1.974c-0.005,0.67,0.051,1.352,0.074,2.044
							c0.064,0.696,0.13,1.403,0.196,2.121c0.254,2.872,0.487,5.919,0.697,9.132c0.829,12.853,1.583,28.348,1.88,45.902
							c0.07,4.378,0.103,8.939-0.676,13.537c-0.428,2.286-0.93,4.6-1.756,6.845c-0.788,2.253-1.785,4.474-3.081,6.553
							c-2.539,4.185-6.152,7.853-10.515,10.513c-2.174,1.339-4.518,2.448-6.978,3.294c-2.46,0.849-5.013,1.485-7.676,1.74
							l-0.015,0.001l-0.021-0.002c-18.519-1.52-38.609-3.17-59.426-4.879c-1.764-0.145-3.522-0.29-5.148-0.424l-0.778-0.064
							l0.663-0.417c2.924-1.84,5.825-3.684,8.556-5.724c2.751-2.008,5.387-4.144,7.772-6.5c2.394-2.342,4.566-4.885,6.309-7.676
							c1.749-2.785,3.038-5.819,3.821-8.954c1.58-6.301,1.224-12.78,0.727-18.987c-0.533-6.232-1.254-12.322-1.695-18.288
							c-0.462-5.964-0.693-11.794-0.598-17.465c0.004-1.421,0.15-2.825,0.25-4.22c0.183-1.387,0.33-2.77,0.621-4.119
							c0.525-2.705,1.294-5.325,2.37-7.772c2.122-4.909,5.595-9.016,9.753-11.726c2.085-1.344,4.3-2.388,6.566-3.103
							c2.267-0.697,4.558-1.2,6.848-1.187C190.157,353.546,211.084,353.952,212.493,353.979c-1.409-0.019-22.338-0.294-58.246-0.766
							c-2.22-0.009-4.5,0.493-6.728,1.186c-2.233,0.71-4.415,1.745-6.464,3.072c-4.088,2.679-7.494,6.72-9.58,11.566
							c-1.057,2.415-1.813,5.006-2.328,7.684c-0.286,1.335-0.429,2.706-0.609,4.081c-0.097,1.384-0.24,2.776-0.241,4.186
							c-0.086,5.641,0.151,11.467,0.619,17.417c0.447,5.955,1.174,12.037,1.713,18.283c0.501,6.22,0.872,12.746-0.727,19.151
							c-0.793,3.185-2.104,6.274-3.879,9.102c-1.769,2.835-3.968,5.41-6.383,7.774c-2.408,2.379-5.061,4.529-7.826,6.549
							c-2.746,2.052-5.657,3.903-8.591,5.75l-0.115-0.481c1.626,0.134,3.385,0.279,5.148,0.424
							c20.816,1.717,40.906,3.374,59.424,4.901l-0.036,0c2.577-0.244,5.126-0.872,7.546-1.707c2.428-0.833,4.741-1.925,6.885-3.242
							c4.303-2.618,7.862-6.223,10.37-10.344c1.28-2.047,2.267-4.237,3.048-6.462c0.82-2.216,1.319-4.505,1.747-6.768
							c0.779-4.555,0.755-9.072,0.692-13.457c-0.265-17.542-0.98-33.038-1.766-45.887c-0.199-3.212-0.421-6.259-0.663-9.128
							c-0.063-0.717-0.126-1.423-0.188-2.119c-0.021-0.703-0.074-1.396-0.066-2.076c0.059-0.678,0.064-1.352,0.165-2.002
							c0.127-0.646,0.193-1.293,0.364-1.905c0.611-2.468,1.641-4.628,2.858-6.412c1.224-1.785,2.608-3.203,3.954-4.341
							c2.762-2.218,5.38-3.193,7.153-3.608c0.894-0.25,1.566-0.293,2.032-0.34C212.181,354.014,212.372,353.993,212.493,353.979z"/>
					</g>
				</g>
			</g>
			<g>
				<path style="fill:#E0E0E0;" d="M74.862,453.024c0,0-1.648,19.891,23.118,21.081c24.766,1.19,69.681,0,69.681,0
					s-15.598-2.812-15.598-19.777L74.862,453.024z"/>
				<g>
					<path style="fill:#263238;" d="M74.862,453.024c-0.005-0.006,0.118-0.009,0.363-0.01c0.266,0.001,0.629,0.001,1.098,0.002
						c0.995,0.009,2.431,0.022,4.281,0.039c3.771,0.047,9.228,0.115,16.065,0.201c13.769,0.204,33.092,0.491,55.399,0.821
						l0.247,0.004l0,0.248c-0.004,4.24,1.122,8.733,3.883,12.327c2.727,3.598,6.965,6.131,11.51,7.193l1.988,0.465l-2.027,0.052
						c-0.045,0.001-0.095,0.002-0.144,0.004c-14.462,0.349-28.24,0.518-40.773,0.502c-6.266-0.014-12.221-0.062-17.794-0.193
						c-2.786-0.076-5.477-0.133-8.062-0.255c-2.581-0.1-5.078-0.211-7.431-0.597c-4.7-0.75-8.811-2.482-11.746-4.898
						c-2.967-2.398-4.666-5.333-5.595-7.809c-0.938-2.499-1.188-4.577-1.281-5.967c-0.043-0.698-0.042-1.232-0.027-1.59
						C74.829,453.209,74.862,453.024,74.862,453.024s0.004,0.181,0.006,0.54c0.002,0.357,0.019,0.888,0.079,1.581
						c0.127,1.379,0.408,3.439,1.366,5.902c0.949,2.44,2.651,5.317,5.589,7.656c2.907,2.357,6.965,4.041,11.621,4.761
						c2.33,0.37,4.802,0.47,7.388,0.559c2.582,0.111,5.272,0.158,8.055,0.225c5.569,0.112,11.521,0.144,17.785,0.145
						c12.528-0.011,26.304-0.195,40.759-0.543c0.049-0.001,0.099-0.003,0.144-0.004l-0.039,0.517
						c-2.378-0.536-4.597-1.472-6.615-2.719c-2.009-1.248-3.824-2.807-5.211-4.671c-2.842-3.703-3.988-8.327-3.976-12.642
						l0.247,0.251c-22.239-0.422-41.502-0.788-55.23-1.049c-6.86-0.146-12.335-0.263-16.118-0.343
						c-1.872-0.046-3.324-0.081-4.331-0.106c-0.481-0.015-0.853-0.027-1.126-0.035C74.999,453.038,74.862,453.024,74.862,453.024z"
						/>
				</g>
			</g>
			<g>
				<path style="fill:#263238;" d="M182.863,377.985c0,0.288-5.613,0.521-12.536,0.521c-6.925,0-12.537-0.233-12.537-0.521
					c0-0.287,5.612-0.521,12.537-0.521C177.25,377.465,182.863,377.698,182.863,377.985z"/>
			</g>
			<g>
				<path style="fill:#263238;" d="M139.511,378.065c0-0.288,1.566-0.521,3.498-0.521c1.932,0,3.498,0.233,3.498,0.521
					s-1.566,0.521-3.498,0.521C141.078,378.586,139.511,378.353,139.511,378.065z"/>
			</g>
			<g>
				<path style="fill:#263238;" d="M184.412,368.836c0,0.288-5.613,0.521-12.536,0.521c-6.925,0-12.537-0.233-12.537-0.521
					c0-0.287,5.612-0.521,12.537-0.521C178.799,368.315,184.412,368.549,184.412,368.836z"/>
			</g>
			<g>
				<path style="fill:#263238;" d="M141.061,368.916c0-0.288,1.566-0.521,3.498-0.521c1.932,0,3.498,0.233,3.498,0.521
					c0,0.288-1.566,0.521-3.498,0.521C142.627,369.437,141.061,369.203,141.061,368.916z"/>
			</g>
			<g>
				<path style="fill:#263238;" d="M189.46,360.571c0,0.288-5.613,0.521-12.536,0.521c-6.925,0-12.537-0.233-12.537-0.521
					c0-0.288,5.612-0.521,12.537-0.521C183.847,360.051,189.46,360.284,189.46,360.571z"/>
			</g>
			<g>
				<path style="fill:#263238;" d="M146.109,360.651c0-0.288,1.566-0.521,3.498-0.521c1.932,0,3.498,0.233,3.498,0.521
					c0,0.287-1.566,0.521-3.498,0.521C147.675,361.172,146.109,360.939,146.109,360.651z"/>
			</g>
			<g>
				<path style="fill:#263238;" d="M182.863,387.978c0,0.288-5.613,0.521-12.536,0.521c-6.925,0-12.537-0.233-12.537-0.521
					c0-0.288,5.612-0.521,12.537-0.521C177.25,387.457,182.863,387.69,182.863,387.978z"/>
			</g>
			<g>
				<path style="fill:#263238;" d="M139.511,388.057c0-0.288,1.566-0.521,3.498-0.521c1.932,0,3.498,0.233,3.498,0.521
					c0,0.288-1.566,0.521-3.498,0.521C141.078,388.578,139.511,388.345,139.511,388.057z"/>
			</g>
			<g>
				<path style="fill:#263238;" d="M184.128,397.776c0,0.288-5.613,0.521-12.536,0.521c-6.925,0-12.537-0.233-12.537-0.521
					c0-0.287,5.612-0.521,12.537-0.521C178.514,397.255,184.128,397.488,184.128,397.776z"/>
			</g>
			<g>
				<path style="fill:#263238;" d="M140.776,397.856c0-0.288,1.566-0.521,3.498-0.521c1.932,0,3.498,0.233,3.498,0.521
					c0,0.287-1.566,0.521-3.498,0.521C142.342,398.376,140.776,398.143,140.776,397.856z"/>
			</g>
			<g>
				<path style="fill:#263238;" d="M184.526,406.238c0,0.288-5.613,0.521-12.536,0.521c-6.925,0-12.537-0.233-12.537-0.521
					c0-0.288,5.612-0.521,12.537-0.521C178.913,405.717,184.526,405.95,184.526,406.238z"/>
			</g>
			<g>
				<path style="fill:#263238;" d="M141.175,406.318c0-0.288,1.566-0.521,3.498-0.521c1.932,0,3.498,0.233,3.498,0.521
					c0,0.288-1.566,0.521-3.498,0.521C142.741,406.838,141.175,406.605,141.175,406.318z"/>
			</g>
			<g>
				<path style="fill:#263238;" d="M184.924,414.699c0,0.288-5.613,0.521-12.536,0.521c-6.925,0-12.537-0.233-12.537-0.521
					s5.612-0.521,12.537-0.521C179.311,414.179,184.924,414.412,184.924,414.699z"/>
			</g>
			<g>
				<path style="fill:#263238;" d="M141.573,414.779c0-0.288,1.566-0.521,3.498-0.521c1.932,0,3.498,0.233,3.498,0.521
					c0,0.288-1.566,0.521-3.498,0.521C143.139,415.3,141.573,415.067,141.573,414.779z"/>
			</g>
			<g>
				<path style="fill:#263238;" d="M185.323,423.161c0,0.288-5.613,0.521-12.536,0.521c-6.925,0-12.537-0.233-12.537-0.521
					c0-0.287,5.612-0.521,12.537-0.521C179.709,422.641,185.323,422.874,185.323,423.161z"/>
			</g>
			<g>
				<path style="fill:#263238;" d="M141.971,423.241c0-0.288,1.566-0.521,3.498-0.521c1.932,0,3.498,0.233,3.498,0.521
					c0,0.287-1.566,0.521-3.498,0.521C143.537,423.762,141.971,423.529,141.971,423.241z"/>
			</g>
			<g>
				<path style="fill:#263238;" d="M185.467,431.389c0,0.288-5.613,0.521-12.536,0.521c-6.925,0-12.537-0.233-12.537-0.521
					c0-0.288,5.612-0.521,12.537-0.521C179.854,430.868,185.467,431.102,185.467,431.389z"/>
			</g>
			<g>
				<path style="fill:#263238;" d="M142.116,431.469c0-0.288,1.566-0.521,3.498-0.521c1.932,0,3.498,0.233,3.498,0.521
					c0,0.288-1.566,0.521-3.498,0.521C143.682,431.99,142.116,431.757,142.116,431.469z"/>
			</g>
			<g>
				<path style="fill:#263238;" d="M184.128,439.577c0,0.288-5.613,0.521-12.536,0.521c-6.925,0-12.537-0.233-12.537-0.521
					c0-0.287,5.612-0.521,12.537-0.521C178.514,439.056,184.128,439.29,184.128,439.577z"/>
			</g>
			<g>
				<path style="fill:#263238;" d="M140.776,439.657c0-0.288,1.566-0.521,3.498-0.521c1.932,0,3.498,0.233,3.498,0.521
					c0,0.287-1.566,0.521-3.498,0.521C142.342,440.178,140.776,439.944,140.776,439.657z"/>
			</g>
			<g>
				<path style="fill:#263238;" d="M180.912,448.271c0,0.288-5.613,0.521-12.536,0.521c-6.925,0-12.537-0.233-12.537-0.521
					c0-0.287,5.612-0.521,12.537-0.521C175.298,447.75,180.912,447.984,180.912,448.271z"/>
			</g>
			<g>
				<path style="fill:#263238;" d="M137.56,448.351c0-0.288,1.566-0.521,3.498-0.521c1.932,0,3.498,0.233,3.498,0.521
					c0,0.287-1.566,0.521-3.498,0.521C139.126,448.872,137.56,448.638,137.56,448.351z"/>
			</g>
			<g>
				<path style="fill:#263238;" d="M178.488,456.189c0,0.288-5.613,0.521-12.536,0.521c-6.925,0-12.537-0.233-12.537-0.521
					c0-0.288,5.612-0.521,12.537-0.521C172.875,455.668,178.488,455.901,178.488,456.189z"/>
			</g>
		</g>
		<g>
			<path style="fill:#FFBF9D;" d="M286.518,366.573l48.142-20.53l-0.138-25.435l34.465-5.462c0,0,1.468,48.473-4.658,56.814
				c-7.684,10.462-70.851,11.742-70.851,11.742L286.518,366.573z"/>
			<g>
				<path style="fill:#FFBF9D;" d="M334.237,346.342c5.746,0.212,11.405,2.333,15.874,5.95"/>
				<g>
					<path style="fill:#FF9A6C;" d="M350.112,352.292c-0.098,0.144-3.101-2.366-7.55-4.008c-4.434-1.687-8.345-1.769-8.325-1.942
						c0.001-0.06,0.974-0.12,2.539,0.037c1.563,0.154,3.714,0.575,5.969,1.417c2.252,0.847,4.15,1.944,5.429,2.854
						C349.457,351.561,350.151,352.246,350.112,352.292z"/>
				</g>
			</g>
			<g>
				<path style="fill:#FFBF9D;" d="M280.054,366.573c-0.693,0.231-16.391,0.693-21.239,1.154
					c-4.848,0.462-17.094,5.411-17.094,5.411l2.733,4.033c0,0-1.8,1.099-8.033,0.945c-7.158-0.177-15.699-0.231-14.775,5.31
					c0,0-4.524,1.847-0.069,5.31l4.224,1.385c0,0,0.693,3.001,8.08,4.617c0,0-2.539,1.616,5.31,3.232
					c7.849,1.616,19.392,3.925,29.088,1.385c9.696-2.539,27.472-15.826,27.472-15.826l-9.234-16.956H280.054z"/>
				<g>
					<path style="fill:#FF9A6C;" d="M260.232,374.281c0.005,0.077-0.967,0.189-2.529,0.389c-1.563,0.2-3.715,0.508-6.071,0.963
						c-2.357,0.458-4.468,0.976-5.992,1.374c-1.524,0.397-2.467,0.656-2.491,0.583c-0.021-0.064,0.882-0.447,2.388-0.937
						c1.506-0.491,3.621-1.07,5.997-1.532c2.375-0.459,4.554-0.712,6.134-0.819C259.247,374.197,260.228,374.214,260.232,374.281z"
						/>
				</g>
				<g>
					<path style="fill:#FF9A6C;" d="M256.067,383.47c0.005,0.036-0.475,0.128-1.347,0.264c-0.872,0.14-2.138,0.304-3.707,0.473
						c-3.137,0.342-7.492,0.653-12.31,0.689c-4.82,0.031-9.18-0.219-12.321-0.516c-1.571-0.148-2.84-0.294-3.713-0.421
						c-0.874-0.124-1.355-0.209-1.35-0.245c0.004-0.036,0.493-0.018,1.371,0.044c0.979,0.067,2.228,0.153,3.721,0.256
						c3.141,0.203,7.487,0.394,12.289,0.362c4.801-0.036,9.142-0.288,12.28-0.535c1.491-0.124,2.738-0.227,3.717-0.308
						C255.574,383.459,256.063,383.434,256.067,383.47z"/>
				</g>
				<g>
					<path style="fill:#FF9A6C;" d="M257.614,390.559c0.005,0.036-0.438,0.13-1.244,0.27c-0.806,0.144-1.978,0.309-3.432,0.475
						c-2.907,0.335-6.951,0.606-11.42,0.53c-4.471-0.081-8.503-0.493-11.397-0.93c-1.447-0.217-2.613-0.423-3.413-0.595
						c-0.801-0.168-1.24-0.277-1.234-0.313c0.006-0.035,0.458,0.007,1.267,0.113c0.914,0.115,2.062,0.259,3.428,0.43
						c2.896,0.341,6.91,0.693,11.358,0.774c4.446,0.075,8.47-0.136,11.376-0.376c1.371-0.124,2.523-0.227,3.441-0.31
						C257.156,390.549,257.608,390.523,257.614,390.559z"/>
				</g>
				<g>
					<path style="fill:#FF9A6C;" d="M256.074,395.392c0.004,0.036-0.309,0.107-0.881,0.205c-0.572,0.101-1.405,0.211-2.437,0.314
						c-2.065,0.208-4.938,0.339-8.106,0.185c-3.168-0.158-6.016-0.572-8.05-0.982c-1.018-0.204-1.836-0.395-2.395-0.552
						c-0.56-0.154-0.865-0.255-0.857-0.29c0.018-0.078,1.275,0.165,3.315,0.479c2.039,0.315,4.869,0.667,8.012,0.824
						c3.142,0.153,5.992,0.081,8.053-0.032C254.789,395.432,256.064,395.313,256.074,395.392z"/>
				</g>
			</g>
		</g>
	</g>
</g>
</svg>
