<?xml version="1.0" encoding="utf-8"?>
<!-- Generator: Adobe Illustrator 27.5.0, SVG Export Plug-In . SVG Version: 6.00 Build 0)  -->
<svg version="1.1" xmlns="http://www.w3.org/2000/svg" xmlns:xlink="http://www.w3.org/1999/xlink" x="0px" y="0px"
	 viewBox="0 0 500 500" style="enable-background:new 0 0 500 500;" xml:space="preserve">
<g id="Background_Simple">
	<g>
		<path style="fill:#C6FF00;" d="M165.186,59.918c0,0-75.766,38.605-113.558,98.099c-37.792,59.494-34.8,135.954,11.123,192.781
			c45.923,56.827,133.693,49.339,207.177,85.319c73.484,35.979,154.576,28.577,189.321-47.661
			c34.745-76.238-17.645-104.716-26.652-192.935C423.59,107.301,344.067-21.883,165.186,59.918z"/>
		<path style="opacity:0.7;fill:#FFFFFF;" d="M165.186,59.918c0,0-75.766,38.605-113.558,98.099
			c-37.792,59.494-34.8,135.954,11.123,192.781c45.923,56.827,133.693,49.339,207.177,85.319
			c73.484,35.979,154.576,28.577,189.321-47.661c34.745-76.238-17.645-104.716-26.652-192.935
			C423.59,107.301,344.067-21.883,165.186,59.918z"/>
	</g>
</g>
<g id="Plants">
	<g>
		<g>
			<g>
				<path style="fill:#C6FF00;" d="M388.25,405.728c0,0-42.575-74.773-32.75-93.784c9.825-19.01,34.933,15.208,34.933,15.208
					s-21.833-69.704-9.825-100.121c12.008-30.416,32.75,0,33.841,21.545c1.091,21.545-4.367,58.298-4.367,58.298
					s8.733-76.041,29.475-53.229c20.741,22.812-26.2,98.853-26.2,98.853s31.658-17.743,30.566,5.069
					c-1.092,22.812-38.208,43.09-38.208,43.09"/>
				<path style="fill:none;stroke:#263238;stroke-miterlimit:10;" d="M388.613,391.788c0,0-39.4-36.753-20.205-53.229
					c19.195-16.475,29.297,17.743,29.297,17.743s-21.215-105.19,13.133-108.992c34.348-3.802,9.092,91.249,9.092,91.249
					s29.297-40.555,27.277-7.604c-2.021,32.951-45.461,60.833-45.461,60.833"/>
			</g>
			<line style="fill:none;stroke:#263238;stroke-miterlimit:10;" x1="407.965" y1="385.098" x2="381.336" y2="356.25"/>
			<line style="fill:none;stroke:#263238;stroke-miterlimit:10;" x1="402.417" y1="387.317" x2="409.629" y2="302.993"/>
			<line style="fill:none;stroke:#263238;stroke-miterlimit:10;" x1="401.307" y1="381.215" x2="425.162" y2="349.593"/>
		</g>
		<polygon style="fill:#263238;" points="435.81,375.332 362.162,375.332 369.527,462.2 428.445,462.2 		"/>
	</g>
</g>
<g id="Piggy_Bank">
	<g>
		<g>
			<path style="fill:#C6FF00;stroke:#263238;stroke-linecap:round;stroke-linejoin:round;stroke-miterlimit:10;" d="
				M154.651,274.594c0,0-14.998-7.499-29.621-11.999c-14.623-4.499-31.871-0.375-32.246,4.499c-0.375,4.874,2.25,2.625,5.624,7.874
				c3.375,5.249,1.875,17.623,6.749,28.871s19.498,16.873,19.498,16.873L154.651,274.594z"/>
			<path style="opacity:0.3;" d="M144.902,285.468c0,0-22.497-14.248-35.62-19.123c-13.123-4.874-13.873,2.25-13.873,2.25
				s7.134,2.202,7.134,10.621c0,8.419,4.21,25.86,14.434,29.468S144.902,285.468,144.902,285.468z"/>
		</g>
		<path style="fill:#C6FF00;stroke:#263238;stroke-linecap:round;stroke-linejoin:round;stroke-miterlimit:10;" d="M311.748,285.915
			c2.399,6.314-0.425,13.244-6.306,15.478s-12.594-1.073-14.993-7.387c-2.399-6.314,0.425-13.244,6.306-15.478
			C302.637,276.293,309.349,279.601,311.748,285.915z"/>
		<g>
			<defs>
				<path id="XMLID_6_" d="M144.234,420.824l12.617,37.852c0.701,2.104,2.671,3.524,4.889,3.524h19.668
					c2.058,0,3.918-1.224,4.733-3.114l8.799-20.414"/>
			</defs>
			<use xlink:href="#XMLID_6_"  style="overflow:visible;fill:#C6FF00;"/>
			<clipPath id="XMLID_00000057863313592320781530000007510809703356878983_">
				<use xlink:href="#XMLID_6_"  style="overflow:visible;"/>
			</clipPath>
			<path style="opacity:0.3;clip-path:url(#XMLID_00000057863313592320781530000007510809703356878983_);" d="M150.557,420.824
				l10.465,37.852c0.582,2.104,2.215,3.524,4.055,3.524h16.313c1.707,0,3.25-1.224,3.925-3.114l7.298-20.414"/>
			
				<use xlink:href="#XMLID_6_"  style="overflow:visible;fill:none;stroke:#263238;stroke-linecap:round;stroke-linejoin:round;stroke-miterlimit:10;"/>
		</g>
		<path style="fill:#263238;stroke:#263238;stroke-linecap:round;stroke-linejoin:round;stroke-miterlimit:10;" d="M239.155,420.824
			l-12.617,37.852c-0.702,2.104-2.671,3.524-4.889,3.524h-19.667c-2.058,0-3.918-1.224-4.733-3.114l-8.799-20.414"/>
		<g>
			<defs>
				<path id="XMLID_5_" d="M280.937,420.824l-12.617,37.852c-0.701,2.104-2.671,3.524-4.889,3.524h-19.667
					c-2.058,0-3.918-1.224-4.733-3.114l-8.799-20.414"/>
			</defs>
			<use xlink:href="#XMLID_5_"  style="overflow:visible;fill:#C6FF00;"/>
			<clipPath id="XMLID_00000066475805178994226680000015215698170052435387_">
				<use xlink:href="#XMLID_5_"  style="overflow:visible;"/>
			</clipPath>
			<path style="opacity:0.3;clip-path:url(#XMLID_00000066475805178994226680000015215698170052435387_);" d="M272,420.824
				l-8.626,37.852c-0.48,2.104-1.826,3.524-3.343,3.524h-13.446c-1.407,0-2.679-1.224-3.236-3.114l-8.356-19.987"/>
			
				<use xlink:href="#XMLID_5_"  style="overflow:visible;fill:none;stroke:#263238;stroke-linecap:round;stroke-linejoin:round;stroke-miterlimit:10;"/>
		</g>
		<g>
			<defs>
				<ellipse id="XMLID_3_" cx="213.497" cy="347.626" rx="108.174" ry="98.097"/>
			</defs>
			<use xlink:href="#XMLID_3_"  style="overflow:visible;fill:#C6FF00;"/>
			<clipPath id="XMLID_00000172426379953068907460000005001762676585971615_">
				<use xlink:href="#XMLID_3_"  style="overflow:visible;"/>
			</clipPath>
			<path style="opacity:0.3;clip-path:url(#XMLID_00000172426379953068907460000005001762676585971615_);" d="M287.957,280.596
				c6.201,12.364,9.658,26.1,9.658,40.569c0,54.178-48.431,98.097-108.174,98.097c-23.394,0-45.053-6.736-62.749-18.183
				c18.863,25.314,50.787,41.966,87.013,41.966c57.969,0,104.962-42.615,104.962-95.184
				C318.667,321.594,306.929,297.817,287.957,280.596z"/>
			
				<use xlink:href="#XMLID_3_"  style="overflow:visible;fill:none;stroke:#263238;stroke-linecap:round;stroke-linejoin:round;stroke-miterlimit:10;"/>
		</g>
		<g>
			<path style="fill:none;stroke:#C6FF00;stroke-width:2;stroke-linecap:round;stroke-linejoin:round;stroke-miterlimit:10;" d="
				M312.569,356.428c-2.361,19.764-11.466,37.693-25.185,51.856"/>
			<path style="fill:none;stroke:#C6FF00;stroke-width:2;stroke-linecap:round;stroke-linejoin:round;stroke-miterlimit:10;" d="
				M310.779,325.961c1.571,6.511,2.398,13.274,2.398,20.213"/>
		</g>
		<path style="fill:none;stroke:#263238;stroke-width:4;stroke-linecap:round;stroke-linejoin:round;stroke-miterlimit:10;" d="
			M186.675,255.655c8.69-2.041,17.803-3.126,27.197-3.126c5.961,0,11.809,0.437,17.508,1.278"/>
		<g>
			<path style="fill:#C6FF00;stroke:#263238;stroke-linecap:round;stroke-linejoin:round;stroke-miterlimit:10;" d="
				M234.724,324.129c0,0,10.499-7.124,10.874-20.247c0.375-13.123-16.873-32.246-30.746-40.12
				c-13.873-7.874-23.997-6.374-24.372-0.75c-0.375,5.624-5.249,11.999-7.124,22.872c-1.875,10.874-2.625,26.997,11.998,32.246"/>
			<path style="opacity:0.3;" d="M212.127,319.923c0.729,0.109,1.449,0.214,2.155,0.315c9.216,1.327,12.459-4.691,12.193-13.732
				c-0.375-12.748-17.248-39.745-24.372-43.495c-7.124-3.75-9.374,1.5-9.374,1.5s0.984,0.673-2.51,12.322
				c-1.614,5.379-7.648,24.132-1.676,32.454C193.822,316.642,203.633,318.648,212.127,319.923z"/>
			<g>
				<g>
					<path style="opacity:0.3;" d="M241.977,306.945c-0.044,0-0.089-0.003-0.134-0.009c-0.547-0.073-0.932-0.577-0.858-1.124
						c0.103-0.767,0.166-1.549,0.189-2.324c0.199-6.963-5.51-17.05-14.899-26.322c-0.393-0.389-0.397-1.021-0.009-1.415
						c0.389-0.391,1.021-0.397,1.414-0.009c9.919,9.797,15.71,20.19,15.493,27.803c-0.024,0.846-0.093,1.697-0.205,2.533
						C242.899,306.58,242.47,306.945,241.977,306.945z"/>
				</g>
				<g>
					<path style="opacity:0.3;" d="M236.617,319.057c-0.221,0-0.444-0.073-0.629-0.223c-0.429-0.348-0.495-0.978-0.147-1.407
						c1.688-2.083,3-4.342,3.9-6.714c0.197-0.517,0.774-0.778,1.29-0.58c0.517,0.195,0.776,0.772,0.581,1.289
						c-0.976,2.571-2.394,5.016-4.216,7.265C237.197,318.93,236.908,319.057,236.617,319.057z"/>
				</g>
			</g>
		</g>
		<g>
			
				<ellipse transform="matrix(0.242 -0.9703 0.9703 0.242 -246.1747 403.8834)" style="opacity:0.3;" cx="135.412" cy="359.502" rx="22.122" ry="29.246"/>
			
				<ellipse transform="matrix(0.242 -0.9703 0.9703 0.242 -245.1539 400.8759)" style="fill:#C6FF00;stroke:#263238;stroke-linecap:round;stroke-linejoin:round;stroke-miterlimit:10;" cx="133.998" cy="357.345" rx="22.122" ry="29.246"/>
			<path style="fill:none;stroke:#263238;stroke-linecap:round;stroke-linejoin:round;stroke-miterlimit:10;" d="M125.18,353.795
				c0.18,2.686-0.846,4.942-2.293,5.039c-1.446,0.097-2.765-2.002-2.945-4.688c-0.18-2.686,0.846-4.942,2.293-5.039
				C123.681,349.01,125,351.109,125.18,353.795z"/>
			<path style="fill:none;stroke:#263238;stroke-linecap:round;stroke-linejoin:round;stroke-miterlimit:10;" d="M144.971,358.77
				c0.18,2.686-0.847,4.942-2.293,5.039c-1.446,0.097-2.765-2.002-2.945-4.688c-0.18-2.686,0.846-4.942,2.293-5.039
				C143.472,353.985,144.791,356.084,144.971,358.77z"/>
		</g>
		<g>
			<path style="fill:none;stroke:#263238;stroke-width:3;stroke-linecap:round;stroke-linejoin:round;stroke-miterlimit:10;" d="
				M177.71,365.719c-0.214,1.905-0.655,3.789-1.336,5.629c-5.747,15.511-26.519,22.225-47.059,15.541"/>
			
				<line style="fill:none;stroke:#263238;stroke-width:3;stroke-linecap:round;stroke-linejoin:round;stroke-miterlimit:10;" x1="174.356" y1="364.249" x2="180.73" y2="364.249"/>
		</g>
		<path style="fill:#263238;stroke:#263238;stroke-linecap:round;stroke-linejoin:round;stroke-miterlimit:10;" d="M133.783,322.726
			c-0.704,2.919-2.498,4.991-4.008,4.627c-1.51-0.364-2.164-3.025-1.46-5.944c0.703-2.919,2.498-4.991,4.008-4.627
			C133.833,317.145,134.486,319.806,133.783,322.726z"/>
		<path style="fill:#263238;stroke:#263238;stroke-linecap:round;stroke-linejoin:round;stroke-miterlimit:10;" d="M152.234,326.754
			c-0.703,2.919-2.498,4.991-4.008,4.627c-1.51-0.364-2.164-3.025-1.46-5.944c0.704-2.919,2.498-4.991,4.008-4.627
			C152.284,321.173,152.938,323.835,152.234,326.754z"/>
		<g>
			<defs>
				<path id="XMLID_4_" d="M179.764,432.946l11.007,26.102c0.805,1.91,2.676,3.151,4.749,3.151h19.972
					c2.053,0,3.91-1.218,4.727-3.101l12.04-27.728l-0.515-0.027"/>
			</defs>
			<use xlink:href="#XMLID_4_"  style="overflow:visible;fill:#C6FF00;"/>
			<clipPath id="XMLID_00000016791616218024394510000010793700063581232811_">
				<use xlink:href="#XMLID_4_"  style="overflow:visible;"/>
			</clipPath>
			<path style="opacity:0.3;clip-path:url(#XMLID_00000016791616218024394510000010793700063581232811_);" d="M203.023,429.67
				c-6.342,0-13.726,0.829-19.694-0.551l10.287,29.929c0.665,1.91,2.21,3.151,3.922,3.151h16.493c1.695,0,3.229-1.218,3.904-3.101
				l9.943-30.53l-4.041,0.551C211.159,430.497,211.492,429.67,203.023,429.67z"/>
			
				<use xlink:href="#XMLID_4_"  style="overflow:visible;fill:none;stroke:#263238;stroke-linecap:round;stroke-linejoin:round;stroke-miterlimit:10;"/>
		</g>
	</g>
</g>
<g id="Hand">
	<g>
		<g>
			<defs>
				<path id="XMLID_1_" d="M379.036,26.445l-55.307,79.686c0,0-4.73,11.28-10.552,19.649c-5.822,8.369-22.196,16.738-22.196,16.738
					s-1.455,15.646-6.186,21.104c-4.73,5.458-14.918,2.183-14.918,2.183s-4.366,4.73-9.097,6.913
					c-4.73,2.183-19.285-5.822-19.285-5.822s13.099,14.191,14.919,18.921c1.819,4.73,5.094,8.733-0.728,13.099
					c-5.822,4.366-12.371-1.819-12.371-1.819s2.911,9.46-5.458,11.28c-8.369,1.819-17.465-16.374-21.104-22.56
					c-3.639-6.186-14.191-29.473-16.01-30.565c-1.819-1.092-4.366-6.913-0.728-12.371c3.639-5.458,29.473-40.389,32.384-42.936
					c2.911-2.547,58.582-15.646,58.582-15.646l21.104-58.218"/>
			</defs>
			<use xlink:href="#XMLID_1_"  style="overflow:visible;fill:#FFFFFF;"/>
			<clipPath id="XMLID_00000142167824461213870350000015081524888217054652_">
				<use xlink:href="#XMLID_1_"  style="overflow:visible;"/>
			</clipPath>
			<path style="opacity:0.2;clip-path:url(#XMLID_00000142167824461213870350000015081524888217054652_);" d="M318,107
				c0,0-6,18-12.5,21.5s-43.5,13-58,11S225,132,225,132s-8,10.5-11.5,14s-8.5,5-8.5,5s17.4,43.713,29.914,57.24
				c0.984,0.28,1.968,0.349,2.943,0.137c8.369-1.819,5.458-11.28,5.458-11.28s6.549,6.186,12.371,1.819
				c5.822-4.366,2.547-8.369,0.728-13.099c-1.819-4.73-14.919-18.921-14.919-18.921s14.555,8.005,19.285,5.822
				c4.73-2.183,9.097-6.913,9.097-6.913s10.188,3.275,14.918-2.183c4.73-5.458,6.186-21.104,6.186-21.104
				s16.374-8.369,22.196-16.738c5.822-8.369,10.552-19.649,10.552-19.649l22.789-32.834L318,107z"/>
			
				<use xlink:href="#XMLID_1_"  style="overflow:visible;fill:none;stroke:#263238;stroke-linecap:round;stroke-linejoin:round;stroke-miterlimit:10;"/>
		</g>
		<g>
			<polygon style="fill:#FFFFFF;stroke:#263238;stroke-linecap:round;stroke-linejoin:round;stroke-miterlimit:10;" points="
				189.827,238.942 191.282,244.4 213.842,238.942 234.946,183.634 221.119,178.904 			"/>
			<polygon style="fill:#FFFFFF;stroke:#263238;stroke-linecap:round;stroke-linejoin:round;stroke-miterlimit:10;" points="
				196.74,165.441 228.033,177.085 212.75,246.219 176,234.939 			"/>
			<polygon style="fill:#C6FF00;stroke:#263238;stroke-linecap:round;stroke-linejoin:round;stroke-miterlimit:10;" points="
				177.233,230.807 209.839,240.397 224.03,178.904 195.463,169.722 			"/>
			<path style="fill:#FFFFFF;stroke:#263238;stroke-linecap:round;stroke-linejoin:round;stroke-miterlimit:10;" d="
				M195.333,184.932c-1.44-0.395-2.908-0.434-4.35-0.197l-8.519,28.547c1.24,1.191,2.721,2.07,4.404,2.531
				c6.686,1.833,14.002-3.594,16.339-12.122C205.545,195.163,202.019,186.764,195.333,184.932z"/>
			<path style="fill:#263238;" d="M194.12,189.662c-0.105-0.055-0.141-0.152-0.121-0.236l0.382-1.475
				c0.074-0.308-0.054-0.516-0.361-0.589l-1.594-0.381c-0.307-0.074-0.509,0.026-0.589,0.362l-0.305,1.523
				c-0.02,0.084-0.096,0.155-0.214,0.156c-0.578-0.051-1.112-0.023-1.626,0.038l-2.915,9.767c2.271,2.364,5.813,3.54,5.34,5.521
				c-0.268,1.118-1.283,2.028-3.073,1.6c-1.901-0.455-2.53-1.905-2.189-3.332l0.094-0.391c0.053-0.223-0.081-0.403-0.389-0.477
				l-0.611-0.146l-1.726,5.783c0.626,0.579,1.412,1.076,2.389,1.44c0.105,0.055,0.141,0.152,0.121,0.236l-0.363,1.273
				c-0.08,0.336,0.054,0.515,0.361,0.589l1.65,0.394c0.308,0.074,0.509-0.026,0.589-0.362l0.273-1.264
				c0.02-0.084,0.096-0.155,0.214-0.156c3.518,0.368,5.913-1.365,6.648-4.441c0.588-2.46-0.242-4.551-2.815-6.525
				c-2.354-1.775-4.832-2.663-4.397-4.48c0.301-1.258,1.445-1.842,3.011-1.468c1.958,0.468,2.475,2.01,2.121,3.493l-0.067,0.279
				c-0.04,0.168,0.101,0.32,0.409,0.393l2.936,0.702c0.307,0.073,0.516-0.054,0.589-0.362l0.221-0.923
				C198.802,193.323,197.389,190.828,194.12,189.662z"/>
		</g>
		<g>
			<defs>
				<path id="XMLID_2_" d="M222.575,129.055c0,0,4.366,6.549,5.094,12.371c0.728,5.822-1.092,10.916-3.275,14.191
					c-2.183,3.275-4.366,6.186-6.186,11.28c-1.819,5.094-2.183,12.371-4.73,16.01c-2.547,3.639-4.003,7.277-0.364,10.552
					c3.639,3.275,13.099,2.911,18.193-6.549c5.094-9.461,8.369-19.649,11.644-23.287c3.275-3.639,13.827-12.007,13.827-12.007
					s28.745-4.003,34.203-9.097c5.458-5.094,10.188-18.921,10.188-18.921"/>
			</defs>
			<use xlink:href="#XMLID_2_"  style="overflow:visible;fill:#FFFFFF;"/>
			<clipPath id="XMLID_00000134963608305544622200000003504143042932621997_">
				<use xlink:href="#XMLID_2_"  style="overflow:visible;"/>
			</clipPath>
			<path style="opacity:0.2;clip-path:url(#XMLID_00000134963608305544622200000003504143042932621997_);" d="M299,128.5
				c0,0-15.5,10-27.5,13s-19.5,3-24,9s-9,25-15,28.5s-7-9-15.5-6.5c-0.094,0.028-0.187,0.068-0.28,0.099
				c-0.827,3.905-1.557,7.901-3.242,10.307c-2.547,3.639-4.003,7.277-0.364,10.552c3.639,3.275,13.099,2.911,18.193-6.549
				c5.094-9.461,8.369-19.649,11.644-23.287c3.275-3.639,13.827-12.007,13.827-12.007s28.745-4.003,34.203-9.097
				c3.297-3.077,6.327-9.338,8.21-13.816L299,128.5z"/>
			
				<use xlink:href="#XMLID_2_"  style="overflow:visible;fill:none;stroke:#263238;stroke-linecap:round;stroke-linejoin:round;stroke-miterlimit:10;"/>
		</g>
		<path style="fill:none;stroke:#263238;stroke-linecap:round;stroke-linejoin:round;stroke-miterlimit:10;" d="M211.295,147.248
			c0,0,9.46,5.094,16.374-0.728"/>
		
			<line style="fill:none;stroke:#263238;stroke-linecap:round;stroke-linejoin:round;stroke-miterlimit:10;" x1="243.315" y1="197.097" x2="234.946" y2="181.087"/>
		<path style="fill:none;stroke:#263238;stroke-linecap:round;stroke-linejoin:round;stroke-miterlimit:10;" d="M269.877,165.805
			c0,0,6.55-5.458,6.186-17.465"/>
	</g>
</g>
<g id="Floor">
	<g>
		
			<line style="fill:none;stroke:#263238;stroke-linecap:round;stroke-linejoin:round;stroke-miterlimit:10;" x1="71" y1="462.2" x2="467" y2="462.2"/>
		
			<line style="fill:none;stroke:#263238;stroke-linecap:round;stroke-linejoin:round;stroke-miterlimit:10;" x1="36" y1="462.2" x2="54" y2="462.2"/>
	</g>
</g>
</svg>
