<svg width="750" height="500" viewBox="0 0 750 500" fill="none" xmlns="http://www.w3.org/2000/svg">
<rect width="750" height="500" fill="#F5F5F5"/>
<path d="M466.797 299.187V304.804H508.842V299.187H466.797Z" fill="#E0E0E0"/>
<path d="M472.526 299.419C472.672 299.419 472.79 300.597 472.79 302.05C472.79 303.504 472.672 304.682 472.526 304.682C472.38 304.682 472.262 303.504 472.262 302.05C472.262 300.598 472.38 299.419 472.526 299.419Z" fill="#FAFAFA"/>
<path d="M471.611 299.305C471.757 299.305 471.875 300.483 471.875 301.937C471.875 303.39 471.757 304.569 471.611 304.569C471.465 304.569 471.347 303.391 471.347 301.937C471.346 300.483 471.465 299.305 471.611 299.305Z" fill="#FAFAFA"/>
<path d="M505.592 299.419C505.738 299.419 505.856 300.597 505.856 302.05C505.856 303.504 505.738 304.682 505.592 304.682C505.446 304.682 505.328 303.504 505.328 302.05C505.328 300.598 505.446 299.419 505.592 299.419Z" fill="#FAFAFA"/>
<path d="M504.677 304.569C504.823 304.569 504.941 303.391 504.941 301.937C504.941 300.483 504.823 299.305 504.677 299.305C504.531 299.305 504.413 300.483 504.413 301.937C504.413 303.391 504.531 304.569 504.677 304.569Z" fill="#FAFAFA"/>
<path d="M499.185 302.165C499.185 302.311 494.369 302.429 488.43 302.429C482.489 302.429 477.674 302.311 477.674 302.165C477.674 302.019 482.489 301.901 488.43 301.901C494.369 301.901 499.185 302.019 499.185 302.165Z" fill="#FAFAFA"/>
<path d="M466.616 324.476V335.71H508.661V324.476H466.616Z" fill="#E0E0E0"/>
<path d="M509.2 332.55C509.204 332.558 509.127 332.603 508.972 332.681C508.818 332.761 508.583 332.869 508.271 333.001C507.646 333.256 506.702 333.618 505.421 333.817C504.161 333.997 502.469 334.047 500.795 333.161C499.974 332.722 499.192 332.055 498.598 331.17C498.017 330.287 497.643 329.134 497.833 327.934C497.933 327.337 498.183 326.748 498.606 326.261C499.017 325.773 499.676 325.414 500.379 325.456C501.083 325.487 501.719 325.892 502.161 326.417C502.606 326.944 502.911 327.619 502.975 328.333C503.141 329.757 502.541 331.234 501.525 332.314C500.525 333.433 499.03 334.115 497.484 334.289C495.929 334.474 494.32 334.227 492.793 333.707C491.267 333.181 489.76 332.325 488.695 330.953C488.173 330.271 487.795 329.425 487.74 328.527C487.662 327.632 487.948 326.671 488.635 326.003C488.977 325.671 489.455 325.447 489.95 325.426C490.446 325.402 490.925 325.564 491.325 325.813C492.136 326.317 492.655 327.178 492.872 328.08C493.267 329.917 492.54 331.831 491.214 333.029C489.884 334.239 488.142 334.776 486.48 334.956C484.807 335.124 483.123 334.999 481.573 334.473C480.029 333.959 478.639 332.943 477.84 331.571C477.027 330.23 476.76 328.533 477.372 327.108C477.66 326.402 478.31 325.776 479.087 325.657C479.845 325.515 480.62 325.725 481.205 326.168C482.392 327.109 482.59 328.724 482.207 329.953C481.818 331.217 480.968 332.185 480.088 332.938C478.291 334.456 476.163 335.112 474.322 335.178C472.462 335.244 470.898 334.731 469.754 334.14C468.601 333.541 467.843 332.86 467.372 332.374C467.14 332.126 466.971 331.931 466.869 331.79C466.764 331.652 466.713 331.578 466.721 331.573C466.774 331.5 467.563 332.799 469.847 333.956C470.981 334.506 472.512 334.974 474.31 334.882C476.09 334.791 478.137 334.128 479.846 332.654C480.686 331.923 481.476 330.989 481.818 329.837C482.162 328.724 481.939 327.282 480.943 326.518C480.457 326.151 479.788 325.979 479.175 326.101C478.551 326.205 478.057 326.679 477.8 327.295C477.27 328.543 477.502 330.089 478.259 331.321C479.002 332.581 480.276 333.511 481.738 333.996C483.199 334.488 484.823 334.607 486.426 334.442C488.017 334.267 489.65 333.749 490.861 332.641C492.057 331.569 492.709 329.808 492.358 328.201C492.167 327.414 491.716 326.678 491.047 326.264C490.391 325.829 489.533 325.842 488.997 326.388C488.454 326.912 488.191 327.726 488.263 328.493C488.311 329.274 488.636 330.019 489.11 330.641C490.074 331.894 491.505 332.727 492.957 333.229C494.426 333.735 495.965 333.973 497.427 333.805C498.887 333.643 500.253 333.026 501.185 331.996C502.133 331.001 502.68 329.652 502.539 328.379C502.437 327.143 501.494 325.939 500.358 325.862C499.798 325.825 499.262 326.1 498.898 326.519C498.528 326.936 498.295 327.465 498.201 327.995C498.018 329.079 498.343 330.148 498.879 330.985C499.427 331.824 500.161 332.471 500.936 332.9C502.505 333.766 504.154 333.759 505.391 333.612C506.652 333.449 507.598 333.123 508.231 332.901C508.865 332.672 509.191 332.53 509.2 332.55Z" fill="#FAFAFA"/>
<path d="M470.371 304.965V324.456H508.66V304.965H470.371Z" fill="#EBEBEB"/>
<path d="M476.733 305.635C476.879 305.635 476.997 309.859 476.997 315.068C476.997 320.279 476.879 324.502 476.733 324.502C476.587 324.502 476.469 320.279 476.469 315.068C476.469 309.859 476.587 305.635 476.733 305.635Z" fill="#E0E0E0"/>
<path d="M479.635 305.393C479.781 305.393 479.9 309.563 479.9 314.705C479.9 319.849 479.782 324.018 479.635 324.018C479.489 324.018 479.371 319.849 479.371 314.705C479.371 309.563 479.49 305.393 479.635 305.393Z" fill="#E0E0E0"/>
<path d="M504.333 304.767C504.479 304.767 504.597 309.158 504.597 314.573C504.597 319.99 504.479 324.38 504.333 324.38C504.187 324.38 504.069 319.99 504.069 314.573C504.068 309.158 504.187 304.767 504.333 304.767Z" fill="#E0E0E0"/>
<path d="M500.921 305.03C501.067 305.03 501.185 309.308 501.185 314.584C501.185 319.862 501.067 324.139 500.921 324.139C500.775 324.139 500.657 319.862 500.657 314.584C500.656 309.308 500.775 305.03 500.921 305.03Z" fill="#E0E0E0"/>
<path d="M500.531 83.057H242.395V254.283H500.531V83.057Z" fill="#E0E0E0"/>
<path d="M36.22 95.567C35.833 71.341 55.137 51.315 79.251 50.926C103.365 50.537 123.299 69.93 123.687 94.155C124.074 118.381 104.77 138.407 80.656 138.796C56.541 139.185 36.607 119.792 36.22 95.567ZM100.864 94.523C100.679 82.94 91.148 73.667 79.618 73.853C68.088 74.039 58.858 83.614 59.043 95.197C59.228 106.78 68.759 116.053 80.289 115.867C91.819 115.682 101.049 106.106 100.864 94.523Z" fill="#F5F5F5"/>
<path d="M36.22 95.567C35.833 71.341 55.136 51.315 79.25 50.926L79.617 73.854C68.087 74.04 58.857 83.616 59.042 95.199C59.227 106.782 68.758 116.054 80.288 115.868L80.655 138.796C56.541 139.185 36.608 119.793 36.22 95.567Z" fill="#E0E0E0"/>
<path d="M75.324 47.4C103.536 46.945 126.042 68.84 126.495 97.182L99.794 97.613C99.577 84.062 89.266 75.53 75.777 75.748L75.324 47.4Z" fill="#EBEBEB"/>
<path d="M245.453 447.973C244.329 447.009 241.821 443.955 243.755 440.402C244.464 439.1 245.969 438.455 247.332 437.882C248.695 437.308 250.127 436.809 251.255 435.85C253.382 434.041 253.969 431.035 255.38 428.621C257.001 425.85 260.026 423.774 263.222 423.919C266.882 424.085 269.934 427.075 271.318 430.483C272.702 433.891 272.75 437.676 272.779 441.356C272.795 443.391 272.705 445.685 271.21 447.06C269.832 448.327 267.758 448.343 265.891 448.285C259.224 448.08 252.557 447.875 245.891 447.671" fill="#F5F5F5"/>
<path d="M283.707 392.975H231.108L240.583 449.471C240.997 451.939 242.782 453.84 245.074 454.501C245.135 454.52 245.197 454.534 245.258 454.551C245.415 454.591 245.566 454.644 245.726 454.672C246.073 454.744 246.431 454.78 246.796 454.795C246.799 454.813 246.802 454.832 246.805 454.849L247.062 454.808C247.063 454.808 247.063 454.808 247.064 454.808H270.506C270.947 454.808 271.377 454.763 271.794 454.68C274.563 454.252 276.778 452.03 277.115 449.158L281.683 410.231L281.889 408.683H281.865L283.674 393.267L283.707 392.975ZM273.784 429.012H268.386L268.931 412.616H275.185L273.784 429.012ZM275.709 412.616H280.877L278.953 429.012H274.308L275.709 412.616ZM260.288 447.189L259.96 432.945H267.733L267.26 447.189H260.288ZM251.884 432.944H259.437L259.765 447.188H252.991L251.884 432.944ZM252.468 447.189H246.135C245.533 443.343 244.75 438.345 243.903 432.945H251.361L252.468 447.189ZM251.579 429.012L250.305 412.616H258.97L259.348 429.012H251.579ZM259.869 429.012L259.491 412.616H268.408L267.863 429.012H259.869ZM259.401 408.684L259.051 393.499H269.043L268.539 408.684H259.401ZM258.879 408.684H249.999L248.819 393.499H258.529L258.879 408.684ZM249.476 408.684H240.081C239.749 406.587 239.433 404.602 239.148 402.816C238.168 396.677 237.799 394.368 237.595 393.5H248.296L249.476 408.684ZM249.781 412.616L251.055 429.012H243.285C243.024 427.348 242.759 425.665 242.494 423.981C241.885 420.111 241.275 416.241 240.702 412.615H249.781V412.616ZM242.757 429.012H237.681L234.931 412.616H240.173C240.975 417.683 241.863 423.323 242.757 429.012ZM243.375 432.944C244.149 437.873 244.91 442.733 245.607 447.188H240.73L238.341 432.944H243.375ZM267.783 447.189L268.256 432.945H273.448L272.231 447.189H267.783ZM269.062 408.684L269.566 393.499H276.818L275.521 408.684H269.062ZM237.097 393.499C237.305 394.597 238.266 400.572 239.551 408.684H234.272L231.725 393.499H237.097ZM276.82 447.189H272.755L273.972 432.945H278.491L276.82 447.189ZM281.338 408.684H276.045L277.342 393.499H283.119L281.338 408.684Z" fill="#E0E0E0"/>
<path d="M664.334 109.744H653.008V154.987H664.334V109.744Z" fill="#E0E0E0"/>
<path d="M680.991 119.613H669.665V154.987H680.991V119.613Z" fill="#E0E0E0"/>
<path d="M697.902 127.693H686.576V154.986H697.902V127.693Z" fill="#E0E0E0"/>
<path d="M713.558 138.778H702.232V154.986H713.558V138.778Z" fill="#E0E0E0"/>
<path d="M695.334 211.246C679.627 196.661 654.91 197.498 640.237 213.111C625.564 228.724 626.406 253.292 642.113 267.877C657.821 282.462 682.537 281.625 697.21 266.012C711.883 250.399 711.042 225.831 695.334 211.246ZM682.344 252.208C675.328 259.673 663.51 260.073 656 253.099C648.49 246.126 648.087 234.379 655.103 226.914C662.119 219.449 673.937 219.049 681.447 226.023C688.957 232.996 689.36 244.743 682.344 252.208Z" fill="#F5F5F5"/>
<path d="M640.237 213.111C654.91 197.498 679.626 196.662 695.334 211.246L681.447 226.023C673.937 219.05 662.119 219.45 655.103 226.914C648.087 234.379 648.49 246.126 656 253.099L642.113 267.876C626.406 253.292 625.564 228.725 640.237 213.111Z" fill="#EBEBEB"/>
<path d="M693.742 204.914C712.984 222.781 715.287 251.825 697.313 270.951L677.793 254.042C686.387 244.896 688.254 232.687 679.055 224.143L693.742 204.914Z" fill="#FAFAFA"/>
<path d="M272.621 306.453H168.628C166.844 306.453 165.398 305.007 165.398 303.223V278.573C165.398 276.789 166.844 275.343 168.628 275.343H272.621C274.405 275.343 275.852 276.789 275.852 278.573V303.223C275.851 305.007 274.405 306.453 272.621 306.453Z" fill="#E0E0E0"/>
<path d="M188.679 296.086C186.354 298.999 182.118 299.467 179.218 297.131C176.318 294.795 175.852 290.54 178.178 287.626C180.503 284.713 184.739 284.245 187.639 286.581C190.539 288.917 191.005 293.173 188.679 296.086Z" fill="#F5F5F5"/>
<path d="M187.212 289.561C187.313 289.664 185.692 291.414 183.593 293.471C183.287 293.767 182.992 294.053 182.704 294.332L182.521 294.509L182.347 294.33C180.712 292.649 179.559 291.344 179.646 291.257C179.733 291.17 181.032 292.33 182.706 293.972L182.35 293.97C182.635 293.687 182.927 293.398 183.23 293.098C185.327 291.042 187.111 289.458 187.212 289.561Z" fill="#E0E0E0"/>
<path d="M264.978 288.517C264.978 288.661 250.153 288.777 231.869 288.777C213.579 288.777 198.757 288.66 198.757 288.517C198.757 288.374 213.579 288.257 231.869 288.257C250.153 288.257 264.978 288.374 264.978 288.517Z" fill="#FAFAFA"/>
<path d="M265.27 294.151C265.27 294.295 250.445 294.411 232.161 294.411C213.871 294.411 199.049 294.294 199.049 294.151C199.049 294.008 213.871 293.891 232.161 293.891C250.445 293.891 265.27 294.008 265.27 294.151Z" fill="#FAFAFA"/>
<path d="M614.072 298.253L612.05 455.254H702.381V300.393L614.072 298.253Z" fill="#F5F5F5"/>
<path d="M662.736 299.432L661.937 455.254H702.381V300.393L662.736 299.432Z" fill="#E0E0E0"/>
<path d="M616.912 301.079V333.191H659.699V302.596L616.912 301.079Z" fill="#E0E0E0"/>
<path d="M631.662 309.912V314.655H644.753V309.481L631.662 309.912Z" fill="#F5F5F5"/>
<path d="M645.182 318.644H631.662V320.584H645.182V318.644Z" fill="#F5F5F5"/>
<path d="M616.912 413.607V445.72H659.699V415.125L616.912 413.607Z" fill="#E0E0E0"/>
<path d="M631.662 422.441V427.185H644.753V422.011L631.662 422.441Z" fill="#F5F5F5"/>
<path d="M645.182 431.173H631.662V433.113H645.182V431.173Z" fill="#F5F5F5"/>
<path d="M616.912 337.278V369.391H659.699V338.796L616.912 337.278Z" fill="#E0E0E0"/>
<path d="M631.662 346.112V350.856H644.753V345.682L631.662 346.112Z" fill="#F5F5F5"/>
<path d="M645.182 354.845H631.662V356.785H645.182V354.845Z" fill="#F5F5F5"/>
<path d="M659.141 375.728H616.354V407.84H659.141V375.728Z" fill="#E0E0E0"/>
<path d="M631.394 390.201V394.66H643.698V389.796L631.394 390.201Z" fill="#F5F5F5"/>
<path d="M644.103 398.408H631.394V400.232H644.103V398.408Z" fill="#F5F5F5"/>
<path d="M705.776 453.893C705.776 454.037 557.671 454.153 375.016 454.153C192.298 454.153 44.224 454.036 44.224 453.893C44.224 453.75 192.298 453.633 375.016 453.633C557.671 453.632 705.776 453.749 705.776 453.893Z" fill="#263238"/>
<path d="M494.248 87.354H226.919V262.7H494.248V87.354Z" fill="#FAFAFA"/>
<path d="M494.249 262.7C494.247 261.012 494.168 194.3 494.042 87.355L494.249 87.562C420.887 87.577 327.855 87.595 226.941 87.615H226.92L227.18 87.355C227.172 149.713 227.165 209.055 227.159 262.7L226.92 262.461C384.213 262.601 492.106 262.698 494.249 262.7C492.108 262.702 384.213 262.799 226.92 262.939H226.681V262.699C226.674 209.054 226.667 149.712 226.66 87.354V87.094H226.92H226.941C327.855 87.114 420.887 87.133 494.249 87.147H494.456V87.354C494.329 194.3 494.251 261.013 494.249 262.7Z" fill="#263238"/>
<path d="M308.619 184.185L334.913 184.547C334.712 198.56 322.905 209.98 308.619 209.98C308.568 209.98 308.516 209.98 308.465 209.979L308.619 184.185Z" fill="#455A64"/>
<path d="M352.096 219.787C352.096 219.803 351.902 219.818 351.534 219.832C351.118 219.843 350.585 219.857 349.926 219.874C348.477 219.891 346.48 219.914 344.051 219.942L343.977 219.943L343.929 219.883C341.583 216.927 338.556 213.114 335.255 208.955C332.691 205.685 330.293 202.628 328.263 200.039L328.398 200.105C325.232 200.076 322.581 200.051 320.66 200.033C319.767 200.013 319.045 199.998 318.496 199.985C317.997 199.968 317.731 199.95 317.731 199.932C317.731 199.914 317.997 199.896 318.496 199.879C319.045 199.867 319.767 199.851 320.66 199.831C322.581 199.813 325.232 199.789 328.398 199.759L328.481 199.758L328.534 199.824C330.578 202.403 332.991 205.448 335.572 208.705C338.846 212.886 341.847 216.72 344.174 219.691L344.052 219.632C346.481 219.66 348.477 219.683 349.927 219.7C350.586 219.717 351.119 219.731 351.535 219.742C351.902 219.756 352.096 219.771 352.096 219.787Z" fill="#263238"/>
<path d="M361.528 222.818C361.528 222.929 357.719 223.019 353.021 223.019C348.322 223.019 344.513 222.929 344.513 222.818C344.513 222.707 348.321 222.617 353.021 222.617C357.719 222.617 361.528 222.707 361.528 222.818Z" fill="#263238"/>
<path d="M361.528 225.969C361.528 226.08 357.719 226.171 353.021 226.171C348.322 226.171 344.513 226.081 344.513 225.969C344.513 225.858 348.321 225.768 353.021 225.768C357.719 225.767 361.528 225.858 361.528 225.969Z" fill="#263238"/>
<path d="M304.46 180.443L304.091 206.236C289.806 206.039 278.164 194.457 278.164 180.443C278.164 166.292 290.035 154.648 304.461 154.648C318.887 154.648 330.758 166.292 330.758 180.443H304.46Z" fill="#E8505B"/>
<path d="M294.193 172.007C294.195 172.024 294.037 172.06 293.737 172.114C293.38 172.171 292.947 172.24 292.429 172.323C291.222 172.492 289.618 172.717 287.706 172.986L287.628 172.997L287.569 172.94C285.771 171.191 283.605 169.084 281.269 166.811C278.242 163.842 275.519 161.139 273.561 159.168C272.627 158.215 271.852 157.425 271.258 156.819C270.72 156.258 270.432 155.938 270.452 155.918C270.472 155.898 270.797 156.18 271.368 156.707C271.986 157.29 272.791 158.049 273.761 158.965C275.77 160.884 278.525 163.555 281.552 166.524C283.87 168.817 286.018 170.942 287.801 172.705L287.665 172.659C289.584 172.447 291.195 172.27 292.406 172.136C292.929 172.088 293.365 172.049 293.725 172.016C294.029 171.994 294.191 171.99 294.193 172.007Z" fill="#263238"/>
<path d="M263.791 154.782C263.791 154.893 259.982 154.983 255.284 154.983C250.585 154.983 246.776 154.893 246.776 154.782C246.776 154.671 250.584 154.581 255.284 154.581C259.982 154.58 263.791 154.671 263.791 154.782Z" fill="#263238"/>
<path d="M263.791 157.932C263.791 158.043 259.982 158.134 255.284 158.134C250.585 158.134 246.776 158.044 246.776 157.932C246.776 157.821 250.584 157.731 255.284 157.731C259.982 157.731 263.791 157.821 263.791 157.932Z" fill="#263238"/>
<path d="M396.452 129.483L396.348 113.454C391.628 113.481 386.815 115.348 383.124 118.61C378.777 122.452 375.992 128.229 376.751 135.211C376.834 135.974 376.955 136.749 377.125 137.54C377.129 137.559 377.132 137.577 377.136 137.596H377.138L396.452 133.25V129.483Z" fill="#E8505B"/>
<g opacity="0.3">
<path d="M396.452 129.483L396.348 113.454C391.628 113.481 386.815 115.348 383.124 118.61C378.777 122.452 375.992 128.229 376.751 135.211C376.834 135.974 376.955 136.749 377.125 137.54C377.129 137.559 377.132 137.577 377.136 137.596H377.138L396.452 133.25V129.483Z" fill="white"/>
</g>
<path d="M416.358 124.549C413.658 118.912 408.341 114.396 400.77 113.636C400.568 113.616 400.364 113.597 400.158 113.582C400.028 113.573 399.9 113.56 399.769 113.552C399.387 113.531 398.999 113.52 398.606 113.518C398.588 113.518 398.571 113.517 398.553 113.517H398.55C398.534 113.517 398.518 113.516 398.501 113.516V113.519L398.605 129.548L398.63 133.315L417.949 137.53L417.973 137.535C418.268 136.181 418.409 134.785 418.402 133.379C418.387 130.375 417.688 127.327 416.358 124.549Z" fill="#E8505B"/>
<g opacity="0.3">
<path d="M416.358 124.549C413.658 118.912 408.341 114.396 400.77 113.636C400.568 113.616 400.364 113.597 400.158 113.582C400.028 113.573 399.9 113.56 399.769 113.552C399.387 113.531 398.999 113.52 398.606 113.518C398.588 113.518 398.571 113.517 398.553 113.517H398.55C398.534 113.517 398.518 113.516 398.501 113.516V113.519L398.605 129.548L398.63 133.315L417.949 137.53L417.973 137.535C418.268 136.181 418.409 134.785 418.402 133.379C418.387 130.375 417.688 127.327 416.358 124.549Z" fill="black"/>
</g>
<path d="M397.487 135.251L378.173 139.597C380.155 148.44 388.046 155.049 397.487 155.049C406.974 155.049 414.898 148.375 416.831 139.467L397.512 135.252" fill="#E8505B"/>
<path d="M472.667 132.365C472.667 132.509 462.681 132.625 450.366 132.625C438.047 132.625 428.063 132.508 428.063 132.365C428.063 132.221 438.046 132.105 450.366 132.105C462.681 132.105 472.667 132.221 472.667 132.365Z" fill="#263238"/>
<path d="M472.667 127.281C472.667 127.425 462.681 127.541 450.366 127.541C438.047 127.541 428.063 127.424 428.063 127.281C428.063 127.137 438.046 127.021 450.366 127.021C462.681 127.021 472.667 127.137 472.667 127.281Z" fill="#263238"/>
<path d="M472.667 122.197C472.667 122.341 462.681 122.457 450.366 122.457C438.047 122.457 428.063 122.34 428.063 122.197C428.063 122.053 438.046 121.937 450.366 121.937C462.681 121.936 472.667 122.053 472.667 122.197Z" fill="#263238"/>
<path d="M472.667 137.095C472.667 137.239 462.681 137.355 450.366 137.355C438.047 137.355 428.063 137.238 428.063 137.095C428.063 136.951 438.046 136.835 450.366 136.835C462.681 136.835 472.667 136.951 472.667 137.095Z" fill="#263238"/>
<path d="M458.855 142.243C458.855 142.387 451.996 142.503 443.538 142.503C435.077 142.503 428.22 142.386 428.22 142.243C428.22 142.099 435.077 141.983 443.538 141.983C451.997 141.983 458.855 142.099 458.855 142.243Z" fill="#263238"/>
<path d="M385.88 179.045H381.286V230.354H385.88V179.045Z" fill="#E8505B"/>
<path d="M394.75 196.472H390.156V230.354H394.75V196.472Z" fill="#E8505B"/>
<path d="M403.62 185.423H399.026V230.615H403.62V185.423Z" fill="#E8505B"/>
<path d="M412.489 181.027H407.895V230.354H412.489V181.027Z" fill="#E8505B"/>
<path d="M421.359 197.515H416.765V230.354H421.359V197.515Z" fill="#E8505B"/>
<path d="M430.228 203.955H425.634V230.354H430.228V203.955Z" fill="#E8505B"/>
<path d="M439.098 184.311H434.504V230.353H439.098V184.311Z" fill="#E8505B"/>
<path d="M447.968 192.612H443.374V230.354H447.968V192.612Z" fill="#E8505B"/>
<path d="M456.837 185.979H452.243V230.354H456.837V185.979Z" fill="#E8505B"/>
<path d="M465.707 200.122H461.113V230.354H465.707V200.122Z" fill="#E8505B"/>
<path d="M474.577 194.37H469.983V230.354H474.577V194.37Z" fill="#E8505B"/>
<path d="M476.452 233.928C476.452 234.032 454.66 234.117 427.784 234.117C400.899 234.117 379.111 234.032 379.111 233.928C379.111 233.824 400.899 233.739 427.784 233.739C454.66 233.739 476.452 233.823 476.452 233.928Z" fill="#263238"/>
<path d="M387.84 237.966C387.84 238.07 386.314 238.155 384.431 238.155C382.548 238.155 381.021 238.07 381.021 237.966C381.021 237.862 382.547 237.777 384.431 237.777C386.313 237.777 387.84 237.862 387.84 237.966Z" fill="#263238"/>
<path d="M399.149 238.172C399.149 238.276 397.325 238.361 395.074 238.361C392.823 238.361 390.999 238.276 390.999 238.172C390.999 238.068 392.823 237.983 395.074 237.983C397.325 237.983 399.149 238.068 399.149 238.172Z" fill="#263238"/>
<path d="M408.795 238.172C408.795 238.276 406.971 238.361 404.721 238.361C402.47 238.361 400.646 238.276 400.646 238.172C400.646 238.068 402.47 237.983 404.721 237.983C406.971 237.983 408.795 238.068 408.795 238.172Z" fill="#263238"/>
<path d="M418.441 238.172C418.441 238.276 416.617 238.361 414.367 238.361C412.116 238.361 410.292 238.276 410.292 238.172C410.292 238.068 412.116 237.983 414.367 237.983C416.617 237.983 418.441 238.068 418.441 238.172Z" fill="#263238"/>
<path d="M428.087 238.172C428.087 238.276 426.263 238.361 424.013 238.361C421.762 238.361 419.938 238.276 419.938 238.172C419.938 238.068 421.762 237.983 424.013 237.983C426.263 237.983 428.087 238.068 428.087 238.172Z" fill="#263238"/>
<path d="M437.734 238.172C437.734 238.276 435.91 238.361 433.66 238.361C431.409 238.361 429.585 238.276 429.585 238.172C429.585 238.068 431.409 237.983 433.66 237.983C435.909 237.983 437.734 238.068 437.734 238.172Z" fill="#263238"/>
<path d="M447.38 238.172C447.38 238.276 445.556 238.361 443.306 238.361C441.055 238.361 439.231 238.276 439.231 238.172C439.231 238.068 441.055 237.983 443.306 237.983C445.555 237.983 447.38 238.068 447.38 238.172Z" fill="#263238"/>
<path d="M457.026 238.172C457.026 238.276 455.202 238.361 452.951 238.361C450.7 238.361 448.876 238.276 448.876 238.172C448.876 238.068 450.7 237.983 452.951 237.983C455.202 237.983 457.026 238.068 457.026 238.172Z" fill="#263238"/>
<path d="M466.672 238.172C466.672 238.276 464.848 238.361 462.597 238.361C460.346 238.361 458.522 238.276 458.522 238.172C458.522 238.068 460.346 237.983 462.597 237.983C464.848 237.983 466.672 238.068 466.672 238.172Z" fill="#263238"/>
<path d="M476.318 238.172C476.318 238.276 474.494 238.361 472.244 238.361C469.993 238.361 468.169 238.276 468.169 238.172C468.169 238.068 469.993 237.983 472.244 237.983C474.494 237.983 476.318 238.068 476.318 238.172Z" fill="#263238"/>
<g opacity="0.3">
<path d="M394.75 196.472H390.156V230.354H394.75V196.472Z" fill="white"/>
</g>
<g opacity="0.3">
<path d="M412.489 181.027H407.895V230.354H412.489V181.027Z" fill="white"/>
</g>
<g opacity="0.3">
<path d="M430.228 203.955H425.634V230.354H430.228V203.955Z" fill="white"/>
</g>
<g opacity="0.3">
<path d="M447.968 192.612H443.374V230.354H447.968V192.612Z" fill="white"/>
</g>
<g opacity="0.3">
<path d="M465.707 200.122H461.113V230.354H465.707V200.122Z" fill="white"/>
</g>
<path d="M259.399 120.312C259.399 122.754 257.419 124.734 254.977 124.734C252.535 124.734 250.555 122.754 250.555 120.312C250.555 117.87 252.535 115.89 254.977 115.89C257.419 115.89 259.399 117.869 259.399 120.312Z" fill="#E8505B"/>
<path d="M335.428 116.824C335.428 116.968 320.517 117.084 302.128 117.084C283.733 117.084 268.825 116.967 268.825 116.824C268.825 116.68 283.733 116.564 302.128 116.564C320.517 116.563 335.428 116.68 335.428 116.824Z" fill="#E8505B"/>
<path d="M295.564 122.172C295.564 122.208 295.197 122.242 294.532 122.273C293.868 122.304 292.907 122.332 291.719 122.356C289.344 122.403 286.062 122.432 282.438 122.432C278.813 122.432 275.531 122.403 273.156 122.356C271.968 122.333 271.007 122.304 270.343 122.273C269.679 122.242 269.312 122.208 269.312 122.172C269.312 122.136 269.679 122.102 270.343 122.071C271.007 122.04 271.968 122.012 273.156 121.988C275.531 121.941 278.813 121.912 282.438 121.912C286.062 121.912 289.343 121.941 291.719 121.988C292.907 122.012 293.868 122.04 294.532 122.071C295.196 122.101 295.564 122.135 295.564 122.172Z" fill="#E8505B"/>
<path d="M221.475 103.227H81.563V262.905H221.475V103.227Z" fill="#FAFAFA"/>
<path d="M221.475 262.905C221.475 262.905 221.466 262.645 221.462 262.146C221.459 261.64 221.455 260.9 221.449 259.927C221.443 257.967 221.434 255.075 221.422 251.309C221.408 243.77 221.387 232.739 221.361 218.729C221.333 190.732 221.293 150.842 221.245 103.227L221.475 103.457C180.273 103.466 132.402 103.476 81.577 103.487H81.563L81.823 103.227C81.808 162.097 81.794 216.995 81.783 262.905L81.563 262.685C123.655 262.732 158.606 262.771 183.044 262.798C195.273 262.823 204.869 262.842 211.417 262.855C214.688 262.866 217.196 262.875 218.895 262.88C220.589 262.889 221.475 262.905 221.475 262.905C221.475 262.905 220.622 262.921 218.943 262.93C217.253 262.936 214.759 262.944 211.507 262.955C204.97 262.968 195.391 262.987 183.183 263.012C158.712 263.039 123.713 263.078 81.563 263.125H81.343V262.904C81.331 216.995 81.318 162.097 81.303 103.226V102.966H81.564H81.578C132.403 102.977 180.274 102.987 221.476 102.996H221.706V103.226C221.658 150.901 221.618 190.843 221.59 218.876C221.564 232.863 221.543 243.877 221.529 251.404C221.517 255.151 221.508 258.028 221.502 259.977C221.496 260.939 221.492 261.671 221.489 262.171C221.484 262.662 221.475 262.905 221.475 262.905Z" fill="#263238"/>
<path d="M209.448 184.76C209.402 184.855 207.899 183.984 204.949 183.05C202.023 182.143 197.508 181.266 192.046 182.092C189.337 182.526 186.403 183.345 183.536 184.827C180.65 186.273 177.9 188.418 175.169 190.845C172.425 193.266 169.702 196.015 166.56 198.557C163.418 201.058 159.813 203.424 155.572 204.504C153.467 205.046 151.263 205.187 149.156 204.891C147.045 204.603 145.051 203.913 143.211 203.056C139.526 201.319 136.374 199.037 133.253 197.134C130.154 195.193 127.038 193.654 123.887 192.935C120.755 192.173 117.714 192.019 114.978 192.252C109.472 192.733 105.306 194.682 102.68 196.256C100.041 197.869 98.797 199.082 98.726 198.997C98.704 198.973 99.011 198.671 99.619 198.118C100.217 197.555 101.172 196.797 102.482 195.94C105.083 194.249 109.284 192.159 114.914 191.579C117.711 191.297 120.837 191.413 124.072 192.164C127.326 192.868 130.578 194.445 133.712 196.381C136.875 198.285 140.027 200.536 143.604 202.204C147.144 203.909 151.308 204.668 155.337 203.577C159.366 202.554 162.883 200.272 165.973 197.826C169.065 195.342 171.801 192.61 174.585 190.184C177.359 187.753 180.187 185.58 183.177 184.12C186.144 182.626 189.168 181.824 191.947 181.424C197.551 180.665 202.133 181.669 205.063 182.697C206.543 183.209 207.644 183.732 208.368 184.119C209.093 184.512 209.463 184.732 209.448 184.76Z" fill="#E8505B"/>
<path d="M131.968 206.207H120.073V238.377H131.968V206.207Z" fill="#E8505B"/>
<path d="M182.442 206.207H170.547V238.377H182.442V206.207Z" fill="#E8505B"/>
<path d="M199.267 187.315H187.372V238.377H199.267V187.315Z" fill="#E8505B"/>
<path d="M116.575 228.249H104.68V239.076H116.575V228.249Z" fill="#E8505B"/>
<path d="M148.793 220.734H136.898V238.377H148.793V220.734Z" fill="#E8505B"/>
<path d="M165.618 216.684H153.723V238.377H165.618V216.684Z" fill="#E8505B"/>
<path d="M132.447 242.168C132.447 242.432 129.57 242.646 126.021 242.646C122.471 242.646 119.594 242.432 119.594 242.168C119.594 241.904 122.471 241.69 126.021 241.69C129.57 241.69 132.447 241.904 132.447 242.168Z" fill="#263238"/>
<path d="M117.646 242.168C117.646 242.432 114.768 242.646 111.22 242.646C107.67 242.646 104.793 242.432 104.793 242.168C104.793 241.904 107.67 241.69 111.22 241.69C114.768 241.69 117.646 241.904 117.646 242.168Z" fill="#263238"/>
<path d="M201.61 242.168C201.61 242.432 198.357 242.646 194.346 242.646C190.333 242.646 187.081 242.432 187.081 242.168C187.081 241.904 190.332 241.69 194.346 241.69C198.357 241.69 201.61 241.904 201.61 242.168Z" fill="#263238"/>
<path d="M176.675 242.646C180.687 242.646 183.94 242.432 183.94 242.168C183.94 241.904 180.687 241.69 176.675 241.69C172.663 241.69 169.41 241.904 169.41 242.168C169.41 242.432 172.663 242.646 176.675 242.646Z" fill="#263238"/>
<path d="M165.617 242.168C165.617 242.432 162.739 242.647 159.191 242.647C155.642 242.647 152.765 242.433 152.765 242.168C152.765 241.904 155.642 241.69 159.191 241.69C162.739 241.69 165.617 241.904 165.617 242.168Z" fill="#263238"/>
<path d="M148.234 242.168C148.234 242.432 145.356 242.647 141.808 242.647C138.259 242.647 135.381 242.433 135.381 242.168C135.381 241.904 138.258 241.69 141.808 241.69C145.356 241.69 148.234 241.904 148.234 242.168Z" fill="#263238"/>
<path d="M201.61 126.506H104.4V166.876H201.61V126.506Z" fill="#E0E0E0"/>
<path d="M124.596 139.265C124.596 141.768 122.567 143.797 120.064 143.797C117.561 143.797 115.532 141.768 115.532 139.265C115.532 136.762 117.561 134.733 120.064 134.733C122.567 134.733 124.596 136.762 124.596 139.265Z" fill="#263238"/>
<path d="M160.704 136.135H129.128V137.888H160.704V136.135Z" fill="#263238"/>
<path d="M190.554 140.119H129.128V141.872H190.554V140.119Z" fill="white"/>
<path d="M124.596 153.197C124.596 155.7 122.567 157.729 120.064 157.729C117.561 157.729 115.532 155.7 115.532 153.197C115.532 150.694 117.561 148.665 120.064 148.665C122.567 148.665 124.596 150.694 124.596 153.197Z" fill="#E8505B"/>
<path d="M145.253 150.067H129.128V151.82H145.253V150.067Z" fill="#E8505B"/>
<path d="M190.554 154.051H129.128V155.804H190.554V154.051Z" fill="white"/>
<path d="M661.006 74.563H507.365V249.909H661.006V74.563Z" fill="#FAFAFA"/>
<path d="M661.005 249.909C661.005 249.909 660.996 249.624 660.992 249.076C660.989 248.522 660.985 247.71 660.979 246.641C660.973 244.491 660.964 241.315 660.952 237.179C660.938 228.903 660.917 216.789 660.891 201.405C660.863 170.661 660.823 126.853 660.775 74.563L661.005 74.793C615.761 74.802 563.193 74.812 507.38 74.823H507.364L507.624 74.563C507.609 139.21 507.595 199.495 507.584 249.908L507.364 249.688C553.59 249.735 591.973 249.774 618.809 249.801C632.238 249.826 642.775 249.845 649.964 249.858C653.556 249.869 656.31 249.877 658.174 249.883C660.034 249.893 661.005 249.909 661.005 249.909C661.005 249.909 660.066 249.925 658.222 249.933C656.367 249.939 653.628 249.947 650.054 249.958C642.877 249.971 632.356 249.991 618.949 250.015C592.08 250.042 553.649 250.081 507.365 250.128H507.145V249.907C507.133 199.494 507.12 139.209 507.105 74.562V74.302H507.365H507.381C563.193 74.313 615.762 74.323 661.006 74.333H661.236V74.563C661.188 126.914 661.148 170.773 661.12 201.553C661.094 216.915 661.073 229.011 661.059 237.275C661.047 241.392 661.038 244.552 661.032 246.692C661.026 247.75 661.022 248.554 661.019 249.102C661.014 249.642 661.005 249.909 661.005 249.909Z" fill="#263238"/>
<path d="M644.121 88.582H519.656V188.427H644.121V88.582Z" fill="#E0E0E0"/>
<path d="M532.44 170.676H528.355V171.853H532.44V170.676Z" fill="#263238"/>
<path d="M542.82 176.97H537.596V178.147H542.82V176.97Z" fill="#263238"/>
<path d="M561.005 176.97H555.781V178.147H561.005V176.97Z" fill="#263238"/>
<path d="M579.19 176.97H573.966V178.147H579.19V176.97Z" fill="#263238"/>
<path d="M597.375 176.97H592.151V178.147H597.375V176.97Z" fill="#263238"/>
<path d="M615.561 176.97H610.337V178.147H615.561V176.97Z" fill="#263238"/>
<path d="M633.746 176.97H628.522V178.147H633.746V176.97Z" fill="#263238"/>
<path d="M532.44 154.955H528.355V156.132H532.44V154.955Z" fill="#263238"/>
<path d="M532.44 125.366H528.355V126.543H532.44V125.366Z" fill="#263238"/>
<path d="M532.44 110.496H528.355V111.673H532.44V110.496Z" fill="#263238"/>
<path d="M532.647 140.16H528.562V141.337H532.647V140.16Z" fill="#263238"/>
<path d="M633.599 171.854C633.599 171.863 633.451 171.872 633.161 171.881C632.848 171.887 632.422 171.896 631.876 171.907C630.72 171.918 629.059 171.935 626.933 171.956C622.615 171.976 616.411 172.004 608.755 172.039C593.384 172.059 572.191 172.085 548.782 172.115C543.914 172.114 539.141 172.112 534.57 172.111H534.313V171.854C534.348 151.806 534.379 134.163 534.401 121.502C534.434 115.203 534.46 110.144 534.478 106.633C534.497 104.911 534.512 103.569 534.522 102.631C534.532 102.193 534.54 101.85 534.545 101.595C534.553 101.362 534.561 101.243 534.569 101.243C534.577 101.243 534.585 101.362 534.593 101.595C534.599 101.851 534.606 102.194 534.616 102.631C534.626 103.569 534.641 104.911 534.66 106.633C534.678 110.145 534.705 115.203 534.737 121.502C534.759 134.163 534.79 151.807 534.825 171.854L534.568 171.597C539.139 171.596 543.912 171.595 548.78 171.593C572.188 171.623 593.382 171.65 608.753 171.669C616.409 171.704 622.613 171.732 626.931 171.752C629.057 171.773 630.717 171.789 631.874 171.801C632.42 171.812 632.846 171.821 633.159 171.827C633.451 171.836 633.599 171.845 633.599 171.854Z" fill="#263238"/>
<path d="M634.75 140.749C634.75 140.893 613.207 141.009 586.638 141.009C560.06 141.009 538.521 140.892 538.521 140.749C538.521 140.605 560.06 140.489 586.638 140.489C613.207 140.488 634.75 140.605 634.75 140.749Z" fill="#263238"/>
<path d="M634.75 125.954C634.75 126.098 613.207 126.214 586.638 126.214C560.06 126.214 538.521 126.097 538.521 125.954C538.521 125.811 560.06 125.694 586.638 125.694C613.207 125.694 634.75 125.81 634.75 125.954Z" fill="#263238"/>
<path d="M634.75 111.084C634.75 111.228 613.207 111.345 586.638 111.345C560.06 111.345 538.521 111.228 538.521 111.084C538.521 110.94 560.06 110.824 586.638 110.824C613.207 110.824 634.75 110.941 634.75 111.084Z" fill="#263238"/>
<path d="M634.75 155.544C634.75 155.688 613.207 155.804 586.638 155.804C560.06 155.804 538.521 155.687 538.521 155.544C538.521 155.401 560.06 155.284 586.638 155.284C613.207 155.283 634.75 155.4 634.75 155.544Z" fill="#263238"/>
<path d="M539.513 168.67C539.513 166.193 539.513 155.543 539.513 155.543L547.694 142.842L553.246 147.102L564.641 129.401L571.362 134.134L580.712 117.805L588.309 123.994L599.705 102.332L611.977 126.543L621.912 114.429L633.6 111.085V168.671H539.513V168.67Z" fill="#455A64"/>
<path d="M634.75 106.424C634.75 106.431 634.68 106.437 634.544 106.444C634.384 106.449 634.186 106.455 633.935 106.463C633.368 106.472 632.578 106.484 631.563 106.501C629.457 106.517 626.425 106.54 622.595 106.569L622.709 106.513C620.096 109.936 616.848 114.191 613.112 119.084L613.051 119.164H612.949C605.962 119.177 597.78 119.192 588.887 119.208L589.101 119.087C585.935 124.36 582.519 130.049 578.987 135.93C575.54 141.657 572.204 147.201 569.053 152.437L568.858 152.762L568.636 152.456C563.887 145.919 559.494 139.872 555.611 134.527L555.961 134.516C551.008 142.215 546.919 148.57 544.051 153.028C542.626 155.217 541.505 156.939 540.723 158.141C540.347 158.706 540.053 159.149 539.837 159.473C539.634 159.772 539.515 159.917 539.515 159.917C539.515 159.917 539.597 159.749 539.782 159.438C539.985 159.105 540.262 158.652 540.616 158.072C541.376 156.855 542.464 155.112 543.847 152.897C546.678 148.415 550.714 142.027 555.604 134.287L555.77 134.024L555.955 134.276C559.857 139.607 564.27 145.638 569.043 152.159L568.625 152.178C571.771 146.939 575.102 141.392 578.543 135.661C582.081 129.783 585.502 124.098 588.674 118.828L588.747 118.706H588.889C597.782 118.722 605.964 118.737 612.951 118.75L612.788 118.83C616.561 113.966 619.843 109.736 622.482 106.333L622.526 106.276H622.597C626.428 106.305 629.459 106.328 631.565 106.344C632.579 106.36 633.37 106.373 633.937 106.381C634.188 106.389 634.387 106.395 634.546 106.401C634.68 106.41 634.75 106.417 634.75 106.424Z" fill="#E8505B"/>
<path d="M559.725 138.609C559.725 139.1 559.312 139.498 558.802 139.498C558.292 139.498 557.879 139.1 557.879 138.609C557.879 138.118 558.292 137.72 558.802 137.72C559.312 137.72 559.725 138.118 559.725 138.609Z" fill="#E8505B"/>
<path d="M587.479 122.834C587.479 123.325 587.066 123.723 586.556 123.723C586.046 123.723 585.633 123.325 585.633 122.834C585.633 122.343 586.046 121.945 586.556 121.945C587.066 121.945 587.479 122.343 587.479 122.834Z" fill="#E8505B"/>
<path d="M609.056 118.958C609.056 119.449 608.643 119.847 608.133 119.847C607.623 119.847 607.21 119.449 607.21 118.958C607.21 118.467 607.623 118.069 608.133 118.069C608.642 118.069 609.056 118.467 609.056 118.958Z" fill="#E8505B"/>
<path d="M638.511 203.272C638.511 203.416 612.247 203.532 579.857 203.532C547.455 203.532 521.197 203.415 521.197 203.272C521.197 203.128 547.455 203.012 579.857 203.012C612.248 203.012 638.511 203.128 638.511 203.272Z" fill="#263238"/>
<path d="M638.511 209.614C638.511 209.758 612.247 209.874 579.857 209.874C547.455 209.874 521.197 209.757 521.197 209.614C521.197 209.471 547.455 209.354 579.857 209.354C612.248 209.354 638.511 209.47 638.511 209.614Z" fill="#263238"/>
<path d="M638.511 215.956C638.511 216.1 612.247 216.216 579.857 216.216C547.455 216.216 521.197 216.099 521.197 215.956C521.197 215.813 547.455 215.696 579.857 215.696C612.248 215.696 638.511 215.813 638.511 215.956Z" fill="#263238"/>
<path d="M638.511 222.299C638.511 222.443 612.247 222.559 579.857 222.559C547.455 222.559 521.197 222.442 521.197 222.299C521.197 222.156 547.455 222.039 579.857 222.039C612.248 222.038 638.511 222.155 638.511 222.299Z" fill="#263238"/>
<path d="M455.151 332.38H395.565V335.278H455.151V332.38Z" fill="#263238"/>
<path d="M386.331 335.278L375.154 293.395H421.679L431.8 335.278H386.331Z" fill="#263238"/>
<path d="M429.012 332.108H387.449L377.774 295.33H419.552L429.012 332.108Z" fill="#F5F5F5"/>
<path d="M378.47 297.974C392.544 297.974 406.181 297.974 420.255 297.974L419.552 295.331H377.774L378.47 297.974Z" fill="#EBEBEB"/>
<path d="M382.982 296.652C382.982 296.904 383.186 297.109 383.438 297.109C383.69 297.109 383.894 296.905 383.894 296.652C383.894 296.4 383.69 296.196 383.438 296.196C383.186 296.196 382.982 296.4 382.982 296.652Z" fill="#FAFAFA"/>
<path d="M381.41 296.652C381.41 296.904 381.614 297.109 381.867 297.109C382.119 297.109 382.323 296.905 382.323 296.652C382.323 296.4 382.119 296.196 381.867 296.196C381.614 296.196 381.41 296.4 381.41 296.652Z" fill="#FAFAFA"/>
<path d="M379.838 296.652C379.838 296.904 380.042 297.109 380.294 297.109C380.546 297.109 380.75 296.905 380.75 296.652C380.75 296.4 380.546 296.196 380.294 296.196C380.042 296.196 379.838 296.4 379.838 296.652Z" fill="#FAFAFA"/>
<path d="M409.871 314.089L414.446 319.324C416.226 318.053 417.264 316.11 417.256 314.06C417.242 310.399 413.896 307.4 409.845 307.416C405.794 307.432 402.472 310.458 402.486 314.118L409.871 314.089Z" fill="#E8505B"/>
<path d="M409.29 314.927C409.309 314.885 409.777 315.359 410.595 316.236C411.412 317.112 412.58 318.392 413.978 319.956L414.136 320.133L413.94 320.28C412.086 321.672 408.998 322.261 406.226 321.037C404.906 320.481 403.813 319.55 403.052 318.485C402.298 317.406 401.919 316.179 401.875 315.049L401.866 314.816L402.095 314.815C404.285 314.804 406.098 314.813 407.353 314.833C408.609 314.854 409.309 314.884 409.29 314.927C409.271 314.97 408.535 315.023 407.276 315.082C406.016 315.141 404.233 315.206 402.102 315.262L402.322 315.028C402.386 316.075 402.753 317.2 403.462 318.195C404.179 319.176 405.2 320.04 406.434 320.559C409.025 321.703 411.92 321.185 413.686 319.92L413.648 320.244C412.323 318.692 411.23 317.385 410.467 316.454C409.703 315.524 409.271 314.97 409.29 314.927Z" fill="#263238"/>
<path d="M406.301 310.139C406.302 310.368 406.488 310.552 406.717 310.552C406.946 310.551 407.13 310.365 407.129 310.136C407.128 309.907 406.942 309.722 406.713 309.723C406.485 309.724 406.3 309.91 406.301 310.139Z" fill="#263238"/>
<path d="M398.07 307.141C398.069 306.997 400.283 306.872 403.013 306.861C403.238 306.861 403.459 306.861 403.672 306.861H403.78L403.854 306.936C405.562 308.654 406.807 310.043 406.714 310.137C406.621 310.231 405.222 308.996 403.49 307.302L403.673 307.377C403.46 307.379 403.239 307.38 403.014 307.382C400.285 307.393 398.07 307.285 398.07 307.141Z" fill="#263238"/>
<path d="M388.713 312.38C388.686 312.414 388.521 311.721 388.24 310.45C387.96 309.18 387.563 307.324 387.108 305.052L387.058 304.803L387.315 304.801C390.257 304.776 393.814 304.745 397.656 304.712C397.601 304.666 398.143 305.114 397.914 304.925V304.927L397.915 304.931L397.916 304.939L397.919 304.955L397.925 304.986L397.937 305.048L397.96 305.172L398.007 305.418L398.1 305.908C398.161 306.234 398.222 306.557 398.283 306.878C398.403 307.519 398.521 308.149 398.636 308.767C398.863 309.999 399.081 311.18 399.287 312.297L399.339 312.578L399.056 312.577C395.95 312.569 393.336 312.531 391.521 312.495C390.689 312.473 389.994 312.455 389.423 312.439C388.945 312.419 388.697 312.4 388.713 312.38C388.73 312.36 389.01 312.339 389.513 312.317C390.096 312.297 390.807 312.273 391.657 312.245C393.483 312.194 396.04 312.136 399.054 312.104L398.823 312.384C398.606 311.27 398.376 310.09 398.137 308.861C398.018 308.244 397.897 307.614 397.774 306.973C397.713 306.652 397.651 306.329 397.589 306.004L397.496 305.514L397.449 305.268L397.426 305.144L397.414 305.082L397.408 305.051L397.405 305.035L397.404 305.027L397.403 305.023V305.021C397.173 304.831 397.716 305.278 397.659 305.232C393.817 305.229 390.26 305.227 387.318 305.224L387.525 304.973C387.918 307.171 388.219 308.999 388.426 310.295C388.631 311.59 388.741 312.346 388.713 312.38Z" fill="#263238"/>
<path d="M405.686 318.466C405.687 318.695 405.873 318.879 406.102 318.879C406.331 318.878 406.515 318.692 406.515 318.463C406.514 318.234 406.328 318.05 406.099 318.05C405.87 318.051 405.685 318.237 405.686 318.466Z" fill="#263238"/>
<path d="M398.588 318.494C398.587 318.35 400.269 318.227 402.343 318.219C404.418 318.211 406.1 318.321 406.101 318.465C406.102 318.609 404.42 318.732 402.346 318.74C400.271 318.748 398.588 318.637 398.588 318.494Z" fill="#263238"/>
<path d="M388.75 321.758C388.726 321.789 388.569 321.299 388.296 320.376C388.023 319.454 387.632 318.093 387.172 316.396L387.107 316.156L387.361 316.151C390.176 316.1 393.923 316.061 398.024 316.044C397.798 315.869 398.333 316.282 398.278 316.24V316.241L398.279 316.244L398.28 316.25L398.283 316.261L398.289 316.283L398.3 316.328L398.323 316.417L398.369 316.595L398.46 316.95L398.64 317.654C398.759 318.12 398.876 318.581 398.991 319.034C399.219 319.938 399.44 320.814 399.651 321.653L399.728 321.959L399.415 321.958C396.252 321.953 393.556 321.916 391.675 321.878C390.816 321.855 390.092 321.835 389.493 321.819C388.994 321.8 388.733 321.78 388.75 321.758C388.767 321.736 389.06 321.713 389.586 321.689C390.197 321.668 390.936 321.642 391.813 321.612C393.705 321.559 396.341 321.501 399.413 321.471L399.177 321.776C398.958 320.939 398.73 320.065 398.494 319.163C398.377 318.71 398.258 318.251 398.137 317.785L397.955 317.081L397.864 316.726L397.818 316.548L397.795 316.459L397.783 316.414L397.777 316.392L397.774 316.381L397.773 316.375L397.772 316.372C397.717 316.329 398.251 316.741 398.024 316.566C393.923 316.582 390.176 316.573 387.36 316.544L387.549 316.299C387.944 317.935 388.248 319.279 388.455 320.23C388.664 321.178 388.774 321.727 388.75 321.758Z" fill="#263238"/>
<path d="M389.533 307.27C389.532 307.126 391.116 307.003 393.069 306.996C395.023 306.988 396.607 307.099 396.608 307.242C396.609 307.385 395.025 307.509 393.071 307.516C391.118 307.524 389.533 307.414 389.533 307.27Z" fill="#263238"/>
<path d="M389.62 308.428C389.619 308.284 391.212 308.161 393.177 308.154C395.143 308.146 396.736 308.257 396.737 308.4C396.738 308.544 395.145 308.667 393.18 308.674C391.214 308.683 389.621 308.572 389.62 308.428Z" fill="#263238"/>
<path d="M389.831 309.545C389.83 309.401 391.368 309.278 393.264 309.271C395.161 309.263 396.699 309.374 396.699 309.518C396.7 309.662 395.163 309.784 393.266 309.792C391.37 309.799 389.832 309.688 389.831 309.545Z" fill="#263238"/>
<path d="M389.742 318.4C389.742 318.256 391.251 318.134 393.113 318.126C394.976 318.119 396.486 318.229 396.486 318.373C396.487 318.517 394.978 318.639 393.115 318.647C391.253 318.654 389.743 318.544 389.742 318.4Z" fill="#263238"/>
<path d="M390.161 319.681C390.16 319.537 391.447 319.415 393.035 319.409C394.624 319.403 395.911 319.514 395.912 319.658C395.912 319.802 394.626 319.923 393.037 319.93C391.45 319.936 390.161 319.825 390.161 319.681Z" fill="#263238"/>
<path d="M325 335.141V340.634H328.597V451.845H335.978V340.634H375.15V451.845H382.531V340.634H552.461V451.818H559.842V340.634H563.037V335.141H325Z" fill="#263238"/>
<path d="M485.037 376.58C485.037 376.691 487.186 376.782 489.836 376.782C492.487 376.782 494.636 376.692 494.636 376.58C494.636 376.469 492.488 376.378 489.836 376.378C487.186 376.378 485.037 376.469 485.037 376.58Z" fill="#263238"/>
<path d="M415.131 377.714C415.275 377.714 415.391 377.656 415.391 377.586C415.391 377.515 415.275 377.458 415.131 377.458C414.987 377.458 414.871 377.515 414.871 377.586C414.871 377.656 414.987 377.714 415.131 377.714Z" fill="#455A64"/>
<path d="M462.161 278.727L434.593 250.72L433.997 247.688C433.882 247.133 433.767 246.514 433.66 245.81C433.535 244.989 433.553 244.154 433.703 243.342C433.884 242.359 434.177 241.063 434.553 240.407C435.017 239.596 434.274 238.618 433.506 238.953C432.739 239.288 431.405 241.491 431.117 244.516C430.83 247.541 428.248 243.527 427.282 242.082C426.316 240.636 423.123 236.305 422.458 236.253C421.482 236.177 421.232 237.235 422.23 238.656C423.239 240.095 425.928 244.552 425.164 245.031C425.164 245.031 425.154 245.029 425.135 245.026C423.581 244.762 422.047 245.531 421.327 246.915C420.632 248.252 419.856 250.147 420.491 251.02C421.688 252.667 424.887 255.676 424.887 255.676L425.81 256.47C425.812 256.472 449.66 291.029 454.859 292.152C458.092 292.85 508.073 296.996 508.073 296.996L511.843 283.227L462.161 278.727Z" fill="#B78876"/>
<path d="M420.277 250.439C421.127 251.255 421.977 252.072 422.827 252.888C423.115 253.165 423.414 253.449 423.787 253.593C424.16 253.737 424.63 253.706 424.902 253.413C425.148 253.147 425.17 252.732 425.052 252.39C424.933 252.048 424.697 251.761 424.465 251.483C423.639 250.49 422.813 249.497 421.986 248.504" fill="#B78876"/>
<path d="M421.987 248.503C422.042 248.457 422.521 248.931 423.25 249.734C423.658 250.196 424.077 250.67 424.51 251.162C424.736 251.433 425.013 251.712 425.213 252.114C425.408 252.508 425.488 253.07 425.143 253.531C424.766 253.987 424.171 254 423.748 253.851C423.31 253.691 423.008 253.399 422.749 253.148C422.289 252.68 421.846 252.229 421.414 251.788C420.665 251.003 420.227 250.492 420.276 250.44C420.326 250.388 420.854 250.805 421.669 251.522C422.126 251.935 422.594 252.36 423.08 252.799C423.338 253.036 423.609 253.266 423.914 253.367C424.207 253.468 424.575 253.42 424.735 253.207C424.906 252.992 424.896 252.621 424.752 252.332C424.612 252.028 424.364 251.751 424.141 251.468C423.737 250.952 423.347 250.454 422.966 249.969C422.311 249.106 421.932 248.549 421.987 248.503Z" fill="#AA6550"/>
<path d="M422.087 248.657C422.937 249.473 423.787 250.29 424.637 251.106C424.925 251.383 425.224 251.667 425.597 251.811C425.97 251.955 426.44 251.924 426.712 251.631C426.958 251.365 426.98 250.95 426.862 250.607C426.743 250.265 426.507 249.978 426.275 249.7C425.449 248.707 424.623 247.714 423.797 246.721" fill="#B78876"/>
<path d="M423.797 246.721C423.852 246.675 424.331 247.149 425.06 247.952C425.468 248.414 425.887 248.888 426.32 249.38C426.546 249.651 426.823 249.93 427.023 250.332C427.218 250.726 427.298 251.288 426.953 251.749C426.576 252.204 425.981 252.218 425.558 252.069C425.12 251.909 424.818 251.617 424.559 251.366C424.099 250.898 423.656 250.447 423.224 250.006C422.475 249.221 422.037 248.71 422.087 248.658C422.137 248.606 422.665 249.024 423.48 249.74C423.937 250.153 424.405 250.578 424.891 251.017C425.149 251.253 425.42 251.484 425.725 251.585C426.018 251.686 426.386 251.638 426.546 251.425C426.717 251.21 426.707 250.839 426.563 250.55C426.422 250.246 426.175 249.969 425.952 249.686C425.548 249.17 425.158 248.672 424.778 248.187C424.12 247.323 423.742 246.767 423.797 246.721Z" fill="#AA6550"/>
<path d="M424.073 247.195C424.923 248.012 425.773 248.828 426.623 249.644C426.911 249.921 427.21 250.205 427.583 250.349C427.956 250.493 428.426 250.462 428.698 250.169C428.944 249.903 428.966 249.488 428.848 249.145C428.729 248.803 428.493 248.516 428.261 248.238C427.435 247.245 426.609 246.252 425.783 245.259" fill="#B78876"/>
<path d="M425.783 245.259C425.838 245.213 426.317 245.687 427.046 246.49C427.454 246.952 427.873 247.426 428.306 247.918C428.532 248.189 428.809 248.468 429.009 248.87C429.204 249.264 429.284 249.826 428.939 250.287C428.562 250.743 427.967 250.756 427.544 250.607C427.106 250.447 426.804 250.155 426.545 249.904C426.085 249.436 425.642 248.984 425.209 248.544C424.46 247.759 424.022 247.248 424.072 247.196C424.122 247.144 424.65 247.562 425.464 248.278C425.921 248.691 426.389 249.116 426.875 249.555C427.133 249.791 427.404 250.022 427.709 250.123C428.002 250.224 428.37 250.176 428.53 249.963C428.701 249.748 428.691 249.377 428.547 249.088C428.407 248.784 428.159 248.507 427.936 248.224C427.532 247.708 427.142 247.21 426.761 246.725C426.106 245.862 425.728 245.305 425.783 245.259Z" fill="#AA6550"/>
<path d="M428.104 251.433C428.097 251.351 428.736 251.223 429.658 251.506L429.364 251.757C429.244 251.266 429.188 250.647 429.299 250.005C429.444 249.084 429.868 248.329 430.254 247.873C430.647 247.414 430.979 247.233 431.02 247.282C431.13 247.381 430.068 248.405 429.813 250.087C429.713 250.664 429.736 251.214 429.798 251.668L429.852 252.068L429.504 251.92C428.706 251.581 428.1 251.535 428.104 251.433Z" fill="#AA6550"/>
<path d="M498.272 236.739L498.39 275.104L483.431 275.818L482.826 266.623C482.826 266.623 475.61 267.719 474.101 262.29C473.137 258.822 473.378 232.018 473.378 232.018L498.272 236.739Z" fill="#B78876"/>
<path d="M469.66 235.801C470.768 238.093 476.048 242.288 476.048 242.288L478.433 248.679C480.505 247.057 483.286 247.15 483.813 250.79C484.194 253.421 480.923 253.952 480.923 253.952C482.827 257.192 484.118 259.813 486.89 262.895C489.89 266.23 491.571 266.567 494.825 266.621H498.413C498.413 266.621 505.755 260.486 504.304 244.326C502.853 228.167 488.325 232.881 484.858 228.844C479.211 222.269 465.96 228.148 469.66 235.801Z" fill="#263238"/>
<path d="M503.488 257.838C503.488 257.838 502.849 257.967 501.712 257.757C500.585 257.555 498.98 256.914 497.426 255.551C495.854 254.202 494.473 252.142 493.094 249.821C491.696 247.537 490.169 244.873 487.597 243.097C484.995 241.357 481.936 241.002 479.309 240.464C476.657 239.966 474.253 239.208 472.617 237.917C470.977 236.642 470.173 235.063 469.936 233.945C469.691 232.809 469.863 232.171 469.863 232.171C469.901 232.169 469.748 232.814 470.015 233.926C470.273 235.021 471.084 236.562 472.707 237.8C474.325 239.053 476.7 239.789 479.346 240.275C481.966 240.803 485.052 241.147 487.714 242.924C490.34 244.739 491.869 247.434 493.259 249.721C494.629 252.046 495.985 254.093 497.524 255.439C499.047 256.799 500.62 257.451 501.729 257.676C502.286 257.8 502.73 257.814 503.03 257.831C503.329 257.829 503.488 257.838 503.488 257.838Z" fill="#455A64"/>
<path d="M504.336 244.695C504.336 244.695 504.068 244.617 503.563 244.461C503.057 244.312 502.309 244.066 501.312 243.96C500.335 243.859 499.021 243.918 497.847 244.735C497.277 245.137 496.772 245.766 496.642 246.554C496.507 247.321 496.69 248.251 497.34 248.843C497.659 249.136 498.099 249.301 498.549 249.323C499.004 249.343 499.465 249.192 499.881 248.959C500.71 248.475 501.381 247.645 501.69 246.65C502.363 244.691 501.89 242.135 500.091 240.579C499.22 239.8 498.082 239.264 496.864 239.14C495.639 239.01 494.384 239.281 493.146 239.628C491.906 239.976 490.637 240.385 489.298 240.553C487.964 240.733 486.588 240.74 485.217 240.563C483.85 240.374 482.507 240.053 481.281 239.473C480.074 238.901 478.95 237.946 478.588 236.633C478.231 235.354 478.568 233.908 479.503 233.009C480.446 232.092 481.916 231.978 483.017 232.49C483.572 232.743 484.056 233.174 484.32 233.716C484.6 234.251 484.668 234.865 484.596 235.437C484.441 236.587 483.756 237.598 482.845 238.179C481.933 238.767 480.877 238.983 479.89 239.001C478.895 239.023 477.95 238.839 477.087 238.569C475.351 238.026 473.974 237.046 472.969 236.03C471.949 235.014 471.294 233.941 470.866 233.029C470.426 232.117 470.253 231.345 470.121 230.832C470.032 230.308 469.996 230.033 469.996 230.033C469.996 230.033 470.06 230.304 470.162 230.823C470.306 231.33 470.49 232.094 470.939 232.994C471.375 233.893 472.034 234.95 473.051 235.947C474.053 236.945 475.42 237.903 477.131 238.428C477.982 238.69 478.913 238.866 479.886 238.84C480.852 238.818 481.876 238.602 482.751 238.033C483.619 237.478 484.271 236.504 484.414 235.413C484.587 234.326 484.023 233.121 482.937 232.664C481.9 232.183 480.511 232.297 479.641 233.152C478.767 233.991 478.445 235.369 478.785 236.577C479.125 237.809 480.193 238.728 481.372 239.285C482.566 239.85 483.897 240.17 485.244 240.356C486.596 240.53 487.955 240.523 489.271 240.347C490.591 240.183 491.843 239.781 493.093 239.431C494.337 239.084 495.619 238.806 496.886 238.941C498.149 239.071 499.323 239.628 500.221 240.434C502.078 242.048 502.558 244.687 501.856 246.703C501.533 247.73 500.833 248.596 499.963 249.097C499.526 249.34 499.036 249.498 498.546 249.476C498.06 249.451 497.587 249.27 497.244 248.952C496.548 248.307 496.37 247.333 496.514 246.53C496.656 245.702 497.192 245.048 497.782 244.639C498.998 243.807 500.338 243.765 501.323 243.878C502.33 243.998 503.076 244.257 503.579 244.419C504.077 244.59 504.336 244.695 504.336 244.695Z" fill="#455A64"/>
<path d="M485.322 442.478L480.433 436.205L492.126 426.971L499.377 436.073L498.689 436.692C495.604 439.419 482.811 450.341 480.138 451.391C477.154 452.561 485.322 442.478 485.322 442.478Z" fill="#E8505B"/>
<g opacity="0.4">
<path d="M481.468 447.578C481.468 447.578 478.779 451.332 479.667 451.563C480.554 451.793 493.898 441.243 499.376 436.074L499.151 435.828L483.692 448.267C483.692 448.267 482.171 447.069 481.468 447.578Z" fill="white"/>
</g>
<path d="M499.328 435.675C499.332 435.68 499.269 435.742 499.144 435.856C498.979 436.003 498.798 436.165 498.594 436.347C498.037 436.828 497.351 437.42 496.542 438.118C494.799 439.601 492.364 441.618 489.626 443.787C486.887 445.955 484.366 447.864 482.523 449.221C481.658 449.848 480.925 450.38 480.329 450.812C480.105 450.969 479.906 451.108 479.725 451.234C479.586 451.329 479.511 451.376 479.507 451.371C479.503 451.366 479.571 451.309 479.703 451.204C479.878 451.069 480.07 450.921 480.287 450.754C480.874 450.309 481.595 449.762 482.446 449.117C484.269 447.735 486.777 445.811 489.514 443.644C492.25 441.477 494.696 439.476 496.46 438.019C497.283 437.338 497.981 436.762 498.548 436.292C498.76 436.119 498.948 435.966 499.12 435.827C499.253 435.723 499.324 435.67 499.328 435.675Z" fill="#263238"/>
<path d="M483.838 448.446C483.799 448.485 483.365 448.005 482.64 447.746C481.919 447.474 481.277 447.561 481.273 447.505C481.254 447.463 481.929 447.287 482.702 447.576C483.478 447.856 483.879 448.426 483.838 448.446Z" fill="#263238"/>
<path d="M485.903 443.969C485.887 444.016 485.563 443.946 485.18 443.812C484.797 443.678 484.5 443.532 484.517 443.485C484.533 443.438 484.857 443.508 485.24 443.642C485.622 443.776 485.919 443.922 485.903 443.969Z" fill="#263238"/>
<path d="M486.453 442.721C486.45 442.771 486.168 442.794 485.824 442.772C485.48 442.75 485.203 442.692 485.206 442.643C485.209 442.593 485.491 442.57 485.835 442.592C486.18 442.613 486.456 442.671 486.453 442.721Z" fill="#263238"/>
<path d="M486.179 441.145C486.21 441.184 485.965 441.434 485.631 441.705C485.297 441.975 485 442.163 484.969 442.124C484.938 442.085 485.183 441.835 485.517 441.564C485.852 441.294 486.148 441.106 486.179 441.145Z" fill="#263238"/>
<path d="M485.77 440.205C485.811 440.229 485.619 440.599 485.246 440.941C484.874 441.285 484.49 441.445 484.469 441.403C484.444 441.358 484.771 441.136 485.123 440.808C485.478 440.483 485.726 440.175 485.77 440.205Z" fill="#263238"/>
<path d="M484.7 443.263C484.713 443.278 484.453 443.541 483.945 443.852C483.692 444.007 483.375 444.169 483.006 444.308C482.818 444.372 482.634 444.454 482.399 444.481C482.285 444.49 482.148 444.486 482.029 444.395C481.909 444.307 481.869 444.133 481.905 444.005C482.329 443.065 483.367 442.901 483.927 443.061C484.224 443.134 484.436 443.266 484.568 443.368C484.7 443.473 484.755 443.548 484.748 443.556C484.729 443.587 484.463 443.301 483.899 443.186C483.622 443.131 483.274 443.138 482.928 443.276C482.601 443.407 482.207 443.684 482.081 444.045C482.032 444.227 482.189 444.331 482.384 444.305C482.571 444.287 482.769 444.209 482.949 444.151C483.311 444.024 483.625 443.879 483.882 443.741C484.395 443.466 484.682 443.24 484.7 443.263Z" fill="#263238"/>
<path d="M484.535 443.454C484.531 443.471 484.268 443.366 484.036 443.001C483.923 442.821 483.829 442.576 483.807 442.29C483.808 442.019 483.797 441.654 484.13 441.413C484.322 441.298 484.563 441.429 484.636 441.577C484.726 441.719 484.757 441.879 484.774 442.013C484.811 442.289 484.804 442.54 484.779 442.748C484.725 443.164 484.609 443.399 484.589 443.392C484.562 443.384 484.632 443.139 484.651 442.737C484.66 442.537 484.653 442.297 484.609 442.038C484.587 441.798 484.432 441.457 484.217 441.572C484.015 441.702 483.971 442.041 483.974 442.282C483.984 442.538 484.057 442.765 484.148 442.938C484.331 443.29 484.555 443.429 484.535 443.454Z" fill="#263238"/>
<path d="M496.561 432.666C496.579 432.694 496.201 432.899 495.722 433.379C495.245 433.851 494.687 434.641 494.452 435.645C494.219 436.65 494.37 437.605 494.59 438.239C494.808 438.881 495.057 439.231 495.028 439.249C495.019 439.255 494.948 439.175 494.841 439.013C494.733 438.852 494.597 438.605 494.47 438.282C494.213 437.642 494.033 436.651 494.276 435.603C494.521 434.556 495.12 433.746 495.633 433.286C495.89 433.052 496.121 432.891 496.289 432.794C496.457 432.697 496.556 432.656 496.561 432.666Z" fill="#263238"/>
<path d="M491.504 428.76C491.543 428.729 492.438 429.767 493.503 431.08C494.569 432.393 495.401 433.483 495.362 433.514C495.323 433.545 494.428 432.507 493.362 431.193C492.298 429.881 491.466 428.791 491.504 428.76Z" fill="#263238"/>
<path d="M492.692 439.353C492.726 439.386 492.063 440.113 491.12 440.871C490.178 441.632 489.327 442.126 489.302 442.085C489.273 442.041 490.073 441.484 491.006 440.73C491.941 439.98 492.655 439.316 492.692 439.353Z" fill="#263238"/>
<path d="M494.98 437.538C495.031 437.544 495.045 437.749 495.106 437.986C495.163 438.224 495.247 438.412 495.204 438.441C495.166 438.471 494.998 438.304 494.93 438.03C494.861 437.756 494.932 437.53 494.98 437.538Z" fill="#263238"/>
<path d="M494.993 435.782C495.043 435.787 495.063 435.969 495.039 436.187C495.015 436.405 494.955 436.578 494.906 436.572C494.857 436.567 494.836 436.385 494.86 436.167C494.884 435.949 494.944 435.776 494.993 435.782Z" fill="#263238"/>
<path d="M495.84 434.314C495.863 434.36 495.707 434.482 495.583 434.678C495.455 434.871 495.408 435.063 495.356 435.061C495.308 435.065 495.275 434.82 495.432 434.58C495.587 434.338 495.824 434.269 495.84 434.314Z" fill="#263238"/>
<path d="M496.537 433.387C496.58 433.412 496.56 433.525 496.493 433.64C496.426 433.754 496.336 433.826 496.293 433.801C496.25 433.776 496.27 433.663 496.337 433.548C496.404 433.434 496.494 433.362 496.537 433.387Z" fill="#263238"/>
<g opacity="0.3">
<path d="M496.298 432.365L484.469 441.402L483.375 439.981L495.806 431.552L496.298 432.365Z" fill="black"/>
</g>
<path d="M431.552 448.777L431.574 440.823L446.473 440.768L446.564 452.405L445.64 452.468C441.53 452.711 424.723 453.415 421.972 452.592C418.904 451.674 431.552 448.777 431.552 448.777Z" fill="#E8505B"/>
<g opacity="0.4">
<path d="M425.373 450.413C425.373 450.413 420.941 451.709 421.497 452.438C422.053 453.167 439.064 453.094 446.564 452.406L446.539 452.073L426.698 452.327C426.698 452.327 426.241 450.446 425.373 450.413Z" fill="white"/>
</g>
<path d="M446.773 452.063C446.773 452.069 446.685 452.079 446.517 452.092C446.296 452.106 446.054 452.122 445.781 452.139C445.045 452.174 444.141 452.217 443.074 452.267C440.787 452.359 437.626 452.444 434.134 452.462C430.641 452.479 427.479 452.425 425.191 452.356C424.123 452.316 423.218 452.282 422.483 452.255C422.21 452.24 421.968 452.227 421.747 452.215C421.579 452.204 421.491 452.195 421.491 452.189C421.491 452.183 421.58 452.18 421.748 452.179C421.969 452.181 422.211 452.183 422.485 452.185C423.221 452.197 424.126 452.211 425.194 452.228C427.482 452.264 430.642 452.297 434.133 452.281C437.623 452.263 440.783 452.198 443.07 452.139C444.138 452.111 445.043 452.087 445.779 452.068C446.052 452.063 446.295 452.058 446.516 452.054C446.684 452.054 446.773 452.056 446.773 452.063Z" fill="#263238"/>
<path d="M426.703 452.558C426.648 452.565 426.603 451.919 426.192 451.268C425.792 450.61 425.234 450.281 425.264 450.235C425.275 450.19 425.914 450.468 426.345 451.173C426.784 451.872 426.748 452.569 426.703 452.558Z" fill="#263238"/>
<path d="M431.09 450.309C431.048 450.336 430.837 450.081 430.618 449.739C430.399 449.398 430.256 449.099 430.298 449.072C430.34 449.045 430.551 449.3 430.77 449.641C430.988 449.983 431.132 450.282 431.09 450.309Z" fill="#263238"/>
<path d="M432.293 449.666C432.26 449.703 432.024 449.547 431.766 449.318C431.508 449.089 431.326 448.872 431.359 448.835C431.392 448.798 431.628 448.953 431.886 449.183C432.144 449.412 432.326 449.629 432.293 449.666Z" fill="#263238"/>
<path d="M433.05 448.256C433.051 448.306 432.703 448.352 432.273 448.359C431.843 448.366 431.494 448.33 431.493 448.281C431.492 448.231 431.84 448.186 432.27 448.179C432.7 448.172 433.049 448.207 433.05 448.256Z" fill="#263238"/>
<path d="M433.308 447.264C433.325 447.308 432.947 447.481 432.442 447.52C431.937 447.562 431.536 447.451 431.546 447.404C431.554 447.353 431.948 447.38 432.428 447.34C432.907 447.303 433.292 447.214 433.308 447.264Z" fill="#263238"/>
<path d="M430.579 449.011C430.58 449.031 430.213 449.078 429.621 449.009C429.326 448.975 428.977 448.906 428.601 448.789C428.414 448.723 428.219 448.674 428.016 448.551C427.921 448.488 427.815 448.4 427.778 448.255C427.738 448.112 427.814 447.95 427.921 447.872C428.834 447.394 429.753 447.905 430.094 448.376C430.282 448.617 430.369 448.852 430.409 449.013C430.448 449.177 430.445 449.27 430.435 449.272C430.401 449.284 430.369 448.895 429.995 448.457C429.811 448.242 429.533 448.034 429.175 447.929C428.837 447.83 428.355 447.805 428.034 448.012C427.882 448.125 427.943 448.304 428.112 448.404C428.27 448.505 428.474 448.566 428.651 448.631C429.014 448.754 429.352 448.834 429.638 448.884C430.214 448.983 430.579 448.982 430.579 449.011Z" fill="#263238"/>
<path d="M430.331 449.06C430.317 449.07 430.175 448.827 430.218 448.396C430.24 448.185 430.317 447.933 430.476 447.695C430.644 447.482 430.86 447.188 431.271 447.204C431.493 447.231 431.602 447.484 431.568 447.645C431.551 447.813 431.476 447.957 431.407 448.073C431.266 448.313 431.106 448.507 430.957 448.654C430.658 448.949 430.421 449.062 430.411 449.044C430.394 449.021 430.601 448.872 430.864 448.567C430.995 448.415 431.136 448.222 431.262 447.991C431.393 447.788 431.481 447.424 431.241 447.382C431.001 447.36 430.758 447.599 430.612 447.791C430.462 447.999 430.38 448.222 430.344 448.415C430.273 448.804 430.363 449.053 430.331 449.06Z" fill="#263238"/>
<path d="M446.452 447.987C446.449 448.021 446.025 447.948 445.352 448.03C444.685 448.107 443.759 448.385 442.955 449.03C442.152 449.677 441.682 450.522 441.463 451.157C441.238 451.797 441.218 452.226 441.184 452.222C441.173 452.221 441.167 452.114 441.182 451.922C441.197 451.729 441.241 451.451 441.341 451.118C441.533 450.456 442.003 449.565 442.841 448.89C443.679 448.217 444.651 447.95 445.339 447.904C445.685 447.878 445.967 447.894 446.158 447.921C446.35 447.948 446.453 447.977 446.452 447.987Z" fill="#263238"/>
<path d="M444.881 441.794C444.931 441.793 444.994 443.163 445.023 444.853C445.052 446.544 445.035 447.915 444.985 447.916C444.935 447.917 444.872 446.547 444.843 444.856C444.814 443.166 444.831 441.795 444.881 441.794Z" fill="#263238"/>
<path d="M439.281 450.864C439.288 450.911 438.317 451.074 437.107 451.089C435.896 451.107 434.922 450.971 434.927 450.924C434.932 450.872 435.905 450.927 437.104 450.909C438.304 450.894 439.275 450.812 439.281 450.864Z" fill="#263238"/>
<path d="M442.201 450.847C442.237 450.883 442.122 451.054 442.024 451.277C441.922 451.5 441.872 451.699 441.821 451.696C441.773 451.696 441.743 451.461 441.859 451.204C441.974 450.945 442.169 450.811 442.201 450.847Z" fill="#263238"/>
<path d="M443.296 449.473C443.332 449.508 443.236 449.663 443.083 449.82C442.93 449.977 442.776 450.076 442.741 450.041C442.705 450.006 442.801 449.851 442.954 449.694C443.107 449.537 443.26 449.438 443.296 449.473Z" fill="#263238"/>
<path d="M444.867 448.84C444.857 448.891 444.659 448.89 444.44 448.968C444.22 449.041 444.064 449.163 444.025 449.129C443.985 449.102 444.109 448.889 444.381 448.797C444.653 448.703 444.882 448.794 444.867 448.84Z" fill="#263238"/>
<path d="M445.987 448.54C446.005 448.586 445.92 448.663 445.797 448.712C445.674 448.761 445.559 448.762 445.54 448.716C445.522 448.67 445.607 448.593 445.73 448.544C445.854 448.495 445.969 448.494 445.987 448.54Z" fill="#263238"/>
<g opacity="0.3">
<path d="M446.564 447.389L431.545 447.404L431.561 445.61L446.51 445.512L446.564 447.389Z" fill="black"/>
</g>
<path d="M468.329 311.494L462.363 329.459C460.752 334.311 456.513 335.141 451.4 335.141H418.214V327.696L448.533 323.367L455.758 304.909L468.329 311.494Z" fill="#B78876"/>
<path d="M414.566 326.149L411.933 324.903C411.933 324.903 409.096 319.417 408.442 319.637C407.788 319.857 407.6 321.471 408.74 323.991L405.241 322.992C405.241 322.992 397.657 326.496 397.992 326.968C398.327 327.44 398.949 328.558 400.6 327.713C402.252 326.868 404.416 325.877 404.416 325.877L408.503 327.044L403.234 327.713L398.278 332.222C398.278 332.222 399.905 333.439 401.309 332.147L414.181 334.912L418.213 335.14V327.695L414.566 326.149Z" fill="#B78876"/>
<path d="M401.311 332.147C401.366 332.183 401.605 331.802 402.069 331.297C402.303 331.049 402.617 330.79 403.006 330.573C403.381 330.364 403.867 330.273 404.396 330.21C406.541 329.956 408.272 329.661 408.259 329.551C408.245 329.441 406.496 329.556 404.346 329.81C403.807 329.875 403.259 329.982 402.82 330.252C402.401 330.51 402.077 330.82 401.853 331.112C401.414 331.702 401.272 332.124 401.311 332.147Z" fill="#AA6550"/>
<path d="M403.324 332.664C403.373 332.664 403.413 332.398 403.774 332.321C404.142 332.254 404.728 332.184 405.338 332.122C406.574 331.997 407.591 332.006 407.601 331.892C407.614 331.785 406.58 331.592 405.299 331.721C404.655 331.79 404.107 331.894 403.679 332.053C403.458 332.144 403.316 332.324 403.288 332.458C403.254 332.596 403.3 332.668 403.324 332.664Z" fill="#AA6550"/>
<path d="M471.141 307.577L468.589 316.223L452.391 308.89C452.973 307.081 455.652 299.017 460.78 286.222C463.637 279.093 469.994 273.948 477.57 272.688C482.871 271.806 488.638 271.118 493.08 271.167C502.163 271.267 515.534 276.945 517.331 285.848C518.702 292.645 517.38 304.644 517.38 319.223L516.195 347.08L469.649 348.659L471.141 307.577Z" fill="#E8505B"/>
<g opacity="0.3">
<path d="M517.331 312.777C511.667 313.935 505.851 312.768 500.08 312.425C496.581 312.217 492.699 311.839 489.931 313.99C487.736 315.695 486.853 318.563 486.22 321.269C483.806 331.584 483.367 338.499 482.824 349.08L510.842 350.779L517.331 312.777Z" fill="black"/>
</g>
<path d="M469.947 277.342C469.941 277.383 470.413 277.411 471.185 277.714C471.945 278.026 472.99 278.689 473.866 279.884C474.755 281.065 475.353 282.776 475.468 284.734C475.604 286.691 475.314 288.86 474.979 291.115C474.26 295.628 473.162 299.631 472.378 302.525C471.995 303.922 471.677 305.077 471.437 305.953C471.22 306.764 471.112 307.216 471.138 307.224C471.165 307.232 471.323 306.795 471.587 305.998C471.85 305.2 472.219 304.042 472.651 302.604C473.506 299.727 474.652 295.722 475.376 291.178C475.713 288.911 475.997 286.72 475.838 284.708C475.702 282.702 475.047 280.917 474.094 279.714C473.155 278.495 472.041 277.843 471.241 277.568C470.835 277.436 470.51 277.372 470.288 277.351C470.065 277.331 469.948 277.328 469.947 277.342Z" fill="#263238"/>
<path d="M452.897 306.683C452.872 306.731 453.74 307.238 455.179 307.992C456.618 308.746 458.631 309.738 460.89 310.757C463.15 311.776 465.227 312.628 466.744 313.207C468.261 313.787 469.216 314.101 469.235 314.051C469.256 313.997 468.338 313.589 466.851 312.943C465.364 312.297 463.31 311.406 461.055 310.39C458.801 309.373 456.774 308.424 455.305 307.737C453.837 307.05 452.923 306.632 452.897 306.683Z" fill="#263238"/>
<path d="M445.476 350.778C437.546 355.104 434.534 364.98 438.702 372.994L479.214 442.551L497.905 431.261L466.446 368.461L489.247 353.578" fill="#263238"/>
<path d="M494.803 347.329L439.19 349.298C430.162 349.618 423.05 357.102 423.19 366.134L425.499 445.564L448.888 445.512L448.108 370.412L494.803 369.184V347.329Z" fill="#263238"/>
<path d="M448.108 373.127C448.126 373.127 448.148 373.379 448.175 373.861C448.198 374.394 448.228 375.094 448.266 375.969C448.335 377.8 448.407 380.45 448.475 383.724C448.614 390.273 448.708 399.323 448.759 409.316C448.81 419.287 448.856 428.31 448.89 434.91C448.908 438.142 448.923 440.777 448.934 442.666C448.931 443.541 448.929 444.242 448.927 444.775C448.92 445.257 448.907 445.511 448.889 445.511C448.871 445.511 448.849 445.259 448.822 444.777C448.799 444.244 448.769 443.544 448.731 442.669C448.661 440.838 448.59 438.189 448.522 434.914C448.383 428.365 448.288 419.314 448.238 409.318C448.187 399.351 448.141 390.328 448.107 383.728C448.089 380.496 448.074 377.861 448.063 375.971C448.066 375.096 448.068 374.395 448.07 373.861C448.077 373.381 448.09 373.127 448.108 373.127Z" fill="#455A64"/>
<path d="M518.895 296.922H502.07C495.297 296.922 489.806 302.413 489.806 309.186V367.887H456.19C451.5 367.887 447.698 371.689 447.698 376.379H524.451C524.451 376.363 524.45 376.347 524.45 376.331C528.181 376.172 531.158 373.106 531.158 369.336V309.186C531.158 302.412 525.668 296.922 518.895 296.922Z" fill="#455A64"/>
<path d="M494.698 298.858C494.842 298.858 494.958 316.109 494.958 337.384C494.958 358.667 494.841 375.914 494.698 375.914C494.554 375.914 494.438 358.667 494.438 337.384C494.437 316.109 494.554 298.858 494.698 298.858Z" fill="#263238"/>
<path d="M492.571 437.991V376.411H487.101V437.991C483.761 444.574 475.91 449.029 466.346 452.676H515.111C505.208 448.653 496.27 445.564 492.571 437.991Z" fill="#455A64"/>
<path d="M133.274 431.164C133.266 431.16 133.318 431.036 133.426 430.799C133.547 430.541 133.709 430.195 133.916 429.754C134.332 428.831 134.874 427.432 135.356 425.572C136.309 421.853 136.641 416.171 135.233 409.42C134.579 406.04 133.525 402.415 132.237 398.571C130.969 394.721 129.496 390.635 128.294 386.22C127.104 381.815 126.166 377.032 126.347 372.019C126.53 366.996 128.016 361.982 129.652 356.991C131.284 351.992 132.972 347.106 133.478 342.191C134.05 337.285 133 332.468 130.765 328.522C128.6 324.534 125.877 321.123 123.838 317.589C121.768 314.067 120.473 310.446 119.675 307.079C118.128 300.289 118.67 294.567 119.411 290.796C120.214 287.005 121.11 285.046 121.11 285.046C121.118 285.049 121.084 285.179 121.009 285.428C120.924 285.7 120.81 286.065 120.665 286.53C120.365 287.499 119.977 288.945 119.609 290.834C118.932 294.597 118.453 300.279 120.031 306.995C120.845 310.326 122.145 313.899 124.208 317.372C126.241 320.863 128.977 324.26 131.184 328.295C133.466 332.285 134.563 337.258 133.982 342.241C133.473 347.239 131.772 352.158 130.144 357.151C128.509 362.138 127.039 367.099 126.853 372.038C126.668 376.974 127.583 381.711 128.754 386.095C129.937 390.489 131.392 394.575 132.645 398.437C133.916 402.292 134.958 405.947 135.592 409.35C136.963 416.15 136.572 421.89 135.551 425.621C135.035 427.489 134.459 428.885 134.01 429.797C133.783 430.23 133.605 430.569 133.472 430.823C133.349 431.053 133.282 431.168 133.274 431.164Z" fill="#263238"/>
<path d="M126.605 321.075C126.605 321.075 122.466 307.84 129.891 300.09C130.152 299.818 130.61 299.947 130.678 300.317C131.074 302.503 131.57 309.16 126.605 321.075Z" fill="#E8505B"/>
<path d="M129.085 304.5C129.155 304.514 129.037 305.445 128.806 306.942C128.534 308.624 128.215 310.598 127.862 312.78C127.516 314.962 127.202 316.936 126.935 318.617C126.708 320.112 126.572 321.039 126.497 321.033C126.43 321.028 126.437 320.086 126.571 318.573C126.708 317.061 126.974 314.98 127.35 312.697C127.723 310.414 128.122 308.357 128.445 306.876C128.769 305.393 129.015 304.486 129.085 304.5Z" fill="#263238"/>
<path d="M131.467 352.29C131.467 352.29 133.998 338.656 144.185 335.278C144.543 335.16 144.888 335.488 144.774 335.847C144.103 337.965 141.427 344.081 131.467 352.29Z" fill="#E8505B"/>
<path d="M141.41 338.8C141.466 338.845 140.926 339.613 140.022 340.828C138.995 342.187 137.789 343.783 136.458 345.546C135.131 347.312 133.931 348.911 132.909 350.272C132.01 351.487 131.456 352.243 131.392 352.202C131.335 352.166 131.782 351.337 132.608 350.062C133.436 348.789 134.645 347.075 136.044 345.232C137.442 343.388 138.756 341.757 139.735 340.599C140.713 339.441 141.355 338.754 141.41 338.8Z" fill="#263238"/>
<path d="M128.714 386.495C128.714 386.495 127.176 372.713 135.943 366.523C136.251 366.306 136.677 366.519 136.672 366.896C136.644 369.117 135.861 375.746 128.714 386.495Z" fill="#E8505B"/>
<path d="M134.311 370.698C134.377 370.725 134.083 371.617 133.572 373.042C132.984 374.641 132.294 376.518 131.531 378.592C130.775 380.668 130.091 382.546 129.508 384.145C129 385.569 128.69 386.453 128.617 386.433C128.552 386.415 128.739 385.492 129.159 384.032C129.582 382.574 130.24 380.582 131.044 378.412C131.846 376.242 132.63 374.299 133.23 372.907C133.83 371.514 134.245 370.671 134.311 370.698Z" fill="#263238"/>
<path d="M136.388 420.899C136.388 420.899 135.345 407.071 144.327 401.198C144.642 400.992 145.06 401.221 145.042 401.597C144.935 403.816 143.914 410.414 136.388 420.899Z" fill="#E8505B"/>
<path d="M142.546 405.313C142.611 405.342 142.286 406.223 141.723 407.629C141.078 409.206 140.321 411.057 139.485 413.103C138.655 415.15 137.904 417.003 137.264 418.58C136.706 419.985 136.364 420.857 136.291 420.834C136.227 420.814 136.446 419.898 136.919 418.454C137.394 417.012 138.123 415.045 139.005 412.905C139.884 410.765 140.737 408.852 141.387 407.482C142.037 406.111 142.481 405.283 142.546 405.313Z" fill="#263238"/>
<path d="M120.657 309.446C120.657 309.446 108.365 303.027 108.124 292.298C108.116 291.921 108.531 291.687 108.841 291.902C110.668 293.164 115.73 297.516 120.657 309.446Z" fill="#E8505B"/>
<path d="M110.677 295.983C110.737 295.943 111.312 296.685 112.209 297.905C113.207 299.286 114.379 300.906 115.674 302.697C116.974 304.483 118.15 306.099 119.152 307.476C120.05 308.692 120.61 309.443 120.552 309.492C120.501 309.536 119.839 308.866 118.863 307.702C117.889 306.537 116.605 304.879 115.253 303C113.9 301.123 112.726 299.388 111.906 298.113C111.086 296.838 110.617 296.023 110.677 295.983Z" fill="#263238"/>
<path d="M133.857 337.87C133.857 337.87 121.198 332.209 120.306 321.514C120.275 321.138 120.675 320.88 120.997 321.075C122.897 322.225 128.214 326.262 133.857 337.87Z" fill="#E8505B"/>
<path d="M123.077 325.038C123.134 324.994 123.753 325.7 124.722 326.864C125.802 328.182 127.071 329.728 128.472 331.436C129.878 333.14 131.15 334.682 132.233 335.995C133.203 337.155 133.808 337.87 133.753 337.923C133.705 337.97 133.004 337.341 131.959 336.239C130.916 335.135 129.534 333.558 128.07 331.765C126.606 329.973 125.328 328.313 124.433 327.09C123.537 325.866 123.02 325.082 123.077 325.038Z" fill="#263238"/>
<path d="M126.573 369.576C126.573 369.576 117.881 358.771 121.958 348.843C122.101 348.494 122.575 348.446 122.773 348.767C123.941 350.656 126.836 356.671 126.573 369.576Z" fill="#E8505B"/>
<path d="M122.82 353.242C122.891 353.229 123.121 354.139 123.453 355.617C123.815 357.282 124.239 359.236 124.709 361.396C125.184 363.553 125.615 365.505 125.981 367.168C126.317 368.642 126.529 369.555 126.456 369.577C126.392 369.597 126.054 368.718 125.626 367.26C125.2 365.803 124.688 363.769 124.202 361.506C123.715 359.244 123.334 357.184 123.093 355.687C122.852 354.189 122.749 353.255 122.82 353.242Z" fill="#263238"/>
<path d="M135.182 406.886C135.182 406.886 122.62 401.013 121.907 390.305C121.882 389.929 122.287 389.677 122.606 389.877C124.487 391.059 129.736 395.184 135.182 406.886Z" fill="#E8505B"/>
<path d="M124.619 393.875C124.677 393.833 125.284 394.548 126.234 395.728C127.292 397.063 128.534 398.631 129.907 400.363C131.284 402.09 132.53 403.653 133.591 404.985C134.542 406.161 135.134 406.886 135.079 406.938C135.03 406.984 134.339 406.344 133.313 405.224C132.289 404.103 130.933 402.503 129.5 400.685C128.066 398.869 126.817 397.188 125.942 395.949C125.066 394.711 124.562 393.917 124.619 393.875Z" fill="#263238"/>
<path d="M160.204 352.365C160.216 352.366 160.221 352.47 160.22 352.671C160.214 352.912 160.207 353.204 160.198 353.557C160.161 354.39 160.111 355.515 160.049 356.919C159.887 359.875 159.661 363.997 159.391 368.927L159.39 368.939L159.387 368.956C158.49 373.974 155.935 379.536 152.502 384.935C149.984 388.913 147.344 392.529 145.068 395.893C142.777 399.247 140.843 402.353 139.494 405.106C138.137 407.855 137.348 410.217 136.887 411.867C136.666 412.695 136.5 413.341 136.405 413.784C136.302 414.224 136.239 414.455 136.221 414.452C136.203 414.449 136.232 414.212 136.302 413.764C136.365 413.314 136.499 412.658 136.691 411.817C137.095 410.142 137.837 407.74 139.164 404.947C140.481 402.15 142.397 399.002 144.671 395.626C146.932 392.239 149.557 388.617 152.062 384.659C155.477 379.286 158.019 373.809 158.949 368.871L158.945 368.899C159.291 363.973 159.58 359.856 159.788 356.903C159.901 355.502 159.992 354.38 160.059 353.548C160.094 353.196 160.124 352.906 160.148 352.666C160.174 352.466 160.193 352.364 160.204 352.365Z" fill="#263238"/>
<path d="M152.724 383.903C152.724 383.903 158.044 371.097 151.352 362.707C151.117 362.413 150.648 362.499 150.548 362.862C149.955 365.003 148.859 371.588 152.724 383.903Z" fill="#E8505B"/>
<path d="M151.755 367.172C151.826 367.164 151.989 368.09 152.177 369.595C152.365 371.1 152.576 373.184 152.741 375.491C152.908 377.799 152.985 379.895 152.984 381.414C152.981 382.933 152.902 383.872 152.835 383.871C152.759 383.87 152.708 382.935 152.617 381.426C152.504 379.727 152.37 377.733 152.223 375.529C152.069 373.325 151.93 371.33 151.811 369.63C151.718 368.117 151.684 367.179 151.755 367.172Z" fill="#263238"/>
<g opacity="0.3">
<path d="M152.724 383.903C152.724 383.903 158.044 371.097 151.352 362.707C151.117 362.413 150.648 362.499 150.548 362.862C149.955 365.003 148.859 371.588 152.724 383.903Z" fill="black"/>
</g>
<path d="M136.246 414.763C136.246 414.763 140.51 401.568 133.16 393.748C132.902 393.473 132.442 393.598 132.371 393.968C131.953 396.15 131.395 402.802 136.246 414.763Z" fill="#E8505B"/>
<path d="M133.923 398.166C133.993 398.153 134.231 399.062 134.54 400.547C134.85 402.031 135.229 404.091 135.58 406.378C135.933 408.665 136.18 410.748 136.303 412.262C136.423 413.776 136.421 414.718 136.354 414.723C136.278 414.728 136.151 413.8 135.939 412.303C135.688 410.619 135.393 408.642 135.068 406.457C134.736 404.272 134.435 402.295 134.179 400.611C133.963 399.111 133.853 398.179 133.923 398.166Z" fill="#263238"/>
<g opacity="0.3">
<path d="M136.246 414.763C136.246 414.763 140.51 401.568 133.16 393.748C132.902 393.473 132.442 393.598 132.371 393.968C131.953 396.15 131.395 402.802 136.246 414.763Z" fill="black"/>
</g>
<path d="M159.5 368.252C159.5 368.252 170.86 360.299 169.714 349.629C169.674 349.254 169.232 349.076 168.952 349.328C167.303 350.817 162.845 355.786 159.5 368.252Z" fill="#E8505B"/>
<g opacity="0.3">
<path d="M159.5 368.252C159.5 368.252 170.86 360.299 169.714 349.629C169.674 349.254 169.232 349.076 168.952 349.328C167.303 350.817 162.845 355.786 159.5 368.252Z" fill="black"/>
</g>
<path d="M167.658 353.613C167.722 353.645 167.363 354.513 166.714 355.884C166.066 357.255 165.125 359.127 164.026 361.163C162.928 363.2 161.869 365.011 161.054 366.292C160.236 367.572 159.667 368.322 159.61 368.285C159.546 368.243 160.005 367.427 160.738 366.104C161.554 364.609 162.511 362.855 163.569 360.916C164.622 358.973 165.575 357.215 166.387 355.717C167.12 354.391 167.594 353.582 167.658 353.613Z" fill="#263238"/>
<path d="M140.827 401.681C140.827 401.681 154.529 399.545 158.199 389.46C158.328 389.106 158.01 388.751 157.647 388.855C155.511 389.465 149.32 391.963 140.827 401.681Z" fill="#E8505B"/>
<g opacity="0.3">
<path d="M140.827 401.681C140.827 401.681 154.529 399.545 158.199 389.46C158.328 389.106 158.01 388.751 157.647 388.855C155.511 389.465 149.32 391.963 140.827 401.681Z" fill="black"/>
</g>
<path d="M154.599 392.132C154.643 392.189 153.937 392.81 152.751 393.755C151.565 394.7 149.897 395.966 148.013 397.31C146.13 398.656 144.382 399.814 143.086 400.606C141.788 401.395 140.946 401.818 140.912 401.76C140.873 401.695 141.645 401.163 142.885 400.299C144.276 399.316 145.908 398.163 147.712 396.888C149.513 395.608 151.143 394.448 152.531 393.461C153.772 392.593 154.555 392.075 154.599 392.132Z" fill="#263238"/>
<path d="M127.756 426.897L123.759 453.798H148.667L145.437 426.897H127.756Z" fill="#455A64"/>
<path d="M146.433 435.233C146.433 435.376 141.936 435.492 136.389 435.492C130.841 435.492 126.345 435.376 126.345 435.233C126.345 435.09 130.841 434.974 136.389 434.974C141.936 434.973 146.433 435.089 146.433 435.233Z" fill="#263238"/>
<path d="M146.927 437.373C146.927 437.516 142.282 437.632 136.554 437.632C130.824 437.632 126.18 437.516 126.18 437.373C126.18 437.23 130.824 437.114 136.554 437.114C142.282 437.114 146.927 437.23 146.927 437.373Z" fill="#263238"/>
</svg>
